SplineFontDB: 3.0
FontName: PakTypeNaskhBasicSA
FullName: PakType Naskh Basic SA
FamilyName: PakType Naskh Basic SA
Weight: Book
Copyright: Latin script characters are taken from Universalis ADF Std Regular which has following license:\n\n"Copyright Arkandis Digital Foundry, under GNU General Public Licence V2 and later, with font exception."\n\nOTF made by Lateef Sagar Shaikh. This font is free for distribution under GPL. Please visit groups.yahoo.com/group/paktype for more details.\n\nArabic glyphs taken from ArabEyes.org font KacstQurn, having following copyright notice:\n\nKACST holds the copyright of the included Arabic font which is donated under GPL by KACST.\n\nURW Design and Development holds the copyright of the included Latin font which is donated under GPL by URW.\n\nCopyright (c) Pakistani Typography. groups.yahoo.com/group/paktype\n\nAs a special exception, if you create a document which uses this font, and embed this font or unaltered portions of this font into the document, this font does not by itself cause the resulting document to be covered by the GNU General Public License. This exception does not however invalidate any other reasons why the document might be covered by the GNU General Public License. If you modify this font, you may extend this exception to your version of the font, but you are not obligated to do so. If you do not wish to do so, delete this exception statement from your version.
Version: 3.1
ItalicAngle: 0
UnderlinePosition: -1638
UnderlineWidth: 204
Ascent: 1638
Descent: 410
LayerCount: 2
Layer: 0 1 "Back"  1
Layer: 1 1 "Fore"  0
XUID: [1021 688 449052045 11787003]
FSType: 0
OS2Version: 1
OS2_WeightWidthSlopeOnly: 0
OS2_UseTypoMetrics: 1
CreationTime: 1051617299
ModificationTime: 1325708021
PfmFamily: 81
TTFWeight: 400
TTFWidth: 5
LineGap: 0
VLineGap: 0
Panose: 0 0 4 0 0 0 0 0 0 0
OS2TypoAscent: 460
OS2TypoAOffset: 1
OS2TypoDescent: -651
OS2TypoDOffset: 1
OS2TypoLinegap: 67
OS2WinAscent: 389
OS2WinAOffset: 1

StartChar: NameMe.4
Encoding: 4 -1 1
Width: 1361
Flags: W
HStem: -6 129<617.772 737.139> 41 125<397.18 518.462 842.145 962.75> 162 129<209.285 331.442 1030.18 1148.86> 352 131<82.2148 204.75 1153.39 1281.71> 575 130<35.3555 157.891 1200.32 1320.93> 797 127<81.8611 205.109 1153.13 1281.86> 987 127<208.802 331.68 1026.32 1148.86> 1114 125<396.832 518.139 837.92 963.109> 1155 129<618.476 736.401>
VStem: 33 127<577.25 702.68> 80 127<353.95 481.08 798.92 922.168> 207 127<163.802 288.609 989.32 1111.86> 395 125<42.7429 164.389 1115.46 1237.41> 616 123<-4.41309 121.438 1156.71 1282.56> 840 125<42.7429 164.05 1115.77 1237.08> 1028 123<163.489 289.34 988.305 1112.79> 1151 133<354.32 480.715 799.285 921.033> 1198 125<577.25 702.68>
LayerCount: 2
Fore
SplineSet
1151 1053 m 0,0,1
 1151 987 1151 987 1090 987 c 0,2,3
 1024 987 1024 987 1024 1053 c 0,4,5
 1024 1114 1024 1114 1090 1114 c 0,6,7
 1151 1114 1151 1114 1151 1053 c 0,0,1
965 1174 m 0,8,9
 965 1114 965 1114 901 1114 c 0,10,11
 836 1114 836 1114 836 1174 c 0,12,13
 836 1239 836 1239 901 1239 c 0,14,15
 965 1239 965 1239 965 1174 c 0,8,9
1284 862 m 0,16,17
 1284 797 1284 797 1219 797 c 0,18,19
 1151 797 1151 797 1151 862 c 0,20,21
 1151 924 1151 924 1223 924 c 0,22,23
 1284 924 1284 924 1284 862 c 0,16,17
1323 639 m 0,24,25
 1323 575 1323 575 1264 575 c 0,26,27
 1198 575 1198 575 1198 639 c 0,28,29
 1198 705 1198 705 1264 705 c 0,30,31
 1323 705 1323 705 1323 639 c 0,24,25
739 1225 m 0,32,33
 739 1155 739 1155 676 1155 c 0,34,35
 616 1155 616 1155 616 1225 c 0,36,37
 616 1284 616 1284 676 1284 c 0,38,39
 739 1284 739 1284 739 1225 c 0,32,33
1284 418 m 0,40,41
 1284 352 1284 352 1219 352 c 0,42,43
 1151 352 1151 352 1151 418 c 0,44,45
 1151 483 1151 483 1219 483 c 0,46,47
 1284 483 1284 483 1284 418 c 0,40,41
520 1174 m 0,48,49
 520 1114 520 1114 457 1114 c 256,50,51
 395 1114 395 1114 395 1174 c 0,52,53
 395 1239 395 1239 457 1239 c 256,54,55
 520 1239 520 1239 520 1174 c 0,48,49
334 1053 m 0,56,57
 334 987 334 987 268 987 c 0,58,59
 207 987 207 987 207 1049 c 0,60,61
 207 1114 207 1114 268 1114 c 0,62,63
 334 1114 334 1114 334 1053 c 0,56,57
1151 223 m 0,64,65
 1151 162 1151 162 1090 162 c 0,66,67
 1028 162 1028 162 1028 223 c 0,68,69
 1028 291 1028 291 1090 291 c 0,70,71
 1151 291 1151 291 1151 223 c 0,64,65
965 100 m 0,72,73
 965 41 965 41 901 41 c 0,74,75
 840 41 840 41 840 100 c 0,76,77
 840 166 840 166 901 166 c 0,78,79
 965 166 965 166 965 100 c 0,72,73
207 862 m 0,80,81
 207 797 207 797 143 797 c 0,82,83
 80 797 80 797 80 862 c 0,84,85
 80 924 80 924 143 924 c 0,86,87
 207 924 207 924 207 862 c 0,80,81
160 639 m 0,88,89
 160 575 160 575 100 575 c 0,90,91
 33 575 33 575 33 639 c 0,92,93
 33 705 33 705 100 705 c 0,94,95
 160 705 160 705 160 639 c 0,88,89
739 59 m 0,96,97
 739 -6 739 -6 676 -6 c 0,98,99
 616 -6 616 -6 616 59 c 0,100,101
 616 123 616 123 676 123 c 0,102,103
 739 123 739 123 739 59 c 0,96,97
520 104 m 0,104,105
 520 41 520 41 457 41 c 256,106,107
 395 41 395 41 395 100 c 0,108,109
 395 166 395 166 457 166 c 256,110,111
 520 166 520 166 520 104 c 0,104,105
207 418 m 0,112,113
 207 352 207 352 143 352 c 0,114,115
 80 352 80 352 80 418 c 0,116,117
 80 483 80 483 143 483 c 0,118,119
 207 483 207 483 207 418 c 0,112,113
334 223 m 0,120,121
 334 162 334 162 272 162 c 0,122,123
 207 162 207 162 207 223 c 0,124,125
 207 291 207 291 268 291 c 0,126,127
 334 291 334 291 334 223 c 0,120,121
EndSplineSet
EndChar

StartChar: NameMe.5
Encoding: 5 -1 2
Width: 71
Flags: W
VStem: 0 76<-1024 2097>
LayerCount: 2
Fore
SplineSet
76 -1024 m 1,0,-1
 0 -1024 l 1,1,-1
 0 2097 l 1,2,-1
 76 2097 l 1,3,-1
 76 -1024 l 1,0,-1
EndSplineSet
EndChar

StartChar: NameMe.6
Encoding: 6 -1 3
Width: 73
Flags: W
VStem: 0 76<-1024 1579>
LayerCount: 2
Fore
SplineSet
268 1489 m 1,0,-1
 215 1440 l 1,1,-1
 76 1579 l 1,2,-1
 76 -1024 l 1,3,-1
 0 -1024 l 1,4,-1
 0 1579 l 1,5,-1
 -139 1440 l 1,6,-1
 -190 1489 l 1,7,-1
 -10 1671 l 1,8,-1
 -190 1847 l 1,9,-1
 -139 1901 l 1,10,-1
 41 1718 l 1,11,-1
 215 1901 l 1,12,-1
 268 1847 l 1,13,-1
 88 1671 l 1,14,-1
 268 1489 l 1,0,-1
EndSplineSet
EndChar

StartChar: NameMe.7
Encoding: 7 -1 4
Width: 71
Flags: W
HStem: 1636 76<76 365>
VStem: 0 76<-1024 1636>
LayerCount: 2
Fore
SplineSet
508 1671 m 1,0,-1
 281 1440 l 1,1,-1
 227 1493 l 1,2,-1
 373 1636 l 1,3,-1
 76 1636 l 1,4,-1
 76 -1024 l 1,5,-1
 0 -1024 l 1,6,-1
 0 1712 l 1,7,-1
 365 1712 l 1,8,-1
 227 1847 l 1,9,-1
 281 1901 l 1,10,-1
 508 1671 l 1,0,-1
EndSplineSet
EndChar

StartChar: NameMe.8
Encoding: 8 -1 5
Width: 75
Flags: W
HStem: 1636 76<-289 0>
VStem: 0 76<-1024 1636>
LayerCount: 2
Fore
SplineSet
-205 1901 m 1,0,-1
 -152 1847 l 1,1,-1
 -289 1712 l 1,2,-1
 76 1712 l 1,3,-1
 76 -1024 l 1,4,-1
 0 -1024 l 1,5,-1
 0 1636 l 1,6,-1
 -297 1636 l 1,7,-1
 -152 1493 l 1,8,-1
 -205 1440 l 1,9,-1
 -434 1671 l 1,10,-1
 -205 1901 l 1,0,-1
EndSplineSet
EndChar

StartChar: NameMe.9
Encoding: 9 -1 6
Width: 0
Flags: W
HStem: 8 281<69.5029 174.21>
VStem: 10 234
LayerCount: 2
Fore
SplineSet
244 168 m 1,0,1
 244 150 244 150 235.5 124 c 128,-1,2
 227 98 227 98 215 72.5 c 128,-1,3
 203 47 203 47 187.5 29.5 c 128,-1,4
 172 12 172 12 160 8 c 1,5,6
 143 8 143 8 124.5 18.5 c 128,-1,7
 106 29 106 29 84.5 42 c 128,-1,8
 63 55 63 55 44 74.5 c 128,-1,9
 25 94 25 94 10 115 c 1,10,11
 25 156 25 156 40 189.5 c 128,-1,12
 55 223 55 223 69.5 244.5 c 128,-1,13
 84 266 84 266 94 277.5 c 128,-1,14
 104 289 104 289 106 289 c 256,15,16
 109 289 109 289 130.5 275.5 c 128,-1,17
 152 262 152 262 176.5 242.5 c 128,-1,18
 201 223 201 223 220.5 203.5 c 128,-1,19
 240 184 240 184 244 168 c 1,0,1
EndSplineSet
EndChar

StartChar: NameMe.17
Encoding: 17 -1 14
Width: 0
Flags: W
HStem: 346 125<153.264 282.005>
VStem: 49 436
LayerCount: 2
Fore
SplineSet
452.5 222 m 128,-1,1
 420 180 420 180 342 141 c 0,2,3
 250 96 250 96 196.5 69.5 c 128,-1,4
 143 43 143 43 127 25 c 1,5,6
 117 25 117 25 109 25 c 0,7,8
 96 25 96 25 88 27 c 0,9,10
 80 31 80 31 80 39 c 0,11,12
 82 53 82 53 104.5 87 c 128,-1,13
 127 121 127 121 172 145 c 1,14,-1
 102 162 l 2,15,16
 82 166 82 166 65.5 186.5 c 128,-1,17
 49 207 49 207 49 242 c 1,18,19
 63 291 63 291 86 334 c 128,-1,20
 109 377 109 377 134.5 406.5 c 128,-1,21
 160 436 160 436 189.5 453.5 c 128,-1,22
 219 471 219 471 248 471 c 0,23,24
 260 471 260 471 272.5 469 c 128,-1,25
 285 467 285 467 295 460 c 128,-1,26
 305 453 305 453 311 441.5 c 128,-1,27
 317 430 317 430 317 414 c 2,28,-1
 317 348 l 1,29,-1
 236 313 l 1,30,31
 229 334 229 334 227 340 c 128,-1,32
 225 346 225 346 221 346 c 0,33,34
 197 344 197 344 179.5 340 c 128,-1,35
 162 336 162 336 151.5 331 c 128,-1,36
 141 326 141 326 138 317.5 c 128,-1,37
 135 309 135 309 135 299 c 1,38,39
 141 285 141 285 151.5 274.5 c 128,-1,40
 162 264 162 264 179.5 255 c 128,-1,41
 197 246 197 246 223.5 238.5 c 128,-1,42
 250 231 250 231 293 225 c 1,43,44
 303 231 303 231 317.5 238.5 c 128,-1,45
 332 246 332 246 351.5 257 c 128,-1,46
 371 268 371 268 398.5 284.5 c 128,-1,47
 426 301 426 301 467 330 c 1,48,49
 471 330 471 330 473 330 c 0,50,51
 485 330 485 330 485 315 c 0,52,0
 485 264 485 264 452.5 222 c 128,-1,1
EndSplineSet
EndChar

StartChar: NameMe.18
Encoding: 18 -1 15
Width: 0
Flags: W
HStem: 20 627
LayerCount: 2
Fore
SplineSet
516.5 230 m 132,-1,1
 496 184 496 184 475.5 153.5 c 132,-1,2
 455 123 455 123 428 98.5 c 132,-1,3
 401 74 401 74 369 47 c 5,4,-1
 55 20 l 5,5,6
 76 43 76 43 114 65.5 c 132,-1,7
 152 88 152 88 195 107.5 c 132,-1,8
 238 127 238 127 281 147.5 c 132,-1,9
 324 168 324 168 356.5 182.5 c 132,-1,10
 389 197 389 197 414 213 c 5,11,12
 362 244 362 244 330.5 267.5 c 132,-1,13
 299 291 299 291 281.5 309.5 c 132,-1,14
 264 328 264 328 259 346.5 c 132,-1,15
 254 365 254 365 254 385 c 4,16,17
 254 412 254 412 267.5 446.5 c 132,-1,18
 281 481 281 481 301.5 518 c 132,-1,19
 322 555 322 555 352.5 589 c 132,-1,20
 383 623 383 623 418 647 c 5,21,22
 416 643 416 643 416 629 c 6,23,-1
 416 621 l 6,24,25
 416 616 416 616 416 610 c 5,26,27
 395 580 395 580 377.5 550 c 132,-1,28
 360 520 360 520 340 487 c 5,29,-1
 334 467 l 5,30,31
 356 451 356 451 379.5 443.5 c 132,-1,32
 403 436 403 436 436 431 c 132,-1,33
 469 426 469 426 496 422 c 5,34,35
 559 401 559 401 559 344 c 5,36,0
 537 276 537 276 516.5 230 c 132,-1,1
EndSplineSet
EndChar

StartChar: NameMe.19
Encoding: 19 -1 16
Width: 0
Flags: W
HStem: 461 114<338 437.625>
VStem: 41 588
LayerCount: 2
Fore
SplineSet
279 168 m 0,0,1
 231 127 231 127 184 125 c 1,2,3
 164 131 164 131 161 133 c 128,-1,4
 158 135 158 135 152.5 139 c 128,-1,5
 147 143 147 143 135 154 c 1,6,7
 113 147 113 147 88 98 c 0,8,9
 76 68 76 68 55 29 c 1,10,11
 43 29 43 29 41 31 c 1,12,13
 51 90 51 90 58.5 108.5 c 128,-1,14
 66 127 66 127 74 143 c 0,15,16
 109 215 109 215 135 219 c 1,17,-1
 207 193 l 1,18,19
 244 197 244 197 256 219 c 1,20,-1
 260 244 l 1,21,-1
 254 260 l 1,22,23
 242 272 242 272 227.5 284.5 c 128,-1,24
 213 297 213 297 200.5 307 c 128,-1,25
 188 317 188 317 180 330.5 c 128,-1,26
 172 344 172 344 172 358 c 0,27,28
 172 379 172 379 197 403 c 0,29,30
 213 424 213 424 235.5 451.5 c 128,-1,31
 258 479 258 479 282.5 505.5 c 128,-1,32
 307 532 307 532 336 552.5 c 128,-1,33
 365 573 365 573 412 575 c 1,34,35
 471 567 471 567 496 528 c 1,36,37
 489 498 489 498 474 473.5 c 128,-1,38
 459 449 459 449 438 428 c 1,39,40
 426 432 426 432 414.5 439 c 128,-1,41
 403 446 403 446 390 453.5 c 128,-1,42
 377 461 377 461 352 461 c 1,43,-1
 338 459 l 1,44,45
 315 449 315 449 307 434.5 c 128,-1,46
 299 420 299 420 293 391 c 1,47,48
 319 356 319 356 408 338 c 1,49,50
 492 344 492 344 567 350 c 2,51,-1
 616 352 l 1,52,53
 629 348 629 348 629 338 c 1,54,55
 629 324 629 324 625 315.5 c 128,-1,56
 621 307 621 307 616 303 c 0,57,58
 592 268 592 268 559 256 c 128,-1,59
 526 244 526 244 489.5 240 c 128,-1,60
 453 236 453 236 415 233.5 c 128,-1,61
 377 231 377 231 344 215 c 0,62,63
 328 209 328 209 313.5 196.5 c 128,-1,64
 299 184 299 184 279 168 c 0,0,1
EndSplineSet
EndChar

StartChar: NameMe.20
Encoding: 20 -1 17
Width: 0
Flags: W
HStem: 41 72<147.475 201 360 458.113>
VStem: 188 60<530 608> 461 123<128.365 173.938>
LayerCount: 2
Fore
SplineSet
579.5 165 m 128,-1,1
 575 152 575 152 569 141.5 c 128,-1,2
 563 131 563 131 554 122 c 128,-1,3
 545 113 545 113 532 100 c 0,4,5
 516 86 516 86 491.5 74.5 c 128,-1,6
 467 63 467 63 433 55 c 128,-1,7
 399 47 399 47 365 43 c 0,8,9
 299 37 299 37 201 41 c 0,10,11
 162 41 162 41 147 43 c 0,12,13
 143 45 l 0,14,15
 139 47 139 47 132 51 c 128,-1,16
 125 55 125 55 112.5 62.5 c 128,-1,17
 100 70 100 70 84 81 c 128,-1,18
 68 92 68 92 43 106 c 1,19,20
 43 113 43 113 43 117 c 1,21,22
 88 113 88 113 90 113 c 0,23,-1
 164 113 l 2,24,-1
 201 113 l 1,25,-1
 219 125 l 1,26,27
 215 182 215 182 212 231.5 c 128,-1,28
 209 281 209 281 204 323 c 128,-1,29
 199 365 199 365 194.5 400.5 c 128,-1,30
 190 436 190 436 188 471 c 1,31,32
 166 500 166 500 168 506 c 0,33,34
 176 526 176 526 188 530 c 1,35,36
 188 537 188 537 192.5 546 c 128,-1,37
 197 555 197 555 214 569.5 c 128,-1,38
 231 584 231 584 248 608 c 1,39,40
 248 598 248 598 255 567.5 c 128,-1,41
 262 537 262 537 311 537 c 1,42,43
 303 492 303 492 276 487 c 1,44,45
 289 467 289 467 291 443.5 c 128,-1,46
 293 420 293 420 296 388 c 128,-1,47
 299 356 299 356 301 322.5 c 128,-1,48
 303 289 303 289 305 254 c 0,49,50
 309 193 309 193 309 184 c 0,51,52
 307 176 307 176 306 172 c 128,-1,53
 305 168 305 168 303 160 c 1,54,55
 328 190 328 190 345 202.5 c 128,-1,56
 362 215 362 215 385 235.5 c 128,-1,57
 408 256 408 256 428.5 266 c 128,-1,58
 449 276 449 276 459 278.5 c 128,-1,59
 469 281 469 281 485 283 c 1,60,61
 496 281 496 281 506 278.5 c 128,-1,62
 516 276 516 276 528.5 271 c 128,-1,63
 541 266 541 266 556 254 c 128,-1,64
 571 242 571 242 575.5 232.5 c 128,-1,65
 580 223 580 223 582 216 c 128,-1,66
 584 209 584 209 584 201 c 0,67,0
 584 178 584 178 579.5 165 c 128,-1,1
458 163 m 128,-1,69
 455 168 455 168 449.5 170 c 128,-1,70
 444 172 444 172 434 174 c 1,71,72
 416 174 416 174 401.5 158.5 c 128,-1,73
 387 143 387 143 360 127 c 1,74,75
 389 127 389 127 399.5 127 c 128,-1,76
 410 127 410 127 420 129 c 128,-1,77
 430 131 430 131 433 132 c 128,-1,78
 436 133 436 133 438 134 c 128,-1,79
 440 135 440 135 443 136 c 128,-1,80
 446 137 446 137 449.5 139 c 128,-1,81
 453 141 453 141 461 152 c 1,82,68
 461 158 461 158 458 163 c 128,-1,69
EndSplineSet
EndChar

StartChar: NameMe.21
Encoding: 21 -1 18
Width: 0
Flags: W
HStem: 29 127<72.8899 278.874> 319 113<93.6785 241.561>
VStem: 25 41<105.72 298.582> 289 69<165.9 262.529>
LayerCount: 2
Fore
SplineSet
341 162 m 128,-1,1
 324 123 324 123 298 93 c 128,-1,2
 272 63 272 63 236.5 46 c 128,-1,3
 201 29 201 29 162 29 c 0,4,5
 25 29 25 29 25 184 c 0,6,7
 25 236 25 236 36 282 c 128,-1,8
 47 328 47 328 71.5 361.5 c 128,-1,9
 96 395 96 395 128 413.5 c 128,-1,10
 160 432 160 432 201 432 c 0,11,12
 229 432 229 432 259 415.5 c 128,-1,13
 289 399 289 399 310.5 372.5 c 128,-1,14
 332 346 332 346 345 311 c 128,-1,15
 358 276 358 276 358 240 c 0,16,0
 358 201 358 201 341 162 c 128,-1,1
272.5 243.5 m 128,-1,18
 256 264 256 264 232.5 281.5 c 128,-1,19
 209 299 209 299 184.5 309 c 128,-1,20
 160 319 160 319 141 319 c 0,21,22
 66 319 66 319 66 231 c 0,23,24
 66 156 66 156 184 156 c 0,25,26
 289 156 289 156 289 209 c 0,27,17
 289 223 289 223 272.5 243.5 c 128,-1,18
EndSplineSet
EndChar

StartChar: NameMe.22
Encoding: 22 -1 19
Width: -32645
Flags: W
HStem: 16 404
VStem: 29 530
LayerCount: 2
Fore
SplineSet
559 358 m 1,0,1
 543 346 543 346 517.5 322.5 c 128,-1,2
 492 299 492 299 461 260 c 2,3,-1
 412 203 l 1,4,-1
 371 139 l 2,5,6
 356 117 356 117 345 95.5 c 128,-1,7
 334 74 334 74 324 51 c 256,8,9
 315 33 315 33 307 25 c 0,10,11
 301 18 301 18 295 16 c 1,12,13
 287 16 287 16 279 31 c 2,14,-1
 250 82 l 2,15,16
 246 94 246 94 237.5 108.5 c 128,-1,17
 229 123 229 123 219 137 c 256,18,19
 209 156 209 156 198.5 172 c 128,-1,20
 188 188 188 188 174 203 c 0,21,22
 104 289 104 289 29 340 c 1,23,24
 39 360 39 360 51 377.5 c 128,-1,25
 63 395 63 395 82 412 c 1,26,27
 96 403 96 403 110.5 394 c 128,-1,28
 125 385 125 385 133 375 c 2,29,-1
 162 348 l 1,30,-1
 190 317 l 2,31,32
 203 303 203 303 215 286.5 c 128,-1,33
 227 270 227 270 244 248 c 2,34,-1
 270 209 l 1,35,-1
 287 180 l 1,36,-1
 293 166 l 1,37,-1
 299 152 l 2,38,39
 301 150 301 150 304 145.5 c 128,-1,40
 307 141 307 141 311 139 c 1,41,-1
 315 143 l 1,42,-1
 328 158 l 1,43,-1
 373 233 l 2,44,45
 387 262 387 262 406.5 286.5 c 128,-1,46
 426 311 426 311 453 338 c 2,47,-1
 475 362 l 1,48,-1
 498 383 l 2,49,50
 508 389 508 389 521.5 398.5 c 128,-1,51
 535 408 535 408 551 420 c 1,52,-1
 559 358 l 1,0,1
EndSplineSet
EndChar

StartChar: NameMe.23
Encoding: 23 -1 20
Width: 0
Flags: W
HStem: 27 75<59.5571 541>
VStem: 37 547
LayerCount: 2
Fore
SplineSet
584 102 m 1,0,-1
 541 27 l 1,1,-1
 37 27 l 1,2,3
 51 55 51 55 63.5 69.5 c 128,-1,4
 76 84 76 84 92.5 91 c 128,-1,5
 109 98 109 98 176 102 c 2,6,-1
 584 102 l 1,0,-1
EndSplineSet
EndChar

StartChar: NameMe.24
Encoding: 24 -1 21
Width: 0
Flags: W
HStem: 18 258<219 330.779>
VStem: 35 90<243.438 471.89>
LayerCount: 2
Fore
SplineSet
365 143 m 0,0,1
 365 117 365 117 356.5 94.5 c 128,-1,2
 348 72 348 72 331.5 54.5 c 128,-1,3
 315 37 315 37 289.5 27.5 c 128,-1,4
 264 18 264 18 231 18 c 0,5,6
 158 18 158 18 100 100 c 0,7,8
 35 184 35 184 35 299 c 0,9,10
 35 412 35 412 96 500 c 0,11,12
 119 530 119 530 145.5 554 c 128,-1,13
 172 578 172 578 205 594 c 1,14,-1
 236 604 l 1,15,16
 190 573 190 573 158 506 c 0,17,18
 125 436 125 436 125 371 c 2,19,-1
 125 336 l 2,20,21
 125 322 125 322 133 297 c 128,-1,22
 141 272 141 272 162 242 c 1,23,-1
 205 264 l 1,24,-1
 219 272 l 1,25,-1
 244 276 l 2,26,27
 293 276 293 276 332 236 c 0,28,29
 365 199 365 199 365 143 c 0,0,1
EndSplineSet
EndChar

StartChar: NameMe.25
Encoding: 25 -1 22
Width: -32645
Flags: W
HStem: 12 402
VStem: 45 530
LayerCount: 2
Fore
SplineSet
575 74 m 5,0,1
 565 12 l 5,2,3
 551 25 551 25 537.5 34 c 132,-1,4
 524 43 524 43 516 49 c 6,5,-1
 492 70 l 5,6,-1
 469 92 l 6,7,8
 442 121 442 121 422.5 145.5 c 132,-1,9
 403 170 403 170 389 199 c 6,10,-1
 344 272 l 5,11,-1
 334 287 l 5,12,-1
 328 293 l 5,13,14
 324 289 324 289 321.5 286 c 132,-1,15
 319 283 319 283 317 279 c 6,16,-1
 307 264 l 5,17,-1
 301 252 l 5,18,-1
 287 223 l 5,19,-1
 262 184 l 6,20,21
 246 162 246 162 231.5 144.5 c 132,-1,22
 217 127 217 127 209 115 c 6,23,-1
 178 84 l 5,24,-1
 152 57 l 6,25,26
 139 47 139 47 127 38 c 132,-1,27
 115 29 115 29 100 20 c 5,28,29
 82 37 82 37 67.5 54.5 c 132,-1,30
 53 72 53 72 45 92 c 5,31,32
 121 141 121 141 193 229 c 4,33,34
 205 244 205 244 215 260 c 132,-1,35
 225 276 225 276 236 293 c 260,36,37
 246 309 246 309 255 323.5 c 132,-1,38
 264 338 264 338 266 350 c 6,39,-1
 295 401 l 6,40,41
 301 414 301 414 309 414 c 5,42,43
 319 412 319 412 324 408 c 4,44,45
 332 399 332 399 340 381 c 260,46,47
 350 358 350 358 362.5 336.5 c 132,-1,48
 375 315 375 315 387 293 c 6,49,-1
 430 229 l 5,50,-1
 475 172 l 6,51,52
 508 133 508 133 532.5 109.5 c 132,-1,53
 557 86 557 86 575 74 c 5,0,1
EndSplineSet
EndChar

StartChar: NameMe.26
Encoding: 26 -1 23
Width: 0
Flags: W
HStem: 16 291<250 375.591>
VStem: 33 106<273.812 518.737>
LayerCount: 2
Fore
SplineSet
416 158 m 4,0,1
 416 127 416 127 405.5 101.5 c 132,-1,2
 395 76 395 76 376.5 56.5 c 132,-1,3
 358 37 358 37 328.5 26.5 c 132,-1,4
 299 16 299 16 264 16 c 4,5,6
 176 16 176 16 109 109 c 4,7,8
 33 205 33 205 33 338 c 4,9,10
 33 465 33 465 104 563 c 4,11,12
 129 600 129 600 161 625.5 c 132,-1,13
 193 651 193 651 227 672 c 5,14,-1
 268 684 l 5,15,16
 213 647 213 647 176 571 c 4,17,18
 137 492 137 492 137 416 c 6,19,-1
 139 379 l 6,20,21
 139 362 139 362 148.5 333.5 c 132,-1,22
 158 305 158 305 180 270 c 5,23,-1
 227 297 l 5,24,-1
 250 303 l 5,25,-1
 276 307 l 6,26,27
 332 307 332 307 377 264 c 4,28,29
 416 219 416 219 416 158 c 4,0,1
EndSplineSet
EndChar

StartChar: NameMe.27
Encoding: 27 -1 24
Width: 0
Flags: W
HStem: 25 219<60.0952 211.843>
VStem: 29 219<60.0337 209.905>
LayerCount: 2
Fore
SplineSet
248 135 m 4,0,1
 248 113 248 113 237.5 92.5 c 132,-1,2
 227 72 227 72 214 57.5 c 132,-1,3
 201 43 201 43 179.5 34 c 132,-1,4
 158 25 158 25 135 25 c 4,5,6
 94 25 94 25 59 59 c 4,7,8
 29 92 29 92 29 135 c 4,9,10
 29 176 29 176 59 211 c 4,11,12
 92 244 92 244 135 244 c 260,13,14
 176 244 176 244 213 213 c 4,15,16
 248 180 248 180 248 135 c 4,0,1
EndSplineSet
EndChar

StartChar: NameMe.28
Encoding: 28 -1 25
Width: 0
Flags: W
HStem: 1290 129<320.207 620.894>
VStem: 74 145<789.064 1177.53> 444 131<59 342.137> 727 145<918 1175.33>
LayerCount: 2
Fore
SplineSet
872 918 m 1,0,-1
 727 918 l 1,1,2
 727 991 727 991 719 1059.5 c 128,-1,3
 711 1128 711 1128 681 1178.5 c 128,-1,4
 651 1229 651 1229 600 1259.5 c 128,-1,5
 549 1290 549 1290 461 1290 c 0,6,7
 342 1290 342 1290 281 1204 c 0,8,9
 219 1122 219 1122 219 991 c 0,10,11
 219 868 219 868 272 774 c 0,12,13
 324 680 324 680 395 588 c 0,14,15
 446 522 446 522 483 462.5 c 128,-1,16
 520 403 520 403 541.5 344 c 128,-1,17
 563 285 563 285 575 147 c 2,18,-1
 575 59 l 1,19,-1
 444 59 l 1,20,-1
 444 143 l 2,21,22
 432 260 432 260 413.5 309 c 128,-1,23
 395 358 395 358 362.5 405.5 c 128,-1,24
 330 453 330 453 283 518 c 0,25,26
 217 600 217 600 176 665.5 c 128,-1,27
 135 731 135 731 113.5 787.5 c 128,-1,28
 92 844 92 844 83 894 c 128,-1,29
 74 944 74 944 74 999 c 0,30,31
 74 1108 74 1108 106.5 1188 c 128,-1,32
 139 1268 139 1268 194.5 1319 c 128,-1,33
 250 1370 250 1370 320.5 1394.5 c 128,-1,34
 391 1419 391 1419 469 1419 c 0,35,36
 555 1419 555 1419 618.5 1395.5 c 128,-1,37
 682 1372 682 1372 727 1334 c 128,-1,38
 772 1296 772 1296 801.5 1245 c 128,-1,39
 831 1194 831 1194 847.5 1138.5 c 128,-1,40
 864 1083 864 1083 872 918 c 1,0,-1
EndSplineSet
EndChar

StartChar: NameMe.29
Encoding: 29 -1 26
Width: 0
Flags: W
LayerCount: 2
Fore
SplineSet
164 12 m 1,0,-1
 20 12 l 1,1,-1
 655 1620 l 1,2,-1
 801 1620 l 1,3,-1
 164 12 l 1,0,-1
EndSplineSet
EndChar

StartChar: NameMe.30
Encoding: 30 -1 27
Width: 2527
Flags: W
HStem: 979 106<2193 2408>
LayerCount: 2
Fore
SplineSet
20 2456 m 1,0,-1
 180 2456 l 1,1,-1
 1217 248 l 1,2,-1
 1974 1083 l 1,3,-1
 2408 1085 l 1,4,-1
 2408 979 l 1,5,-1
 2193 979 l 1,6,-1
 1323 12 l 1,7,-1
 1167 12 l 1,8,-1
 20 2456 l 1,0,-1
EndSplineSet
EndChar

StartChar: NameMe.31
Encoding: 31 -1 28
Width: 0
Flags: W
LayerCount: 2
Fore
SplineSet
214 381 m 128,-1,1
 338 463 338 463 458 542 c 128,-1,2
 578 621 578 621 691.5 694.5 c 128,-1,3
 805 768 805 768 905.5 832.5 c 128,-1,4
 1006 897 1006 897 1091 952.5 c 128,-1,5
 1176 1008 1176 1008 1240.5 1050 c 128,-1,6
 1305 1092 1305 1092 1344.5 1117.5 c 128,-1,7
 1384 1143 1384 1143 1395 1149 c 1,8,9
 1397 1147 1397 1147 1399 1134.5 c 128,-1,10
 1401 1122 1401 1122 1402 1109 c 128,-1,11
 1403 1096 1403 1096 1404 1084.5 c 128,-1,12
 1405 1073 1405 1073 1405 1071 c 0,13,14
 1401 1059 1401 1059 1398 1045.5 c 128,-1,15
 1395 1032 1395 1032 1389.5 1019 c 128,-1,16
 1384 1006 1384 1006 1377 992.5 c 128,-1,17
 1370 979 1370 979 1358 958 c 1,18,19
 1323 918 1323 918 1279 878 c 128,-1,20
 1235 838 1235 838 1174 799 c 1,21,22
 1155 793 1155 793 1111 767 c 128,-1,23
 1067 741 1067 741 1005.5 702.5 c 128,-1,24
 944 664 944 664 867.5 613.5 c 128,-1,25
 791 563 791 563 709 509 c 128,-1,26
 627 455 627 455 542 396.5 c 128,-1,27
 457 338 457 338 379 282.5 c 128,-1,28
 301 227 301 227 234.5 179 c 128,-1,29
 168 131 168 131 121 96 c 0,30,31
 109 88 109 88 100 88 c 0,32,33
 80 88 80 88 80 147 c 0,34,35
 80 162 80 162 80 180 c 0,36,0
 90 299 90 299 214 381 c 128,-1,1
EndSplineSet
EndChar

StartChar: NameMe.32
Encoding: 32 -1 29
Width: 0
Flags: W
HStem: 0 276<100 358>
VStem: 100 258<0 276>
LayerCount: 2
Fore
SplineSet
100 0 m 5,0,-1
 100 276 l 5,1,-1
 358 276 l 5,2,-1
 358 0 l 5,3,-1
 100 0 l 5,0,-1
EndSplineSet
EndChar

StartChar: NameMe.33
Encoding: 33 -1 30
Width: 0
Flags: W
HStem: 74 108<181.346 483.214>
LayerCount: 2
Fore
SplineSet
774 305 m 2,0,1
 729 268 729 268 681 230.5 c 128,-1,2
 633 193 633 193 582.5 161 c 128,-1,3
 532 129 532 129 480 107.5 c 128,-1,4
 428 86 428 86 377 78 c 0,5,6
 350 74 350 74 322 74 c 0,7,8
 299 74 299 74 276 76 c 0,9,10
 223 84 223 84 180 115 c 1,11,-1
 84 43 l 1,12,13
 72 43 72 43 62.5 50 c 128,-1,14
 53 57 53 57 47 80 c 1,15,16
 76 127 76 127 95.5 155.5 c 128,-1,17
 115 184 115 184 126 199.5 c 128,-1,18
 137 215 137 215 144.5 221 c 128,-1,19
 152 227 152 227 154 227 c 1,20,21
 215 201 215 201 248 191.5 c 128,-1,22
 281 182 281 182 301 182 c 0,23,24
 311 182 311 182 327.5 184 c 128,-1,25
 344 186 344 186 365.5 191.5 c 128,-1,26
 387 197 387 197 422 207 c 128,-1,27
 457 217 457 217 505 234.5 c 128,-1,28
 553 252 553 252 618.5 275.5 c 128,-1,29
 684 299 684 299 774 336 c 1,30,-1
 799 328 l 1,31,-1
 774 305 l 2,0,1
EndSplineSet
EndChar

StartChar: NameMe.34
Encoding: 34 -1 31
Width: 0
Flags: W
HStem: 162 71<348.781 543.164> 344 90<451.358 628.047>
VStem: 76 598
LayerCount: 2
Fore
SplineSet
629 297 m 1,0,1
 625 307 625 307 614.5 317.5 c 128,-1,2
 604 328 604 328 591 334 c 128,-1,3
 578 340 578 340 565.5 342 c 128,-1,4
 553 344 553 344 543 344 c 0,5,6
 537 344 537 344 530.5 344 c 128,-1,7
 524 344 524 344 514 341 c 128,-1,8
 504 338 504 338 489.5 331 c 128,-1,9
 475 324 475 324 456.5 311.5 c 128,-1,10
 438 299 438 299 411.5 281.5 c 128,-1,11
 385 264 385 264 348 236 c 1,12,13
 373 233 373 233 395 233 c 0,14,15
 410 233 410 233 426 233 c 0,16,17
 465 238 465 238 500 246 c 128,-1,18
 535 254 535 254 568.5 267.5 c 128,-1,19
 602 281 602 281 629 297 c 1,0,1
137 137 m 0,20,21
 123 102 123 102 98 53 c 1,22,23
 88 47 88 47 84 47 c 0,24,25
 76 47 76 47 76 57 c 1,26,27
 92 129 92 129 100.5 151.5 c 128,-1,28
 109 174 109 174 119 195 c 0,29,30
 160 281 160 281 195 285 c 1,31,-1
 285 250 l 1,32,33
 289 258 289 258 299 268.5 c 128,-1,34
 309 279 309 279 323.5 291 c 128,-1,35
 338 303 338 303 355.5 318.5 c 128,-1,36
 373 334 373 334 390.5 348 c 128,-1,37
 408 362 408 362 426 373.5 c 128,-1,38
 444 385 444 385 461 395 c 0,39,40
 522 434 522 434 553 434 c 0,41,42
 563 434 563 434 576.5 430 c 128,-1,43
 590 426 590 426 604 420 c 128,-1,44
 618 414 618 414 629.5 406.5 c 128,-1,45
 641 399 641 399 651.5 391 c 128,-1,46
 662 383 662 383 668 372.5 c 128,-1,47
 674 362 674 362 674 356 c 1,48,49
 672 346 672 346 670 338 c 128,-1,50
 668 330 668 330 662.5 318.5 c 128,-1,51
 657 307 657 307 650 293 c 128,-1,52
 643 279 643 279 633 254 c 1,53,54
 598 219 598 219 543.5 197.5 c 128,-1,55
 489 176 489 176 418 164 c 0,56,57
 385 162 385 162 359.5 162 c 128,-1,58
 334 162 334 162 316.5 163 c 128,-1,59
 299 164 299 164 284.5 166 c 128,-1,60
 270 168 270 168 258 168 c 1,61,62
 252 156 252 156 249 148.5 c 128,-1,63
 246 141 246 141 243 136 c 128,-1,64
 240 131 240 131 233.5 127 c 128,-1,65
 227 123 227 123 217 113 c 0,66,67
 215 111 215 111 214 114 c 128,-1,68
 213 117 213 117 213 121 c 0,69,-1
 213 127 l 0,70,71
 213 131 213 131 213 133 c 1,72,73
 213 143 213 143 217 149.5 c 128,-1,74
 221 156 221 156 223 162 c 128,-1,75
 225 168 225 168 227 171 c 128,-1,76
 229 174 229 174 231 178 c 1,77,78
 229 180 229 180 226 182 c 128,-1,79
 223 184 223 184 218 188.5 c 128,-1,80
 213 193 213 193 204 200 c 128,-1,81
 195 207 195 207 178 207 c 0,82,83
 160 207 160 207 137 137 c 0,20,21
EndSplineSet
EndChar

StartChar: NameMe.62
Encoding: 62 -1 32
Width: 751
Flags: W
HStem: 475 176<263.566 413.345>
VStem: 37 174<345.147 410.125>
LayerCount: 2
Fore
SplineSet
496 571 m 1,0,1
 487 528 487 528 464.5 492.5 c 128,-1,2
 442 457 442 457 414 430 c 1,3,4
 393 434 393 434 377.5 445.5 c 128,-1,5
 362 457 362 457 346 465 c 128,-1,6
 330 473 330 473 311 475 c 0,7,8
 307 475 307 475 305 475 c 0,9,10
 291 475 291 475 270 467 c 1,11,12
 260 457 260 457 245.5 447.5 c 128,-1,13
 231 438 231 438 222 428 c 128,-1,14
 213 418 213 418 213 406 c 0,15,16
 211 403 211 403 211 401 c 0,17,18
 211 393 211 393 221 383 c 1,19,20
 248 346 248 346 280.5 328.5 c 128,-1,21
 313 311 313 311 352 307 c 0,22,23
 375 303 375 303 395 303 c 0,24,25
 414 303 414 303 430 305 c 0,26,27
 469 309 469 309 510 314 c 128,-1,28
 551 319 551 319 588 324 c 0,29,30
 608 324 608 324 625 324 c 0,31,32
 645 324 645 324 664 322 c 0,33,34
 676 319 676 319 680 307 c 0,35,36
 684 299 684 299 682 291 c 128,-1,37
 680 283 680 283 674 271.5 c 128,-1,38
 668 260 668 260 664 252 c 0,39,40
 643 217 643 217 614.5 199.5 c 128,-1,41
 586 182 586 182 554 173 c 128,-1,42
 522 164 522 164 485 162 c 0,43,-1
 414 156 l 0,44,45
 379 154 379 154 343 147.5 c 128,-1,46
 307 141 307 141 279 127 c 0,47,48
 256 117 256 117 235.5 100.5 c 128,-1,49
 215 84 215 84 196.5 69.5 c 128,-1,50
 178 55 178 55 157.5 46 c 128,-1,51
 137 37 137 37 115 37 c 1,52,53
 115 49 l 0,54,55
 115 63 115 63 121 76 c 0,56,57
 127 96 127 96 137 112.5 c 128,-1,58
 147 129 147 129 154 147 c 0,59,60
 156 156 156 156 156 164 c 0,61,62
 156 176 156 176 152 190 c 1,63,64
 133 209 133 209 113.5 224.5 c 128,-1,65
 94 240 94 240 75.5 257 c 128,-1,66
 57 274 57 274 47 291.5 c 128,-1,67
 37 309 37 309 37 330 c 0,68,69
 37 358 37 358 68 395 c 0,70,71
 94 424 94 424 125 463 c 128,-1,72
 156 502 156 502 191.5 540 c 128,-1,73
 227 578 227 578 266 608.5 c 128,-1,74
 305 639 305 639 344 647 c 0,75,76
 360 651 360 651 375 651 c 0,77,78
 397 651 397 651 422 641 c 0,79,80
 461 627 461 627 496 571 c 1,0,1
EndSplineSet
EndChar

StartChar: NameMe.63
Encoding: 63 -1 33
Width: 380
Flags: W
VStem: 96 144<1013.38 1467.42> 113 135<189.89 1366>
LayerCount: 2
Fore
SplineSet
238 1083 m 0,0,1
 240 965 240 965 244 850 c 0,2,3
 248 766 248 766 248 680 c 0,4,5
 248 647 248 647 248 616 c 0,6,7
 246 498 246 498 229 365 c 0,8,9
 223 309 223 309 214 256 c 128,-1,10
 205 203 205 203 195 141 c 1,11,12
 184 121 184 121 172 96.5 c 128,-1,13
 160 72 160 72 149.5 52.5 c 128,-1,14
 139 33 139 33 130 19.5 c 128,-1,15
 121 6 121 6 115 4 c 1,16,17
 113 145 113 145 113 281 c 0,18,19
 113 311 113 311 113 346 c 0,20,21
 113 428 113 428 113 509 c 128,-1,22
 113 590 113 590 113 672 c 0,23,24
 113 836 113 836 109.5 1008 c 128,-1,25
 106 1180 106 1180 96 1372 c 1,26,27
 111 1395 111 1395 122 1423.5 c 128,-1,28
 133 1452 133 1452 146.5 1479.5 c 128,-1,29
 160 1507 160 1507 174 1533 c 128,-1,30
 188 1559 188 1559 209 1573 c 1,31,32
 213 1573 l 0,33,34
 225 1573 225 1573 231 1554 c 0,35,36
 240 1532 240 1532 240 1495 c 0,37,38
 242 1475 242 1475 242 1452 c 0,39,40
 242 1434 242 1434 242 1415 c 0,41,42
 240 1372 240 1372 240 1339 c 0,43,44
 236 1253 236 1253 236 1174 c 0,45,46
 236 1128 236 1128 238 1083 c 0,0,1
EndSplineSet
EndChar

StartChar: NameMe.64
Encoding: 64 -1 34
Width: 512
Flags: W
HStem: 10 207<427.957 532>
VStem: 272 136<1072.22 1407.72> 287 121<229.502 1407.72>
LayerCount: 2
Fore
SplineSet
532 215 m 1,0,-1
 535 0 l 1,1,2
 477 0 477 0 442.5 10 c 128,-1,3
 408 20 408 20 385 37.5 c 128,-1,4
 362 55 362 55 347 79.5 c 128,-1,5
 332 104 332 104 317 131 c 0,6,7
 309 152 309 152 304 169 c 128,-1,8
 299 186 299 186 297 201 c 0,9,10
 293 211 293 211 291 243.5 c 128,-1,11
 289 276 289 276 287 330 c 0,12,13
 285 383 285 383 285 449.5 c 128,-1,14
 285 516 285 516 283 598 c 0,15,16
 281 764 281 764 278.5 879.5 c 128,-1,17
 276 995 276 995 274 1071 c 0,18,19
 272 1110 272 1110 272 1144 c 128,-1,20
 272 1178 272 1178 268 1210 c 0,21,22
 266 1274 266 1274 262 1321 c 128,-1,23
 258 1368 258 1368 252 1409 c 1,24,-1
 360 1573 l 1,25,26
 373 1567 373 1567 380 1554.5 c 128,-1,27
 387 1542 387 1542 393 1526.5 c 128,-1,28
 399 1511 399 1511 401 1498 c 128,-1,29
 403 1485 403 1485 403 1470 c 0,30,31
 403 1450 403 1450 401 1448 c 1,32,33
 403 1346 403 1346 405.5 1258.5 c 128,-1,34
 408 1171 408 1171 408 1096 c 256,35,36
 408 1022 408 1022 410 955.5 c 128,-1,37
 412 889 412 889 412 823 c 0,38,39
 412 698 412 698 410 606 c 128,-1,40
 408 514 408 514 408 449 c 0,41,42
 408 381 408 381 412 338 c 128,-1,43
 416 295 416 295 425 268.5 c 128,-1,44
 434 242 434 242 450.5 230.5 c 128,-1,45
 467 219 467 219 489 217 c 2,46,-1
 532 215 l 1,0,-1
EndSplineSet
EndChar

StartChar: NameMe.65
Encoding: 65 -1 35
Width: 1093
Flags: W
HStem: -500 47<27.3418 175.763> 72 231<739.063 847.75>
VStem: 958 103<30.5823 338>
LayerCount: 2
Fore
SplineSet
1061 311 m 0,0,1
 1061 223 1061 223 1038.5 115.5 c 128,-1,2
 1016 8 1016 8 973 -125 c 1,3,4
 915 -221 915 -221 860 -301 c 128,-1,5
 805 -381 805 -381 742.5 -437.5 c 128,-1,6
 680 -494 680 -494 608.5 -524.5 c 128,-1,7
 537 -555 537 -555 449 -555 c 0,8,9
 403 -555 403 -555 308 -543.5 c 128,-1,10
 213 -532 213 -532 51 -500 c 0,11,12
 31 -496 31 -496 29 -479 c 0,13,14
 27 -477 27 -477 27 -475 c 0,15,16
 27 -465 27 -465 41 -453 c 1,17,18
 137 -442 137 -442 213 -434 c 128,-1,19
 289 -426 289 -426 344 -416 c 128,-1,20
 399 -406 399 -406 443 -394.5 c 128,-1,21
 487 -383 487 -383 527 -365.5 c 128,-1,22
 567 -348 567 -348 605 -323.5 c 128,-1,23
 643 -299 643 -299 688 -268 c 0,24,25
 772 -209 772 -209 834.5 -112.5 c 128,-1,26
 897 -16 897 -16 952 117 c 1,27,28
 954 131 954 131 956 143.5 c 128,-1,29
 958 156 958 156 958 168 c 256,30,31
 958 180 958 180 955 195.5 c 128,-1,32
 952 211 952 211 944 233 c 1,33,34
 928 184 928 184 912.5 153.5 c 128,-1,35
 897 123 897 123 878.5 104.5 c 128,-1,36
 860 86 860 86 837.5 79 c 128,-1,37
 815 72 815 72 788 72 c 0,38,39
 754 72 754 72 720 88 c 128,-1,40
 686 104 686 104 659.5 131 c 128,-1,41
 633 158 633 158 616.5 192.5 c 128,-1,42
 600 227 600 227 600 264 c 0,43,44
 604 324 604 324 621.5 386.5 c 128,-1,45
 639 449 639 449 669.5 502 c 128,-1,46
 700 555 700 555 736 596 c 128,-1,47
 772 637 772 637 811 655 c 1,48,49
 854 655 854 655 897 621.5 c 128,-1,50
 940 588 940 588 976 535.5 c 128,-1,51
 1012 483 1012 483 1036.5 424 c 128,-1,52
 1061 365 1061 365 1061 311 c 0,0,1
848 342 m 1,53,54
 844 356 844 356 837.5 369.5 c 128,-1,55
 831 383 831 383 821 389 c 128,-1,56
 811 395 811 395 801 395 c 0,57,58
 799 397 799 397 797 397 c 0,59,60
 784 397 784 397 764 389 c 1,61,-1
 739 342 l 1,62,63
 739 336 739 336 746.5 324.5 c 128,-1,64
 754 313 754 313 772 307 c 1,65,66
 788 303 788 303 799 303 c 0,67,68
 809 303 809 303 811 305 c 0,69,70
 823 311 823 311 827 315 c 2,71,-1
 848 342 l 1,53,54
EndSplineSet
EndChar

StartChar: NameMe.66
Encoding: 66 -1 36
Width: 1026
Flags: W
HStem: -522 47<-11.9878 152.875> 0 215<995 1145>
VStem: 545 137<268.255 345.179>
LayerCount: 2
Fore
SplineSet
776 308 m 128,-1,1
 774 319 774 319 768 329.5 c 128,-1,2
 762 340 762 340 753.5 345 c 128,-1,3
 745 350 745 350 739 348 c 1,4,5
 731 348 731 348 722 346 c 128,-1,6
 713 344 713 344 704.5 339 c 128,-1,7
 696 334 696 334 689 324.5 c 128,-1,8
 682 315 682 315 682 303 c 0,9,10
 682 276 682 276 695.5 268 c 128,-1,11
 709 260 709 260 725 256 c 1,12,13
 750 256 750 256 758 262 c 128,-1,14
 766 268 766 268 772 285 c 0,15,0
 778 297 778 297 776 308 c 128,-1,1
946.5 -74.5 m 128,-1,17
 932 -102 932 -102 907 -156 c 0,18,19
 815 -360 815 -360 691 -469 c 128,-1,20
 567 -578 567 -578 397 -578 c 0,21,22
 336 -578 336 -578 262 -563 c 0,23,24
 41 -526 41 -526 12 -522 c 0,25,26
 -8 -520 -8 -520 -10 -504 c 0,27,28
 -12 -502 -12 -502 -12 -498 c 0,29,30
 -12 -487 -12 -487 0 -475 c 1,31,32
 96 -467 96 -467 169 -459 c 128,-1,33
 242 -451 242 -451 297 -441.5 c 128,-1,34
 352 -432 352 -432 394 -420 c 128,-1,35
 436 -408 436 -408 474 -391.5 c 128,-1,36
 512 -375 512 -375 549 -351.5 c 128,-1,37
 586 -328 586 -328 631 -299 c 0,38,39
 709 -244 709 -244 768 -156 c 128,-1,40
 827 -68 827 -68 879 49 c 1,41,42
 860 47 860 47 842.5 46 c 128,-1,43
 825 45 825 45 811 45 c 2,44,-1
 786 45 l 1,45,-1
 764 45 l 2,46,47
 752 45 752 45 738.5 46 c 128,-1,48
 725 47 725 47 705 49 c 0,49,50
 672 49 672 49 642 62.5 c 128,-1,51
 612 76 612 76 589.5 98.5 c 128,-1,52
 567 121 567 121 555 152 c 0,53,54
 545 184 545 184 545 213 c 0,55,56
 545 217 l 0,57,58
 547 270 547 270 567 336 c 0,59,60
 584 395 584 395 611.5 447.5 c 128,-1,61
 639 500 639 500 676 540 c 128,-1,62
 713 580 713 580 752 600 c 1,63,64
 780 600 780 600 808 584.5 c 128,-1,65
 836 569 836 569 862.5 543.5 c 128,-1,66
 889 518 889 518 912.5 484.5 c 128,-1,67
 936 451 936 451 953.5 414 c 128,-1,68
 971 377 971 377 983 313.5 c 128,-1,69
 995 250 995 250 995 215 c 1,70,-1
 1145 215 l 1,71,-1
 1145 0 l 1,72,-1
 971 0 l 1,73,16
 961 -47 961 -47 946.5 -74.5 c 128,-1,17
EndSplineSet
EndChar

StartChar: NameMe.67
Encoding: 67 -1 37
Width: 1574
Flags: W
HStem: -592 254<376.718 809.74>
VStem: 37 106<-132.97 132.915> 842 106<151.5 377.368> 1305 129<-39 33>
LayerCount: 2
Fore
SplineSet
1494 646 m 128,-1,1
 1475 600 1475 600 1452 600 c 0,2,3
 1448 600 1448 600 1440 608 c 128,-1,4
 1432 616 1432 616 1415.5 627.5 c 128,-1,5
 1399 639 1399 639 1373.5 651.5 c 128,-1,6
 1348 664 1348 664 1313 672 c 1,7,8
 1296 672 1296 672 1264.5 650.5 c 128,-1,9
 1233 629 1233 629 1192 593 c 128,-1,10
 1151 557 1151 557 1108 513 c 128,-1,11
 1065 469 1065 469 1028 425 c 128,-1,12
 991 381 991 381 969.5 340 c 128,-1,13
 948 299 948 299 948 268 c 0,14,15
 948 238 948 238 969 219 c 1,16,-1
 1268 178 l 1,17,18
 1323 158 1323 158 1356 140.5 c 128,-1,19
 1389 123 1389 123 1406 105.5 c 128,-1,20
 1423 88 1423 88 1428.5 69.5 c 128,-1,21
 1434 51 1434 51 1434 33 c 0,22,23
 1434 25 1434 25 1433 10.5 c 128,-1,24
 1432 -4 1432 -4 1424.5 -29.5 c 128,-1,25
 1417 -55 1417 -55 1403 -95 c 128,-1,26
 1389 -135 1389 -135 1362 -197 c 0,27,28
 1339 -240 1339 -240 1288 -290 c 128,-1,29
 1237 -340 1237 -340 1164.5 -387 c 128,-1,30
 1092 -434 1092 -434 1005 -475 c 128,-1,31
 918 -516 918 -516 824.5 -543.5 c 128,-1,32
 731 -571 731 -571 637 -584 c 0,33,34
 586 -592 586 -592 541 -592 c 128,-1,35
 496 -592 496 -592 453 -586 c 0,36,37
 365 -573 365 -573 289 -536.5 c 128,-1,38
 213 -500 213 -500 160 -428 c 0,39,40
 37 -264 37 -264 37 -68 c 0,41,42
 37 -63 37 -63 40 -39.5 c 128,-1,43
 43 -16 43 -16 51 18.5 c 128,-1,44
 59 53 59 53 71.5 97 c 128,-1,45
 84 141 84 141 97.5 186 c 128,-1,46
 111 231 111 231 124 273 c 128,-1,47
 137 315 137 315 151.5 350 c 128,-1,48
 166 385 166 385 179.5 404.5 c 128,-1,49
 193 424 193 424 205 426 c 1,50,51
 213 424 213 424 216 416 c 128,-1,52
 219 408 219 408 217 397.5 c 128,-1,53
 215 387 215 387 212 378 c 128,-1,54
 209 369 209 369 205 360 c 1,55,56
 168 307 168 307 155.5 225 c 128,-1,57
 143 143 143 143 143 51 c 0,58,59
 143 -51 143 -51 183 -126 c 128,-1,60
 223 -201 223 -201 291.5 -248 c 128,-1,61
 360 -295 360 -295 449.5 -316.5 c 128,-1,62
 539 -338 539 -338 637 -338 c 0,63,64
 731 -338 731 -338 831.5 -317.5 c 128,-1,65
 932 -297 932 -297 1022 -257 c 128,-1,66
 1112 -217 1112 -217 1186 -163 c 128,-1,67
 1260 -109 1260 -109 1305 -39 c 1,68,69
 1305 -25 1305 -25 1274 -18 c 0,70,71
 1229 -16 1229 -16 1200 -14 c 128,-1,72
 1171 -12 1171 -12 1147.5 -9 c 128,-1,73
 1124 -6 1124 -6 1101.5 -2 c 128,-1,74
 1079 2 1079 2 1049 8 c 0,75,76
 991 18 991 18 955.5 29.5 c 128,-1,77
 920 41 920 41 898.5 58.5 c 128,-1,78
 877 76 877 76 864.5 103.5 c 128,-1,79
 852 131 852 131 842 172 c 1,80,81
 842 240 842 240 865.5 319.5 c 128,-1,82
 889 399 889 399 928 481 c 128,-1,83
 967 563 967 563 1020 641 c 128,-1,84
 1073 719 1073 719 1134.5 781.5 c 128,-1,85
 1196 844 1196 844 1263.5 888 c 128,-1,86
 1331 932 1331 932 1401 948 c 1,87,88
 1460 920 1460 920 1486.5 884 c 128,-1,89
 1513 848 1513 848 1513 799 c 0,90,0
 1513 692 1513 692 1494 646 c 128,-1,1
EndSplineSet
EndChar

StartChar: NameMe.68
Encoding: 68 -1 38
Width: 1359
Flags: W
HStem: -809 219<281.799 761.177> -10 216<1197.96 1360>
VStem: 0 98<-418.738 -170.798>
LayerCount: 2
Fore
SplineSet
1360 -254 m 1,0,1
 1296 -401 1296 -401 1198 -506.5 c 128,-1,2
 1100 -612 1100 -612 979 -677.5 c 128,-1,3
 858 -743 858 -743 716.5 -776 c 128,-1,4
 575 -809 575 -809 424 -809 c 0,5,6
 324 -809 324 -809 246 -771 c 128,-1,7
 168 -733 168 -733 111.5 -670.5 c 128,-1,8
 55 -608 55 -608 27.5 -522 c 128,-1,9
 0 -436 0 -436 0 -340 c 0,10,11
 0 -293 0 -293 9 -241.5 c 128,-1,12
 18 -190 18 -190 32.5 -141 c 128,-1,13
 47 -92 47 -92 66.5 -47 c 128,-1,14
 86 -2 86 -2 105.5 33 c 128,-1,15
 125 68 125 68 142.5 91.5 c 128,-1,16
 160 115 160 115 174 121 c 1,17,-1
 209 119 l 1,18,19
 209 104 209 104 198.5 86 c 128,-1,20
 188 68 188 68 174 42 c 128,-1,21
 160 16 160 16 145.5 -17.5 c 128,-1,22
 131 -51 131 -51 125 -92 c 2,23,-1
 100 -260 l 2,24,25
 98 -272 98 -272 98 -285 c 0,26,27
 98 -338 98 -338 125 -387 c 0,28,29
 154 -449 154 -449 206 -494 c 128,-1,30
 258 -539 258 -539 324.5 -564.5 c 128,-1,31
 391 -590 391 -590 459 -590 c 0,32,33
 602 -590 602 -590 719 -571.5 c 128,-1,34
 836 -553 836 -553 932 -514 c 128,-1,35
 1028 -475 1028 -475 1107 -417.5 c 128,-1,36
 1186 -360 1186 -360 1255 -281 c 1,37,38
 1247 -268 1247 -268 1215.5 -256 c 128,-1,39
 1184 -244 1184 -244 1138 -233.5 c 128,-1,40
 1092 -223 1092 -223 1038.5 -212 c 128,-1,41
 985 -201 985 -201 937 -189.5 c 128,-1,42
 889 -178 889 -178 850 -165 c 128,-1,43
 811 -152 811 -152 795 -135 c 1,44,45
 795 -127 795 -127 798 -115.5 c 128,-1,46
 801 -104 801 -104 807 -85 c 128,-1,47
 813 -66 813 -66 826.5 -39 c 128,-1,48
 840 -12 840 -12 860 27 c 1,49,50
 877 39 877 39 906.5 57.5 c 128,-1,51
 936 76 936 76 976 97.5 c 128,-1,52
 1016 119 1016 119 1064 139.5 c 128,-1,53
 1112 160 1112 160 1163 178.5 c 128,-1,54
 1214 197 1214 197 1265.5 206 c 128,-1,55
 1317 215 1317 215 1360 215 c 1,56,-1
 1360 0 l 1,57,58
 1321 0 1321 0 1284 -2 c 128,-1,59
 1247 -4 1247 -4 1217 -10 c 2,60,-1
 1116 -33 l 1,61,-1
 1317 -109 l 1,62,63
 1323 -113 1323 -113 1331 -127 c 128,-1,64
 1339 -141 1339 -141 1345.5 -160.5 c 128,-1,65
 1352 -180 1352 -180 1356 -203.5 c 128,-1,66
 1360 -227 1360 -227 1360 -254 c 1,0,1
EndSplineSet
EndChar

StartChar: NameMe.69
Encoding: 69 -1 39
Width: 2174
Flags: W
HStem: -66 207<509.975 1545.12>
VStem: 90 139<279.5 489.18> 1939 152<236.523 388.599>
LayerCount: 2
Fore
SplineSet
2091 332 m 0,0,1
 2091 307 2091 307 2074.5 269 c 128,-1,2
 2058 231 2058 231 2031.5 191.5 c 128,-1,3
 2005 152 2005 152 1968 117 c 128,-1,4
 1931 82 1931 82 1896 66 c 0,5,6
 1825 35 1825 35 1724.5 12.5 c 128,-1,7
 1624 -10 1624 -10 1514.5 -25.5 c 128,-1,8
 1405 -41 1405 -41 1292.5 -48 c 128,-1,9
 1180 -55 1180 -55 1080.5 -59 c 128,-1,10
 981 -63 981 -63 904 -64.5 c 128,-1,11
 827 -66 827 -66 784 -66 c 0,12,13
 633 -66 633 -66 506 -36 c 128,-1,14
 379 -6 379 -6 287 46 c 128,-1,15
 195 98 195 98 142.5 169 c 128,-1,16
 90 240 90 240 90 319 c 0,17,18
 96 381 96 381 115.5 438.5 c 128,-1,19
 135 496 135 496 161.5 544 c 128,-1,20
 188 592 188 592 218 630 c 128,-1,21
 248 668 248 668 281 692 c 1,22,23
 283 682 283 682 283 670 c 0,24,25
 283 649 283 649 279 629 c 0,26,27
 270 596 270 596 259 565.5 c 128,-1,28
 248 535 248 535 238.5 507 c 128,-1,29
 229 479 229 479 229 461 c 0,30,31
 229 391 229 391 274 333.5 c 128,-1,32
 319 276 319 276 397 233 c 128,-1,33
 475 190 475 190 583.5 165.5 c 128,-1,34
 692 141 692 141 819 141 c 2,35,-1
 1552 143 l 2,36,37
 1671 156 1671 156 1747 176.5 c 128,-1,38
 1823 197 1823 197 1866 219.5 c 128,-1,39
 1909 242 1909 242 1924 264.5 c 128,-1,40
 1939 287 1939 287 1939 303 c 128,-1,41
 1939 319 1939 319 1927 342 c 128,-1,42
 1915 365 1915 365 1894.5 388.5 c 128,-1,43
 1874 412 1874 412 1851.5 436.5 c 128,-1,44
 1829 461 1829 461 1810.5 480.5 c 128,-1,45
 1792 500 1792 500 1779.5 514 c 128,-1,46
 1767 528 1767 528 1772 535 c 1,47,48
 1802 633 1802 633 1824.5 677 c 128,-1,49
 1847 721 1847 721 1855 721 c 0,50,51
 1886 721 1886 721 1915 696.5 c 128,-1,52
 1944 672 1944 672 1970.5 637 c 128,-1,53
 1997 602 1997 602 2018.5 557 c 128,-1,54
 2040 512 2040 512 2057.5 470 c 128,-1,55
 2075 428 2075 428 2083 391 c 128,-1,56
 2091 354 2091 354 2091 332 c 0,0,1
EndSplineSet
EndChar

StartChar: NameMe.70
Encoding: 70 -1 40
Width: 2328
Flags: W
HStem: -74 197<492.723 1380.53> -4 219<2161.08 2337>
VStem: 43 123<326.881 493.442>
LayerCount: 2
Fore
SplineSet
2337 0 m 1,0,1
 2312 -4 2312 -4 2288 -4 c 0,2,3
 2265 -4 2265 -4 2247 0 c 0,4,5
 2206 12 2206 12 2173 32.5 c 128,-1,6
 2140 53 2140 53 2114.5 83 c 128,-1,7
 2089 113 2089 113 2064.5 138.5 c 128,-1,8
 2040 164 2040 164 2019.5 185.5 c 128,-1,9
 1999 207 1999 207 1976 213 c 1,10,11
 1872 127 1872 127 1738 72.5 c 128,-1,12
 1604 18 1604 18 1455.5 -14.5 c 128,-1,13
 1307 -47 1307 -47 1147 -60.5 c 128,-1,14
 987 -74 987 -74 831 -74 c 0,15,16
 629 -74 629 -74 478.5 -49.5 c 128,-1,17
 328 -25 328 -25 231.5 25.5 c 128,-1,18
 135 76 135 76 89 151.5 c 128,-1,19
 43 227 43 227 43 330 c 0,20,21
 43 356 43 356 51 392 c 128,-1,22
 59 428 59 428 75.5 466 c 128,-1,23
 92 504 92 504 111.5 543 c 128,-1,24
 131 582 131 582 152.5 612.5 c 128,-1,25
 174 643 174 643 193.5 662.5 c 128,-1,26
 213 682 213 682 227 682 c 1,27,28
 233 668 233 668 233 657 c 0,29,30
 233 655 233 655 231 653 c 0,31,32
 231 643 231 643 225 633 c 0,33,34
 207 590 207 590 194.5 563.5 c 128,-1,35
 182 537 182 537 176 518.5 c 128,-1,36
 170 500 170 500 168 488.5 c 128,-1,37
 166 477 166 477 166 469 c 0,38,39
 166 385 166 385 217 318.5 c 128,-1,40
 268 252 268 252 366.5 209 c 128,-1,41
 465 166 465 166 609.5 144.5 c 128,-1,42
 754 123 754 123 940 123 c 0,43,44
 1116 123 1116 123 1269.5 135 c 128,-1,45
 1423 147 1423 147 1550 178 c 128,-1,46
 1677 209 1677 209 1777.5 254 c 128,-1,47
 1878 299 1878 299 1946 365 c 2,48,-1
 2052 479 l 1,49,50
 2060 479 2060 479 2066 461 c 1,51,-1
 2060 385 l 1,52,53
 2085 332 2085 332 2110.5 298 c 128,-1,54
 2136 264 2136 264 2168 245.5 c 128,-1,55
 2200 227 2200 227 2242 221 c 128,-1,56
 2284 215 2284 215 2337 215 c 1,57,-1
 2337 0 l 1,0,1
EndSplineSet
EndChar

StartChar: NameMe.71
Encoding: 71 -1 41
Width: 466
Flags: W
HStem: 0 215<0 160>
VStem: 297 111<239.542 386.885>
LayerCount: 2
Fore
SplineSet
74 0 m 1,0,-1
 0 0 l 1,1,-1
 0 215 l 1,2,-1
 209 223 l 1,3,4
 297 244 297 244 297 303 c 0,5,6
 297 311 297 311 292 323.5 c 128,-1,7
 287 336 287 336 270.5 360.5 c 128,-1,8
 254 385 254 385 224.5 427 c 128,-1,9
 195 469 195 469 141 537 c 1,10,11
 147 588 147 588 155.5 636 c 128,-1,12
 164 684 164 684 173 721 c 128,-1,13
 182 758 182 758 189.5 781.5 c 128,-1,14
 197 805 197 805 197 807 c 1,15,16
 258 743 258 743 299 685 c 128,-1,17
 340 627 340 627 363.5 569.5 c 128,-1,18
 387 512 387 512 397.5 456.5 c 128,-1,19
 408 401 408 401 408 352 c 0,20,21
 408 240 408 240 359.5 164 c 128,-1,22
 311 88 311 88 236 41 c 0,23,24
 203 14 203 14 160 8 c 2,25,-1
 74 0 l 1,0,-1
EndSplineSet
EndChar

StartChar: NameMe.72
Encoding: 72 -1 42
Width: 575
Flags: W
HStem: 0 215<0 179.052 462.497 590>
VStem: 0 590<-106 0>
LayerCount: 2
Fore
SplineSet
590 0 m 1,0,1
 537 0 537 0 493 12.5 c 128,-1,2
 449 25 449 25 414 40 c 128,-1,3
 379 55 379 55 353.5 73.5 c 128,-1,4
 328 92 328 92 311 109 c 1,5,6
 260 76 260 76 220 58.5 c 128,-1,7
 180 41 180 41 145.5 28.5 c 128,-1,8
 111 16 111 16 77 10 c 128,-1,9
 43 4 43 4 0 0 c 1,10,-1
 0 215 l 1,11,12
 47 215 47 215 84 221 c 128,-1,13
 121 227 121 227 157 246.5 c 128,-1,14
 193 266 193 266 237 303 c 128,-1,15
 281 340 281 340 348 403 c 1,16,17
 387 315 387 315 445.5 271 c 128,-1,18
 504 227 504 227 590 213 c 1,19,-1
 590 0 l 1,0,1
EndSplineSet
EndChar

StartChar: NameMe.73
Encoding: 73 -1 43
Width: 595
Flags: W
HStem: 0 215<0 291>
VStem: 424 113<239.542 391.902>
LayerCount: 2
Fore
SplineSet
205 0 m 1,0,-1
 0 0 l 1,1,-1
 0 215 l 1,2,-1
 336 223 l 1,3,4
 424 244 424 244 424 303 c 0,5,6
 424 311 424 311 420 323.5 c 128,-1,7
 416 336 416 336 400.5 360.5 c 128,-1,8
 385 385 385 385 354.5 427 c 128,-1,9
 324 469 324 469 272 537 c 1,10,11
 276 588 276 588 284.5 636 c 128,-1,12
 293 684 293 684 302 721 c 128,-1,13
 311 758 311 758 317.5 781.5 c 128,-1,14
 324 805 324 805 324 807 c 1,15,16
 387 743 387 743 428 685 c 128,-1,17
 469 627 469 627 492.5 569.5 c 128,-1,18
 516 512 516 512 526.5 456.5 c 128,-1,19
 537 401 537 401 537 352 c 0,20,21
 537 240 537 240 487 164 c 0,22,23
 442 90 442 90 367 41 c 0,24,25
 324 12 324 12 291 8 c 2,26,-1
 205 0 l 1,0,-1
EndSplineSet
EndChar

StartChar: NameMe.74
Encoding: 74 -1 44
Width: 727
Flags: W
HStem: 0 215<0 329.642 614.605 741>
LayerCount: 2
Fore
SplineSet
741 0 m 1,0,1
 688 0 688 0 644 12.5 c 128,-1,2
 600 25 600 25 565 40 c 128,-1,3
 530 55 530 55 504.5 73.5 c 128,-1,4
 479 92 479 92 465 109 c 1,5,6
 412 76 412 76 373 57 c 0,7,8
 317 33 317 33 297 29 c 0,9,10
 229 10 229 10 227 10 c 0,11,12
 215 4 215 4 0 0 c 1,13,-1
 0 215 l 1,14,15
 201 215 201 215 236.5 221 c 128,-1,16
 272 227 272 227 308 246.5 c 128,-1,17
 344 266 344 266 388 303 c 128,-1,18
 432 340 432 340 500 403 c 1,19,20
 541 315 541 315 598 271 c 128,-1,21
 655 227 655 227 741 213 c 1,22,-1
 741 0 l 1,0,1
EndSplineSet
EndChar

StartChar: NameMe.75
Encoding: 75 -1 45
Width: 937
Flags: W
HStem: 0 215<0 668>
VStem: 805 110<233.522 386.885>
LayerCount: 2
Fore
SplineSet
582 0 m 1,0,-1
 0 0 l 1,1,-1
 0 215 l 1,2,-1
 717 217 l 1,3,4
 805 236 805 236 805 303 c 0,5,6
 805 311 805 311 800 323.5 c 128,-1,7
 795 336 795 336 778.5 360.5 c 128,-1,8
 762 385 762 385 732 427 c 128,-1,9
 702 469 702 469 649 537 c 1,10,11
 655 588 655 588 663.5 636 c 128,-1,12
 672 684 672 684 681 721 c 128,-1,13
 690 758 690 758 697.5 781.5 c 128,-1,14
 705 805 705 805 705 807 c 1,15,16
 766 743 766 743 807 685 c 128,-1,17
 848 627 848 627 872.5 569.5 c 128,-1,18
 897 512 897 512 906 456.5 c 128,-1,19
 915 401 915 401 915 352 c 0,20,21
 915 240 915 240 868 164 c 0,22,23
 821 90 821 90 743 41 c 0,24,25
 705 12 705 12 668 8 c 2,26,-1
 582 0 l 1,0,-1
EndSplineSet
EndChar

StartChar: NameMe.76
Encoding: 76 -1 46
Width: 976
Flags: W
HStem: 0 215<0 584.736 883.196 1008>
LayerCount: 2
Fore
SplineSet
1008 0 m 1,0,1
 956 0 956 0 911 12.5 c 128,-1,2
 866 25 866 25 831.5 40 c 128,-1,3
 797 55 797 55 770 73.5 c 128,-1,4
 743 92 743 92 731 109 c 1,5,6
 729 109 l 0,7,8
 725 109 725 109 623 57 c 0,9,10
 569 33 569 33 549 29 c 0,11,12
 483 12 483 12 479 4 c 0,13,14
 475 0 475 0 127 0 c 0,15,16
 68 0 68 0 0 0 c 1,17,-1
 0 215 l 1,18,19
 483 215 483 215 487 215 c 0,20,21
 524 221 524 221 560 243.5 c 128,-1,22
 596 266 596 266 648 303 c 128,-1,23
 700 340 700 340 764 403 c 1,24,25
 809 315 809 315 866.5 271 c 128,-1,26
 924 227 924 227 1008 213 c 1,27,-1
 1008 0 l 1,0,1
EndSplineSet
EndChar

StartChar: NameMe.77
Encoding: 77 -1 47
Width: 2045
Flags: W
HStem: -1251 184<770.812 1431.74> 524 201<372.85 478.025>
VStem: 51 119<-638.204 -137.164>
LayerCount: 2
Fore
SplineSet
1280 -1067 m 0,0,1
 1360 -1063 1360 -1063 1420.5 -1060 c 128,-1,2
 1481 -1057 1481 -1057 1530 -1053 c 128,-1,3
 1579 -1049 1579 -1049 1621 -1044.5 c 128,-1,4
 1663 -1040 1663 -1040 1709 -1034 c 128,-1,5
 1755 -1028 1755 -1028 1807.5 -1020 c 128,-1,6
 1860 -1012 1860 -1012 1927 -1001 c 1,7,-1
 1942 -1044 l 1,8,9
 1942 -1049 1942 -1049 1934.5 -1054 c 128,-1,10
 1927 -1059 1927 -1059 1909.5 -1065 c 128,-1,11
 1892 -1071 1892 -1071 1858.5 -1083.5 c 128,-1,12
 1825 -1096 1825 -1096 1768.5 -1113 c 128,-1,13
 1712 -1130 1712 -1130 1632 -1153 c 128,-1,14
 1552 -1176 1552 -1176 1442 -1204 c 0,15,16
 1423 -1208 1423 -1208 1397.5 -1214.5 c 128,-1,17
 1372 -1221 1372 -1221 1342.5 -1229 c 128,-1,18
 1313 -1237 1313 -1237 1282 -1241 c 128,-1,19
 1251 -1245 1251 -1245 1221 -1247 c 2,20,-1
 1047 -1251 l 2,21,22
 793 -1251 793 -1251 605.5 -1206 c 128,-1,23
 418 -1161 418 -1161 295 -1067 c 128,-1,24
 172 -973 172 -973 111.5 -823.5 c 128,-1,25
 51 -674 51 -674 51 -465 c 0,26,27
 51 -362 51 -362 67.5 -263 c 128,-1,28
 84 -164 84 -164 118 -67.5 c 128,-1,29
 152 29 152 29 204 122 c 128,-1,30
 256 215 256 215 332 311 c 2,31,-1
 481 475 l 1,32,33
 457 508 457 508 439.5 516 c 128,-1,34
 422 524 422 524 406 524 c 0,35,36
 348 524 348 524 281 469 c 2,37,-1
 145 354 l 1,38,39
 143 354 143 354 141 357 c 128,-1,40
 139 360 139 360 139 369 c 0,41,42
 139 377 139 377 143 392.5 c 128,-1,43
 147 408 147 408 156 436 c 0,44,45
 186 508 186 508 231 562 c 128,-1,46
 276 616 276 616 327.5 652 c 128,-1,47
 379 688 379 688 432 706.5 c 128,-1,48
 485 725 485 725 537 725 c 2,49,-1
 756 702 l 2,50,51
 926 702 926 702 1026 707.5 c 128,-1,52
 1126 713 1126 713 1171 727 c 1,53,54
 1212 731 1212 731 1235 731 c 0,55,56
 1251 731 l 0,57,58
 1264 731 1264 731 1272 731 c 0,59,60
 1284 729 1284 729 1290 726 c 128,-1,61
 1296 723 1296 723 1300 717 c 1,62,-1
 1219 567 l 1,63,64
 1149 553 1149 553 1060 535.5 c 128,-1,65
 971 518 971 518 879.5 494.5 c 128,-1,66
 788 471 788 471 705.5 441.5 c 128,-1,67
 623 412 623 412 563 375 c 0,68,69
 535 352 535 352 494 310 c 128,-1,70
 453 268 453 268 409 210 c 128,-1,71
 365 152 365 152 323 84 c 128,-1,72
 281 16 281 16 247 -57.5 c 128,-1,73
 213 -131 213 -131 191.5 -210 c 128,-1,74
 170 -289 170 -289 170 -360 c 0,75,76
 170 -471 170 -471 190.5 -560 c 128,-1,77
 211 -649 211 -649 255 -722 c 128,-1,78
 299 -795 299 -795 368.5 -849 c 128,-1,79
 438 -903 438 -903 537 -948 c 0,80,81
 676 -1012 676 -1012 860 -1038.5 c 128,-1,82
 1044 -1065 1044 -1065 1280 -1067 c 0,0,1
EndSplineSet
EndChar

StartChar: NameMe.78
Encoding: 78 -1 48
Width: 1335
Flags: W
HStem: -1282 205<632.475 1420.84> -1229 154<1142.27 1624.73> 0 21G<1305.5 1335> 387 199<771.9 1025.73> 432 219<229.633 434.78>
VStem: 43 141<-685.508 -176.574>
LayerCount: 2
Fore
SplineSet
457 162 m 128,-1,1
 369 84 369 84 307.5 -12.5 c 128,-1,2
 246 -109 246 -109 215 -216.5 c 128,-1,3
 184 -324 184 -324 184 -442 c 0,4,5
 184 -575 184 -575 228 -686 c 128,-1,6
 272 -797 272 -797 352 -875.5 c 128,-1,7
 432 -954 432 -954 541.5 -1001.5 c 128,-1,8
 651 -1049 651 -1049 784 -1057 c 0,9,10
 952 -1067 952 -1067 1081 -1071 c 128,-1,11
 1210 -1075 1210 -1075 1309 -1077 c 0,12,13
 1341 -1077 1341 -1077 1372 -1077 c 0,14,15
 1432 -1077 1432 -1077 1483 -1075 c 0,16,17
 1556 -1075 1556 -1075 1615.5 -1070 c 128,-1,18
 1675 -1065 1675 -1065 1723.5 -1058 c 128,-1,19
 1772 -1051 1772 -1051 1817 -1040 c 1,20,-1
 1817 -1092 l 2,21,22
 1817 -1104 1817 -1104 1792 -1118.5 c 128,-1,23
 1767 -1133 1767 -1133 1729.5 -1146 c 128,-1,24
 1692 -1159 1692 -1159 1648 -1175.5 c 128,-1,25
 1604 -1192 1604 -1192 1564 -1204.5 c 128,-1,26
 1524 -1217 1524 -1217 1496 -1223 c 128,-1,27
 1468 -1229 1468 -1229 1464 -1229 c 2,28,29
 1186 -1282 1186 -1282 954 -1282 c 0,30,31
 903 -1282 903 -1282 858 -1280 c 0,32,33
 590 -1266 590 -1266 406.5 -1181 c 128,-1,34
 223 -1096 223 -1096 127 -940 c 0,35,36
 43 -799 43 -799 43 -602 c 0,37,38
 43 -586 43 -586 43 -567 c 0,39,40
 47 -414 47 -414 65.5 -295 c 128,-1,41
 84 -176 84 -176 112.5 -84 c 128,-1,42
 141 8 141 8 178 77.5 c 128,-1,43
 215 147 215 147 257 201.5 c 128,-1,44
 299 256 299 256 345 302 c 128,-1,45
 391 348 391 348 436 391 c 1,46,47
 397 426 397 426 352 430 c 0,48,49
 342 432 342 432 332 432 c 0,50,51
 299 432 299 432 264 420 c 0,52,53
 219 408 219 408 178 380 c 128,-1,54
 137 352 137 352 109 322 c 0,55,56
 68 283 68 283 43 283 c 0,57,58
 41 283 l 0,59,60
 20 287 20 287 16 290 c 128,-1,61
 12 293 12 293 8 299 c 1,62,-1
 0 303 l 1,63,64
 -2 313 -2 313 -2 324 c 0,65,66
 -2 346 -2 346 8 373 c 0,67,68
 25 410 25 410 55.5 449.5 c 128,-1,69
 86 489 86 489 127 526 c 128,-1,70
 168 563 168 563 210 593 c 128,-1,71
 252 623 252 623 293 639 c 0,72,73
 324 651 324 651 350 651 c 0,74,75
 354 651 354 651 360 651 c 0,76,77
 399 643 399 643 455.5 636 c 128,-1,78
 512 629 512 629 575.5 620.5 c 128,-1,79
 639 612 639 612 709.5 606 c 128,-1,80
 780 600 780 600 848 594 c 0,81,82
 969 586 969 586 1063 586 c 0,83,84
 1083 586 1083 586 1104 586 c 0,85,86
 1212 588 1212 588 1274 612 c 1,87,-1
 1284 537 l 1,88,89
 1268 504 1268 504 1253.5 485.5 c 128,-1,90
 1239 467 1239 467 1230 455.5 c 128,-1,91
 1221 444 1221 444 1213.5 438 c 128,-1,92
 1206 432 1206 432 1200 428 c 2,93,-1
 1141 397 l 1,94,95
 1139 385 1139 385 1139 375 c 0,96,97
 1139 340 1139 340 1151 313 c 0,98,99
 1167 279 1167 279 1198 255 c 128,-1,100
 1229 231 1229 231 1266 221 c 0,101,102
 1292 213 1292 213 1317 213 c 0,103,104
 1325 213 1325 213 1335 215 c 1,105,-1
 1335 0 l 1,106,107
 1276 4 1276 4 1225 23.5 c 128,-1,108
 1174 43 1174 43 1133 85 c 128,-1,109
 1092 127 1092 127 1064 200.5 c 128,-1,110
 1036 274 1036 274 1018 387 c 1,111,112
 983 387 983 387 938 380 c 128,-1,113
 893 373 893 373 843 361.5 c 128,-1,114
 793 350 793 350 744.5 333.5 c 128,-1,115
 696 317 696 317 655 299 c 0,116,0
 545 240 545 240 457 162 c 128,-1,1
EndSplineSet
EndChar

StartChar: NameMe.79
Encoding: 79 -1 49
Width: 1302
Flags: W
HStem: 0 215<0 189.906> 272 170<953.381 1251.42> 408 317<47 297> 469 256<170.066 451.086>
LayerCount: 2
Fore
SplineSet
1296 436 m 1,0,-1
 1247 303 l 2,1,2
 1237 266 1237 266 1157 266 c 0,3,4
 1055 272 1055 272 981 272 c 0,5,6
 967 272 967 272 956 272 c 0,7,8
 872 270 872 270 813 263 c 128,-1,9
 754 256 754 256 709 241.5 c 128,-1,10
 664 227 664 227 616 209 c 2,11,-1
 111 12 l 2,12,13
 59 0 59 0 0 0 c 1,14,-1
 0 215 l 1,15,16
 49 215 49 215 74.5 215 c 128,-1,17
 100 215 100 215 117 219 c 0,18,19
 309 262 309 262 431 304 c 128,-1,20
 553 346 553 346 616 383 c 1,21,22
 606 385 606 385 586.5 388 c 128,-1,23
 567 391 567 391 545.5 397 c 128,-1,24
 524 403 524 403 496.5 411.5 c 128,-1,25
 469 420 469 420 444 428 c 0,26,27
 414 436 414 436 381 446.5 c 128,-1,28
 348 457 348 457 311 469 c 1,29,30
 299 469 299 469 275.5 460 c 128,-1,31
 252 451 252 451 219 439.5 c 128,-1,32
 186 428 186 428 143 418 c 128,-1,33
 100 408 100 408 47 408 c 0,34,35
 18 408 18 408 18 426 c 1,36,37
 18 422 18 422 20.5 428 c 128,-1,38
 23 434 23 434 25 453 c 1,39,40
 63 537 63 537 96 590 c 128,-1,41
 129 643 129 643 161 672.5 c 128,-1,42
 193 702 193 702 224.5 713.5 c 128,-1,43
 256 725 256 725 297 725 c 0,44,45
 373 725 373 725 444 684 c 0,46,47
 520 641 520 641 580.5 613.5 c 128,-1,48
 641 586 641 586 696.5 566.5 c 128,-1,49
 752 547 752 547 804 531.5 c 128,-1,50
 856 516 856 516 911 500 c 0,51,52
 973 479 973 479 1032.5 468 c 128,-1,53
 1092 457 1092 457 1144 450.5 c 128,-1,54
 1196 444 1196 444 1236 442 c 128,-1,55
 1276 440 1276 440 1296 436 c 1,0,-1
EndSplineSet
EndChar

StartChar: NameMe.80
Encoding: 80 -1 50
Width: 1398
Flags: W
HStem: 0 215<-4 243.368 1157.09 1405> 285 176<1148.71 1311> 481 251<238.392 394.624>
LayerCount: 2
Fore
SplineSet
1008 303 m 1,0,1
 969 301 969 301 916.5 290 c 128,-1,2
 864 279 864 279 808 261.5 c 128,-1,3
 752 244 752 244 695.5 224.5 c 128,-1,4
 639 205 639 205 596 186.5 c 128,-1,5
 553 168 553 168 523.5 155.5 c 128,-1,6
 494 143 494 143 489 143 c 0,7,8
 375 90 375 90 293 61.5 c 128,-1,9
 211 33 211 33 153.5 18.5 c 128,-1,10
 96 4 96 4 59.5 2 c 128,-1,11
 23 0 23 0 -4 0 c 1,12,-1
 -4 215 l 1,13,14
 43 215 43 215 101.5 222 c 128,-1,15
 160 229 160 229 223.5 242.5 c 128,-1,16
 287 256 287 256 351.5 272.5 c 128,-1,17
 416 289 416 289 477.5 308.5 c 128,-1,18
 539 328 539 328 591 349.5 c 128,-1,19
 643 371 643 371 686 391 c 1,20,21
 616 412 616 412 570 428 c 128,-1,22
 524 444 524 444 492.5 454.5 c 128,-1,23
 461 465 461 465 434.5 470 c 128,-1,24
 408 475 408 475 381 481 c 1,25,26
 373 481 373 481 303 469 c 0,27,28
 236 451 236 451 198 440.5 c 128,-1,29
 160 430 160 430 138.5 425 c 128,-1,30
 117 420 117 420 108.5 420 c 128,-1,31
 100 420 100 420 96 420 c 1,32,33
 117 487 117 487 131 530 c 128,-1,34
 145 573 145 573 156.5 599 c 128,-1,35
 168 625 168 625 178 638 c 128,-1,36
 188 651 188 651 199 664 c 1,37,38
 244 692 244 692 273.5 706.5 c 128,-1,39
 303 721 303 721 326.5 726 c 128,-1,40
 350 731 350 731 366.5 732 c 128,-1,41
 383 733 383 733 395 733 c 0,42,43
 403 733 403 733 435 722 c 128,-1,44
 467 711 467 711 511 691.5 c 128,-1,45
 555 672 555 672 609.5 648.5 c 128,-1,46
 664 625 664 625 718 602.5 c 128,-1,47
 772 580 772 580 819 561.5 c 128,-1,48
 866 543 866 543 897 532 c 0,49,50
 1104 461 1104 461 1348 461 c 1,51,52
 1360 430 1360 430 1360 408 c 0,53,54
 1360 401 1360 401 1360 395 c 0,55,56
 1356 373 1356 373 1339 340 c 2,57,-1
 1311 285 l 1,58,59
 1247 285 1247 285 1214.5 285 c 128,-1,60
 1182 285 1182 285 1166.5 283 c 128,-1,61
 1151 281 1151 281 1148 277.5 c 128,-1,62
 1145 274 1145 274 1145 270 c 0,63,64
 1145 256 1145 256 1155 238.5 c 128,-1,65
 1165 221 1165 221 1188 221 c 2,66,-1
 1405 215 l 1,67,-1
 1405 0 l 1,68,69
 1386 0 1386 0 1370 0 c 0,70,71
 1313 0 1313 0 1268 8 c 0,72,73
 1212 20 1212 20 1172.5 37.5 c 128,-1,74
 1133 55 1133 55 1109 79.5 c 128,-1,75
 1085 104 1085 104 1073 127 c 2,76,77
 1036 180 1036 180 1010 268 c 1,78,-1
 1008 303 l 1,0,1
EndSplineSet
EndChar

StartChar: NameMe.81
Encoding: 81 -1 51
Width: 837
Flags: W
HStem: -80 250<163.287 539.909> 651 244<355.176 480.371>
VStem: 680 98<215.345 369.375>
LayerCount: 2
Fore
SplineSet
774 217 m 2,0,1
 772 164 772 164 748.5 118 c 128,-1,2
 725 72 725 72 688 29 c 0,3,4
 680 16 680 16 651.5 3 c 128,-1,5
 623 -10 623 -10 584 -22.5 c 128,-1,6
 545 -35 545 -35 497 -45 c 128,-1,7
 449 -55 449 -55 400.5 -62.5 c 128,-1,8
 352 -70 352 -70 308 -75 c 128,-1,9
 264 -80 264 -80 227 -80 c 0,10,11
 197 -78 197 -78 167 -67.5 c 128,-1,12
 137 -57 137 -57 116.5 -36.5 c 128,-1,13
 96 -16 96 -16 84 17.5 c 128,-1,14
 72 51 72 51 72 100 c 0,15,16
 78 168 78 168 91 206 c 128,-1,17
 104 244 104 244 135 244 c 0,18,19
 141 236 l 0,20,21
 147 225 147 225 162.5 215 c 128,-1,22
 178 205 178 205 203.5 191.5 c 128,-1,23
 229 178 229 178 272 170 c 1,24,25
 295 170 295 170 319 170 c 0,26,27
 350 170 350 170 385 170 c 0,28,29
 444 172 444 172 501.5 181 c 128,-1,30
 559 190 559 190 607 204.5 c 128,-1,31
 655 219 655 219 680 244 c 1,32,33
 680 260 680 260 666.5 295 c 128,-1,34
 653 330 653 330 632.5 375 c 128,-1,35
 612 420 612 420 585.5 467 c 128,-1,36
 559 514 559 514 528.5 554 c 128,-1,37
 498 594 498 594 465 620.5 c 128,-1,38
 432 647 432 647 399 651 c 0,39,40
 385 651 385 651 378 651 c 128,-1,41
 371 651 371 651 368 649 c 128,-1,42
 365 647 365 647 361.5 644 c 128,-1,43
 358 641 358 641 348 639 c 1,44,45
 346 637 346 637 342 637 c 0,46,47
 332 637 332 637 324 659 c 0,48,49
 317 684 317 684 317 729 c 0,50,51
 317 748 317 748 319 770 c 1,52,53
 332 827 332 827 365 862 c 0,54,55
 391 895 391 895 434 895 c 0,56,57
 436 895 436 895 440 893 c 0,58,59
 485 891 485 891 543.5 846 c 128,-1,60
 602 801 602 801 670 696 c 1,61,62
 692 651 692 651 711.5 602 c 128,-1,63
 731 553 731 553 746.5 501 c 128,-1,64
 762 449 762 449 772 395 c 0,65,66
 778 354 778 354 778 313 c 0,67,68
 778 303 778 303 778 297 c 2,69,-1
 774 217 l 2,0,1
EndSplineSet
EndChar

StartChar: NameMe.82
Encoding: 82 -1 52
Width: 1323
Flags: W
HStem: 14 199<170.346 558.49 1124.98 1333>
LayerCount: 2
Fore
SplineSet
1333 0 m 1,0,1
 1286 4 1286 4 1251.5 8 c 128,-1,2
 1217 12 1217 12 1186 22.5 c 128,-1,3
 1155 33 1155 33 1127.5 50.5 c 128,-1,4
 1100 68 1100 68 1068 100.5 c 128,-1,5
 1036 133 1036 133 996 182 c 128,-1,6
 956 231 956 231 903 303 c 1,7,8
 868 250 868 250 822 208 c 128,-1,9
 776 166 776 166 722 134 c 128,-1,10
 668 102 668 102 611.5 78.5 c 128,-1,11
 555 55 555 55 502 42 c 128,-1,12
 449 29 449 29 400.5 21.5 c 128,-1,13
 352 14 352 14 317 14 c 0,14,15
 272 14 272 14 226 25.5 c 128,-1,16
 180 37 180 37 142 56.5 c 128,-1,17
 104 76 104 76 79.5 101.5 c 128,-1,18
 55 127 55 127 55 160 c 1,19,20
 72 205 72 205 82 230.5 c 128,-1,21
 92 256 92 256 99 270.5 c 128,-1,22
 106 285 106 285 111.5 291 c 128,-1,23
 117 297 117 297 123 297 c 1,24,25
 164 254 164 254 217 234.5 c 128,-1,26
 270 215 270 215 330 213 c 0,27,28
 350 213 l 0,29,30
 399 213 399 213 453 221 c 0,31,32
 512 231 512 231 571.5 253.5 c 128,-1,33
 631 276 631 276 682 303 c 128,-1,34
 733 330 733 330 772 358.5 c 128,-1,35
 811 387 811 387 833.5 415.5 c 128,-1,36
 856 444 856 444 856 469 c 1,37,38
 856 467 l 0,39,40
 848 494 l 0,41,42
 840 524 840 524 827.5 574.5 c 128,-1,43
 815 625 815 625 801.5 686.5 c 128,-1,44
 788 748 788 748 775 804 c 128,-1,45
 762 860 762 860 753.5 904 c 128,-1,46
 745 948 745 948 745 965 c 0,47,48
 745 977 745 977 748.5 996.5 c 128,-1,49
 752 1016 752 1016 758 1039.5 c 128,-1,50
 764 1063 764 1063 772 1083.5 c 128,-1,51
 780 1104 780 1104 791 1118 c 1,52,53
 805 1108 805 1108 820.5 1076 c 128,-1,54
 836 1044 836 1044 852 983 c 0,55,56
 885 795 885 795 921.5 667 c 128,-1,57
 958 539 958 539 993 458 c 128,-1,58
 1028 377 1028 377 1056.5 336 c 128,-1,59
 1085 295 1085 295 1104 276 c 0,60,61
 1120 260 1120 260 1138.5 249 c 128,-1,62
 1157 238 1157 238 1184.5 230.5 c 128,-1,63
 1212 223 1212 223 1248 219 c 128,-1,64
 1284 215 1284 215 1333 215 c 1,65,-1
 1333 0 l 1,0,1
EndSplineSet
EndChar

StartChar: NameMe.83
Encoding: 83 -1 53
Width: 974
Flags: W
HStem: -545 117<95.5737 410.5>
LayerCount: 2
Fore
SplineSet
936 240 m 0,0,1
 936 172 936 172 923.5 98.5 c 128,-1,2
 911 25 911 25 889.5 -51 c 128,-1,3
 868 -127 868 -127 838.5 -199.5 c 128,-1,4
 809 -272 809 -272 768 -333.5 c 128,-1,5
 727 -395 727 -395 682 -443.5 c 128,-1,6
 637 -492 637 -492 584 -520 c 0,7,8
 561 -532 561 -532 526 -539 c 0,9,10
 498 -545 498 -545 453 -545 c 0,11,12
 442 -545 442 -545 432 -545 c 0,13,14
 373 -543 373 -543 280.5 -531.5 c 128,-1,15
 188 -520 188 -520 55 -492 c 0,16,17
 47 -489 47 -489 38 -479 c 128,-1,18
 29 -469 29 -469 16 -440 c 1,19,-1
 231 -428 l 2,20,21
 287 -428 287 -428 348.5 -407.5 c 128,-1,22
 410 -387 410 -387 473.5 -353 c 128,-1,23
 537 -319 537 -319 596 -272 c 128,-1,24
 655 -225 655 -225 705.5 -171 c 128,-1,25
 756 -117 756 -117 793.5 -54.5 c 128,-1,26
 831 8 831 8 848 74 c 1,27,28
 791 180 791 180 758 244.5 c 128,-1,29
 725 309 725 309 708.5 347 c 128,-1,30
 692 385 692 385 687 400.5 c 128,-1,31
 682 416 682 416 682 426 c 0,32,33
 682 430 682 430 691 450.5 c 128,-1,34
 700 471 700 471 710.5 496.5 c 128,-1,35
 721 522 721 522 732 542.5 c 128,-1,36
 743 563 743 563 752 567 c 1,37,38
 764 567 764 567 782.5 549.5 c 128,-1,39
 801 532 801 532 820.5 501.5 c 128,-1,40
 840 471 840 471 861.5 433 c 128,-1,41
 883 395 883 395 899 359.5 c 128,-1,42
 915 324 915 324 925.5 292 c 128,-1,43
 936 260 936 260 936 240 c 0,0,1
EndSplineSet
EndChar

StartChar: NameMe.84
Encoding: 84 -1 54
Width: 1142
Flags: W
HStem: -688 125<318.25 527.825> 0 215<1040.25 1163> 16 199<1029.47 1148.75>
VStem: 944 78<-236.873 15.8281>
LayerCount: 2
Fore
SplineSet
1163 0 m 1,0,-1
 1026 16 l 1,1,-1
 1024 -4 l 2,2,3
 1024 -20 1024 -20 1025 -30.5 c 128,-1,4
 1026 -41 1026 -41 1028 -43 c 1,5,6
 1028 -72 1028 -72 1026 -96.5 c 128,-1,7
 1024 -121 1024 -121 1022 -139 c 1,8,-1
 1022 -160 l 1,9,10
 1016 -180 1016 -180 1010 -208 c 128,-1,11
 1004 -236 1004 -236 993.5 -267.5 c 128,-1,12
 983 -299 983 -299 967.5 -334 c 128,-1,13
 952 -369 952 -369 932 -403 c 2,14,-1
 872 -496 l 2,15,16
 864 -504 864 -504 851 -518 c 128,-1,17
 838 -532 838 -532 815 -553 c 2,18,-1
 748 -604 l 2,19,20
 735 -616 735 -616 715.5 -627.5 c 128,-1,21
 696 -639 696 -639 670 -653 c 2,22,-1
 584 -688 l 1,23,-1
 498 -688 l 2,24,25
 469 -688 469 -688 428 -679 c 128,-1,26
 387 -670 387 -670 347 -654.5 c 128,-1,27
 307 -639 307 -639 267 -621.5 c 128,-1,28
 227 -604 227 -604 194.5 -585.5 c 128,-1,29
 162 -567 162 -567 139.5 -553 c 128,-1,30
 117 -539 117 -539 109 -528 c 1,31,32
 59 -508 59 -508 55 -492 c 1,33,34
 55 -487 55 -487 66 -481 c 1,35,36
 100 -494 100 -494 132 -504 c 128,-1,37
 164 -514 164 -514 197 -524 c 0,38,39
 219 -532 219 -532 245.5 -538.5 c 128,-1,40
 272 -545 272 -545 293.5 -550 c 128,-1,41
 315 -555 315 -555 333.5 -559 c 128,-1,42
 352 -563 352 -563 360 -563 c 0,43,44
 385 -563 385 -563 395 -557 c 0,45,46
 465 -541 465 -541 505 -526.5 c 128,-1,47
 545 -512 545 -512 574.5 -499.5 c 128,-1,48
 604 -487 604 -487 627.5 -475 c 128,-1,49
 651 -463 651 -463 680 -444 c 0,50,51
 721 -424 721 -424 762 -392 c 128,-1,52
 803 -360 803 -360 838.5 -322.5 c 128,-1,53
 874 -285 874 -285 903 -241 c 128,-1,54
 932 -197 932 -197 944 -152 c 1,55,-1
 944 -88 l 2,56,57
 944 -76 944 -76 942 -56.5 c 128,-1,58
 940 -37 940 -37 932 -12.5 c 128,-1,59
 924 12 924 12 910.5 36.5 c 128,-1,60
 897 61 897 61 872 86 c 2,61,-1
 827 127 l 1,62,-1
 831 180 l 2,63,64
 840 252 840 252 858.5 304 c 128,-1,65
 877 356 877 356 897 381 c 1,66,-1
 999 272 l 1,67,-1
 1049 252 l 2,68,69
 1077 236 1077 236 1100.5 227.5 c 128,-1,70
 1124 219 1124 219 1145 215 c 1,71,-1
 1163 215 l 1,72,-1
 1163 0 l 1,0,-1
EndSplineSet
EndChar

StartChar: NameMe.85
Encoding: 85 -1 55
Width: 1896
Flags: W
HStem: -520 205<320.696 672.189> 225 224<1112 1348.11> 303 232<1512.69 1691.5>
VStem: 86 107<-187.67 105.625> 173 65<162.811 283.122> 1032 88<-87.9688 165.22> 1692 116<535.694 720.902>
LayerCount: 2
Fore
SplineSet
1808 637 m 0,0,1
 1808 625 1808 625 1805 601.5 c 128,-1,2
 1802 578 1802 578 1797 551 c 128,-1,3
 1792 524 1792 524 1786 495.5 c 128,-1,4
 1780 467 1780 467 1772.5 441.5 c 128,-1,5
 1765 416 1765 416 1758 398.5 c 128,-1,6
 1751 381 1751 381 1747 373 c 2,7,8
 1735 348 1735 348 1711.5 331.5 c 128,-1,9
 1688 315 1688 315 1659 309 c 0,10,11
 1632 303 1632 303 1604 303 c 0,12,13
 1599 303 1599 303 1595 303 c 0,14,15
 1565 305 1565 305 1534 312 c 128,-1,16
 1503 319 1503 319 1479.5 332.5 c 128,-1,17
 1456 346 1456 346 1444 365 c 1,18,19
 1421 328 1421 328 1398.5 303.5 c 128,-1,20
 1376 279 1376 279 1340.5 261.5 c 128,-1,21
 1305 244 1305 244 1250.5 234.5 c 128,-1,22
 1196 225 1196 225 1112 225 c 1,23,24
 1120 166 1120 166 1120 111 c 0,25,26
 1120 23 1120 23 1104 -53 c 0,27,28
 1075 -180 1075 -180 997.5 -274.5 c 128,-1,29
 920 -369 920 -369 791 -430.5 c 128,-1,30
 662 -492 662 -492 477 -520 c 0,31,32
 469 -520 469 -520 465 -520 c 0,33,34
 381 -520 381 -520 313 -487 c 0,35,36
 240 -457 240 -457 189.5 -397.5 c 128,-1,37
 139 -338 139 -338 112.5 -260 c 128,-1,38
 86 -182 86 -182 86 -96 c 0,39,40
 86 -72 86 -72 94 -32 c 128,-1,41
 102 8 102 8 114.5 52 c 128,-1,42
 127 96 127 96 142.5 140 c 128,-1,43
 158 184 158 184 173 220 c 128,-1,44
 188 256 188 256 201.5 277.5 c 128,-1,45
 215 299 215 299 223 299 c 0,46,47
 238 299 238 299 238 272 c 0,48,49
 238 264 238 264 230.5 246.5 c 128,-1,50
 223 229 223 229 214 198.5 c 128,-1,51
 205 168 205 168 199 121 c 0,52,53
 193 82 193 82 193 29 c 0,54,55
 193 14 193 14 193 -4 c 0,56,57
 193 -152 193 -152 272.5 -233.5 c 128,-1,58
 352 -315 352 -315 516 -315 c 0,59,60
 602 -315 602 -315 688 -289.5 c 128,-1,61
 774 -264 774 -264 844.5 -220 c 128,-1,62
 915 -176 915 -176 965.5 -117.5 c 128,-1,63
 1016 -59 1016 -59 1032 4 c 1,64,65
 1032 43 1032 43 1028 82 c 128,-1,66
 1024 121 1024 121 1011.5 167 c 128,-1,67
 999 213 999 213 974.5 274.5 c 128,-1,68
 950 336 950 336 907 420 c 1,69,70
 907 422 907 422 909 439.5 c 128,-1,71
 911 457 911 457 914.5 479.5 c 128,-1,72
 918 502 918 502 923 528.5 c 128,-1,73
 928 555 928 555 934 576.5 c 128,-1,74
 940 598 940 598 948 613.5 c 128,-1,75
 956 629 956 629 967 629 c 0,76,77
 979 629 979 629 989 619.5 c 128,-1,78
 999 610 999 610 1011.5 588.5 c 128,-1,79
 1024 567 1024 567 1040.5 533.5 c 128,-1,80
 1057 500 1057 500 1075 449 c 1,81,82
 1155 449 1155 449 1211.5 455 c 128,-1,83
 1268 461 1268 461 1305.5 474 c 128,-1,84
 1343 487 1343 487 1368 507.5 c 128,-1,85
 1393 528 1393 528 1409 555 c 1,86,-1
 1493 762 l 1,87,88
 1495 762 1495 762 1499 762 c 0,89,90
 1513 762 1513 762 1520 758 c 0,91,92
 1528 752 1528 752 1532 743.5 c 128,-1,93
 1536 735 1536 735 1539 726 c 128,-1,94
 1542 717 1542 717 1548 709 c 1,95,-1
 1511 584 l 1,96,97
 1513 571 1513 571 1529.5 562 c 128,-1,98
 1546 553 1546 553 1566.5 547 c 128,-1,99
 1587 541 1587 541 1611.5 538 c 128,-1,100
 1636 535 1636 535 1653 535 c 0,101,102
 1671 535 1671 535 1681.5 538 c 128,-1,103
 1692 541 1692 541 1688 545 c 1,104,105
 1688 549 1688 549 1690 552 c 128,-1,106
 1692 555 1692 555 1692 559 c 0,107,108
 1692 575 1692 575 1681.5 595.5 c 128,-1,109
 1671 616 1671 616 1657 659 c 1,110,-1
 1716 823 l 1,111,112
 1759 801 1759 801 1783.5 753 c 128,-1,113
 1808 705 1808 705 1808 637 c 0,0,1
EndSplineSet
EndChar

StartChar: NameMe.86
Encoding: 86 -1 56
Width: 2095
Flags: W
HStem: -733 196<256.812 681.112> 0 225<1074.34 1377.03 1552.1 1774.55 1966.12 2122>
VStem: 0 82<-366.646 -124.494> 987 86<-288.172 14.9587>
LayerCount: 2
Fore
SplineSet
2122 0 m 1,0,1
 2007 4 2007 4 1931 36 c 128,-1,2
 1855 68 1855 68 1835 129 c 1,3,4
 1812 80 1812 80 1780.5 50 c 128,-1,5
 1749 20 1749 20 1712 6 c 128,-1,6
 1675 -8 1675 -8 1640 -8 c 0,7,8
 1636 -8 1636 -8 1634 -8 c 0,9,10
 1593 -6 1593 -6 1554.5 5 c 128,-1,11
 1516 16 1516 16 1482 35.5 c 128,-1,12
 1448 55 1448 55 1423 80 c 1,13,14
 1380 41 1380 41 1336 22.5 c 128,-1,15
 1292 4 1292 4 1247 0 c 0,16,17
 1229 -4 1229 -4 1206 -4 c 0,18,19
 1184 -4 1184 -4 1159 0 c 0,20,21
 1116 4 1116 4 1073 16 c 1,22,23
 1073 -109 1073 -109 1050.5 -222.5 c 128,-1,24
 1028 -336 1028 -336 978 -430 c 128,-1,25
 928 -524 928 -524 850 -594 c 128,-1,26
 772 -664 772 -664 659 -700 c 0,27,28
 592 -725 592 -725 516 -729 c 0,29,30
 481 -733 481 -733 451 -733 c 0,31,32
 408 -733 408 -733 369 -727 c 0,33,34
 295 -721 295 -721 227.5 -694.5 c 128,-1,35
 160 -668 160 -668 109.5 -619.5 c 128,-1,36
 59 -571 59 -571 29 -504 c 0,37,38
 0 -440 0 -440 0 -350 c 0,39,40
 0 -348 0 -348 0 -344 c 0,41,42
 0 -305 0 -305 7 -262 c 128,-1,43
 14 -219 14 -219 25.5 -177 c 128,-1,44
 37 -135 37 -135 50 -95 c 128,-1,45
 63 -55 63 -55 77.5 -23.5 c 128,-1,46
 92 8 92 8 105.5 31.5 c 128,-1,47
 119 55 119 55 127 63 c 2,48,49
 145 94 145 94 159.5 105.5 c 128,-1,50
 174 117 174 117 182 117 c 128,-1,51
 190 117 190 117 191.5 106.5 c 128,-1,52
 193 96 193 96 184 82 c 0,53,54
 147 20 147 20 123.5 -52.5 c 128,-1,55
 100 -125 100 -125 86 -205 c 0,56,57
 82 -221 82 -221 82 -240 c 0,58,59
 82 -285 82 -285 102 -328 c 0,60,61
 127 -387 127 -387 175 -433 c 128,-1,62
 223 -479 223 -479 287.5 -508 c 128,-1,63
 352 -537 352 -537 416 -537 c 0,64,65
 530 -537 530 -537 632.5 -508 c 128,-1,66
 735 -479 735 -479 815 -426 c 128,-1,67
 895 -373 895 -373 941 -296 c 128,-1,68
 987 -219 987 -219 987 -127 c 0,69,70
 987 -92 987 -92 984 -60.5 c 128,-1,71
 981 -29 981 -29 971 7 c 128,-1,72
 961 43 961 43 940.5 86 c 128,-1,73
 920 129 920 129 891 188 c 1,74,75
 903 260 903 260 913.5 304 c 128,-1,76
 924 348 924 348 930 371.5 c 128,-1,77
 936 395 936 395 941 401.5 c 128,-1,78
 946 408 946 408 948 408 c 0,79,80
 952 408 952 408 957.5 404.5 c 128,-1,81
 963 401 963 401 972 389 c 128,-1,82
 981 377 981 377 996.5 351.5 c 128,-1,83
 1012 326 1012 326 1036 283 c 0,84,85
 1053 260 1053 260 1075.5 245.5 c 128,-1,86
 1098 231 1098 231 1126.5 225 c 128,-1,87
 1155 219 1155 219 1184 217 c 0,88,89
 1202 215 1202 215 1219 215 c 0,90,91
 1231 215 1231 215 1239 215 c 0,92,93
 1268 217 1268 217 1287.5 220 c 128,-1,94
 1307 223 1307 223 1315 225 c 0,95,96
 1348 231 1348 231 1370.5 241.5 c 128,-1,97
 1393 252 1393 252 1410 266.5 c 128,-1,98
 1427 281 1427 281 1441.5 299 c 128,-1,99
 1456 317 1456 317 1473 342 c 0,100,101
 1479 352 1479 352 1495 369.5 c 128,-1,102
 1511 387 1511 387 1531.5 399.5 c 128,-1,103
 1552 412 1552 412 1569 414 c 0,104,105
 1581 414 1581 414 1581 393 c 0,106,107
 1581 385 1581 385 1577 357.5 c 128,-1,108
 1573 330 1573 330 1552 268 c 1,109,110
 1552 256 1552 256 1569.5 244.5 c 128,-1,111
 1587 233 1587 233 1616 227 c 128,-1,112
 1645 221 1645 221 1673 219 c 0,113,114
 1679 219 1679 219 1683 219 c 0,115,116
 1710 219 1710 219 1735 223 c 0,117,118
 1763 229 1763 229 1783.5 240.5 c 128,-1,119
 1804 252 1804 252 1808 272 c 1,120,121
 1835 328 1835 328 1855.5 361.5 c 128,-1,122
 1876 395 1876 395 1890.5 413.5 c 128,-1,123
 1905 432 1905 432 1913 439 c 128,-1,124
 1921 446 1921 446 1927 446 c 0,125,126
 1935 446 1935 446 1939 430 c 0,127,128
 1942 420 1942 420 1942 408 c 0,129,130
 1942 399 1942 399 1939 389 c 0,131,132
 1939 369 1939 369 1933 346.5 c 128,-1,133
 1927 324 1927 324 1921 311 c 1,134,135
 1960 268 1960 268 2012 240.5 c 128,-1,136
 2064 213 2064 213 2122 213 c 1,137,-1
 2122 0 l 1,0,1
EndSplineSet
EndChar

StartChar: NameMe.87
Encoding: 87 -1 57
Width: 1363
Flags: W
HStem: 0 215<0 307.18> 43 244<524 807.481> 117 225<1049.87 1236.22>
VStem: 529.5 33.5<420.478 482.968> 1237 115<344.388 531.5>
LayerCount: 2
Fore
SplineSet
1352 483 m 0,0,1
 1352 416 1352 416 1337.5 350.5 c 128,-1,2
 1323 285 1323 285 1294.5 232.5 c 128,-1,3
 1266 180 1266 180 1225 148.5 c 128,-1,4
 1184 117 1184 117 1135 117 c 0,5,6
 1122 117 1122 117 1107 121 c 128,-1,7
 1092 125 1092 125 1070.5 133 c 128,-1,8
 1049 141 1049 141 1018 157.5 c 128,-1,9
 987 174 987 174 944 201 c 1,10,11
 932 168 932 168 896 139.5 c 128,-1,12
 860 111 860 111 812 89.5 c 128,-1,13
 764 68 764 68 707.5 55.5 c 128,-1,14
 651 43 651 43 598 43 c 0,15,16
 549 43 549 43 496.5 51 c 128,-1,17
 444 59 444 59 408 76 c 1,18,19
 356 49 356 49 296 34.5 c 128,-1,20
 236 20 236 20 178.5 12 c 128,-1,21
 121 4 121 4 73 2 c 128,-1,22
 25 0 25 0 0 0 c 1,23,-1
 0 215 l 1,24,25
 92 215 92 215 172 227.5 c 128,-1,26
 252 240 252 240 318.5 263.5 c 128,-1,27
 385 287 385 287 430 317.5 c 128,-1,28
 475 348 475 348 496 385 c 0,29,30
 516 428 516 428 529.5 453.5 c 128,-1,31
 543 479 543 479 549 487.5 c 128,-1,32
 555 496 555 496 559 489.5 c 128,-1,33
 563 483 563 483 563 465 c 1,34,35
 555 430 555 430 551 404.5 c 128,-1,36
 547 379 547 379 542 357.5 c 128,-1,37
 537 336 537 336 532.5 319.5 c 128,-1,38
 528 303 528 303 524 289 c 1,39,40
 547 287 547 287 567 287 c 0,41,42
 647 287 647 287 709 293 c 0,43,44
 784 299 784 299 832.5 318.5 c 128,-1,45
 881 338 881 338 908.5 368.5 c 128,-1,46
 936 399 936 399 952 449 c 0,47,48
 981 543 981 543 991 555 c 1,49,50
 993 563 993 563 1004.5 571.5 c 128,-1,51
 1016 580 1016 580 1028 586 c 128,-1,52
 1040 592 1040 592 1049.5 590 c 128,-1,53
 1059 588 1059 588 1057 575 c 0,54,55
 1051 537 1051 537 1045.5 511 c 128,-1,56
 1040 485 1040 485 1036 469 c 128,-1,57
 1032 453 1032 453 1030 440 c 0,58,-1
 1024 416 l 1,59,60
 1028 403 1028 403 1050.5 386 c 128,-1,61
 1073 369 1073 369 1106 356.5 c 128,-1,62
 1139 344 1139 344 1174 344 c 0,63,64
 1174 342 1174 342 1176 342 c 0,65,66
 1210 342 1210 342 1237 365 c 1,67,68
 1237 385 1237 385 1234 402.5 c 128,-1,69
 1231 420 1231 420 1221 444 c 1,70,71
 1225 465 1225 465 1233 498.5 c 128,-1,72
 1241 532 1241 532 1252.5 564 c 128,-1,73
 1264 596 1264 596 1274 620.5 c 128,-1,74
 1284 645 1284 645 1290 647 c 1,75,76
 1296 647 1296 647 1307.5 629.5 c 128,-1,77
 1319 612 1319 612 1328 585.5 c 128,-1,78
 1337 559 1337 559 1344.5 531.5 c 128,-1,79
 1352 504 1352 504 1352 483 c 0,0,1
EndSplineSet
EndChar

StartChar: NameMe.88
Encoding: 88 -1 58
Width: 1454
Flags: W
HStem: 0 215<0 189.534 426.58 746.75 1401 1481> 14 232<925 1124.43>
LayerCount: 2
Fore
SplineSet
1439.5 0 m 128,-1,1
 1423 0 1423 0 1414 2 c 128,-1,2
 1405 4 1405 4 1400 6 c 128,-1,3
 1395 8 1395 8 1391 8 c 0,4,5
 1368 20 1368 20 1348.5 30.5 c 128,-1,6
 1329 41 1329 41 1310.5 62.5 c 128,-1,7
 1292 84 1292 84 1267.5 119 c 128,-1,8
 1243 154 1243 154 1212 213 c 1,9,10
 1159 100 1159 100 1141 76 c 0,11,12
 1112 41 1112 41 1067 25 c 0,13,14
 1036 14 1036 14 999 14 c 0,15,16
 989 14 989 14 981 16 c 0,17,18
 934 20 934 20 889 39.5 c 128,-1,19
 844 59 844 59 809 96 c 1,20,21
 795 72 795 72 765 54.5 c 128,-1,22
 735 37 735 37 695 24.5 c 128,-1,23
 655 12 655 12 612 8 c 0,24,25
 578 4 578 4 547 4 c 0,26,-1
 520 4 l 0,27,28
 471 6 471 6 429 14.5 c 128,-1,29
 387 23 387 23 357.5 36 c 128,-1,30
 328 49 328 49 309 70 c 0,31,32
 297 88 297 88 297 109 c 0,33,34
 297 117 l 1,35,36
 276 96 276 96 244.5 75.5 c 128,-1,37
 213 55 213 55 174 37.5 c 128,-1,38
 135 20 135 20 90 8 c 0,39,40
 51 0 51 0 14 0 c 0,41,42
 8 0 8 0 0 0 c 1,43,-1
 0 215 l 1,44,45
 16 213 16 213 35 213 c 0,46,47
 70 213 70 213 106 223 c 0,48,49
 158 236 158 236 209 262.5 c 128,-1,50
 260 289 260 289 312.5 322.5 c 128,-1,51
 365 356 365 356 416 391 c 1,52,53
 420 391 420 391 422 391 c 0,54,55
 438 391 438 391 438 373 c 0,56,57
 438 365 438 365 433 351.5 c 128,-1,58
 428 338 428 338 422 323.5 c 128,-1,59
 416 309 416 309 409.5 297 c 128,-1,60
 403 285 403 285 397 274 c 1,61,62
 469 236 469 236 549 227 c 0,63,64
 580 223 580 223 612 223 c 0,65,66
 651 223 651 223 688 229 c 0,67,68
 752 240 752 240 795 268.5 c 128,-1,69
 838 297 838 297 842 332 c 1,70,71
 840 336 840 336 849 346 c 128,-1,72
 858 356 858 356 871.5 366.5 c 128,-1,73
 885 377 885 377 900 386 c 128,-1,74
 915 395 915 395 927.5 400.5 c 128,-1,75
 940 406 940 406 948 402.5 c 128,-1,76
 956 399 956 399 954 387 c 1,77,78
 944 354 944 354 938 333.5 c 128,-1,79
 932 313 932 313 929 303 c 128,-1,80
 926 293 926 293 925 287 c 128,-1,81
 924 281 924 281 924 276 c 1,82,83
 956 256 956 256 989 250 c 0,84,85
 1008 246 1008 246 1024 246 c 128,-1,86
 1040 246 1040 246 1057 248 c 0,87,88
 1087 256 1087 256 1114 272.5 c 128,-1,89
 1141 289 1141 289 1155 315 c 0,90,91
 1182 373 1182 373 1205.5 411 c 128,-1,92
 1229 449 1229 449 1251 465 c 1,93,94
 1268 471 1268 471 1272 468 c 128,-1,95
 1276 465 1276 465 1276 453 c 0,96,97
 1276 385 1276 385 1251 336 c 1,98,99
 1268 315 1268 315 1282 300 c 128,-1,100
 1296 285 1296 285 1311.5 272.5 c 128,-1,101
 1327 260 1327 260 1349.5 250 c 128,-1,102
 1372 240 1372 240 1401 227 c 1,103,-1
 1481 215 l 1,104,-1
 1481 0 l 1,105,0
 1456 0 1456 0 1439.5 0 c 128,-1,1
EndSplineSet
EndChar

StartChar: NameMe.89
Encoding: 89 -1 59
Width: 2224
Flags: W
HStem: -559 231<284.692 749.556> 156 231<1323.57 1621.66> 680 227<1691.23 1913.13>
VStem: 43 74<-155.866 139.814>
LayerCount: 2
Fore
SplineSet
2118 715 m 0,0,1
 2118 643 2118 643 2090 575.5 c 128,-1,2
 2062 508 2062 508 2011 446.5 c 128,-1,3
 1960 385 1960 385 1888.5 330.5 c 128,-1,4
 1817 276 1817 276 1728.5 238.5 c 128,-1,5
 1640 201 1640 201 1538 178.5 c 128,-1,6
 1436 156 1436 156 1327 156 c 0,7,8
 1272 156 1272 156 1224 164 c 128,-1,9
 1176 172 1176 172 1120 197 c 1,10,11
 1108 88 1108 88 1089.5 -10.5 c 128,-1,12
 1071 -109 1071 -109 1040.5 -192.5 c 128,-1,13
 1010 -276 1010 -276 964 -344 c 128,-1,14
 918 -412 918 -412 851 -460 c 128,-1,15
 784 -508 784 -508 693 -533.5 c 128,-1,16
 602 -559 602 -559 479 -559 c 0,17,18
 352 -559 352 -559 266 -515 c 128,-1,19
 180 -471 180 -471 130 -400.5 c 128,-1,20
 80 -330 80 -330 59 -240 c 0,21,22
 43 -168 43 -168 43 -94 c 0,23,24
 43 -74 43 -74 45 -51 c 0,25,26
 51 43 51 43 78.5 136 c 128,-1,27
 106 229 106 229 147 303 c 1,28,29
 172 303 172 303 175 292 c 128,-1,30
 178 281 178 281 178 266 c 0,31,32
 178 264 178 264 173 247.5 c 128,-1,33
 168 231 168 231 162 207.5 c 128,-1,34
 156 184 156 184 147.5 154.5 c 128,-1,35
 139 125 139 125 133 96.5 c 128,-1,36
 127 68 127 68 122 43 c 128,-1,37
 117 18 117 18 117 4 c 0,38,39
 117 -55 117 -55 136.5 -114.5 c 128,-1,40
 156 -174 156 -174 200 -221 c 128,-1,41
 244 -268 244 -268 316.5 -298 c 128,-1,42
 389 -328 389 -328 500 -328 c 0,43,44
 584 -328 584 -328 672 -306.5 c 128,-1,45
 760 -285 760 -285 834.5 -247 c 128,-1,46
 909 -209 909 -209 960.5 -156.5 c 128,-1,47
 1012 -104 1012 -104 1024 -43 c 1,48,49
 1024 41 1024 41 1016 104.5 c 128,-1,50
 1008 168 1008 168 991.5 221 c 128,-1,51
 975 274 975 274 947.5 319.5 c 128,-1,52
 920 365 920 365 881 412 c 1,53,54
 877 418 877 418 883 429 c 128,-1,55
 889 440 889 440 899 461.5 c 128,-1,56
 909 483 909 483 924.5 520 c 128,-1,57
 940 557 940 557 956 616 c 1,58,59
 969 616 969 616 976 613 c 128,-1,60
 983 610 983 610 995.5 595 c 128,-1,61
 1008 580 1008 580 1028.5 548 c 128,-1,62
 1049 516 1049 516 1081 457 c 1,63,-1
 1208 416 l 1,64,65
 1343 559 1343 559 1441.5 655.5 c 128,-1,66
 1540 752 1540 752 1611.5 807 c 128,-1,67
 1683 862 1683 862 1733.5 884.5 c 128,-1,68
 1784 907 1784 907 1825 907 c 0,69,70
 1878 907 1878 907 1931.5 893 c 128,-1,71
 1985 879 1985 879 2026.5 852 c 128,-1,72
 2068 825 2068 825 2093 790.5 c 128,-1,73
 2118 756 2118 756 2118 715 c 0,0,1
1964 567 m 1,74,75
 1956 625 1956 625 1901.5 652.5 c 128,-1,76
 1847 680 1847 680 1737 680 c 0,77,78
 1712 680 1712 680 1682.5 667.5 c 128,-1,79
 1653 655 1653 655 1607 624.5 c 128,-1,80
 1561 594 1561 594 1492 536.5 c 128,-1,81
 1423 479 1423 479 1323 387 c 1,82,83
 1427 387 1427 387 1527.5 404.5 c 128,-1,84
 1628 422 1628 422 1712 447.5 c 128,-1,85
 1796 473 1796 473 1860.5 506 c 128,-1,86
 1925 539 1925 539 1964 567 c 1,74,75
EndSplineSet
EndChar

StartChar: NameMe.90
Encoding: 90 -1 60
Width: 2256
Flags: W
HStem: -791 238<328.551 748.668> -88 240<1405 1746.21> 0 215<2079.34 2273> 426 225<1790.16 1976.78>
VStem: 45 90<-372.794 -110.066> 1120 103<-335.425 -63.3021>
LayerCount: 2
Fore
SplineSet
2273 0 m 1,0,-1
 2198 0 l 2,1,2
 2177 -2 2177 -2 2160.5 -3 c 128,-1,3
 2144 -4 2144 -4 2132 -4 c 0,4,5
 2095 -4 2095 -4 2085 -2 c 128,-1,6
 2075 0 2075 0 2071 0 c 0,7,8
 1987 -12 1987 -12 1895.5 -27.5 c 128,-1,9
 1804 -43 1804 -43 1716 -57.5 c 128,-1,10
 1628 -72 1628 -72 1547 -80 c 128,-1,11
 1466 -88 1466 -88 1401 -88 c 0,12,13
 1374 -88 1374 -88 1350.5 -86 c 128,-1,14
 1327 -84 1327 -84 1309 -80 c 2,15,-1
 1219 -63 l 1,16,17
 1221 -109 1221 -109 1223 -150 c 0,18,19
 1223 -158 1223 -158 1223 -168 c 0,20,21
 1223 -203 1223 -203 1219 -236 c 0,22,23
 1212 -281 1212 -281 1196 -327 c 128,-1,24
 1180 -373 1180 -373 1150 -422 c 128,-1,25
 1120 -471 1120 -471 1070 -525.5 c 128,-1,26
 1020 -580 1020 -580 946 -639 c 0,27,28
 903 -676 903 -676 849 -703.5 c 128,-1,29
 795 -731 795 -731 736.5 -750.5 c 128,-1,30
 678 -770 678 -770 618.5 -780.5 c 128,-1,31
 559 -791 559 -791 508 -791 c 0,32,33
 465 -791 465 -791 419 -781.5 c 128,-1,34
 373 -772 373 -772 327 -755.5 c 128,-1,35
 281 -739 281 -739 239 -715.5 c 128,-1,36
 197 -692 197 -692 166 -662 c 0,37,38
 113 -614 113 -614 84 -553 c 128,-1,39
 55 -492 55 -492 49 -422 c 0,40,41
 45 -391 45 -391 45 -360 c 0,42,43
 45 -322 45 -322 51 -283 c 0,44,45
 59 -209 59 -209 80.5 -138.5 c 128,-1,46
 102 -68 102 -68 131 -2.5 c 128,-1,47
 160 63 160 63 195 117 c 1,48,49
 205 119 205 119 209 116 c 128,-1,50
 213 113 213 113 214 106.5 c 128,-1,51
 215 100 215 100 214 92 c 128,-1,52
 213 84 213 84 213 80 c 1,53,54
 184 0 184 0 170 -52 c 128,-1,55
 156 -104 156 -104 147.5 -136 c 128,-1,56
 139 -168 139 -168 137 -184.5 c 128,-1,57
 135 -201 135 -201 135 -213 c 0,58,59
 135 -272 135 -272 159.5 -332.5 c 128,-1,60
 184 -393 184 -393 234.5 -442.5 c 128,-1,61
 285 -492 285 -492 360.5 -522.5 c 128,-1,62
 436 -553 436 -553 545 -553 c 0,63,64
 621 -553 621 -553 706 -533.5 c 128,-1,65
 791 -514 791 -514 869.5 -479 c 128,-1,66
 948 -444 948 -444 1012.5 -394 c 128,-1,67
 1077 -344 1077 -344 1118 -281 c 1,68,69
 1120 -260 1120 -260 1120 -238 c 0,70,71
 1120 -199 1120 -199 1114 -154 c 0,72,73
 1104 -86 1104 -86 1086.5 -19.5 c 128,-1,74
 1069 47 1069 47 1046.5 107.5 c 128,-1,75
 1024 168 1024 168 999 213 c 1,76,77
 1001 221 1001 221 1004.5 231.5 c 128,-1,78
 1008 242 1008 242 1014 259 c 128,-1,79
 1020 276 1020 276 1032 304 c 128,-1,80
 1044 332 1044 332 1063 377 c 1,81,82
 1067 371 1067 371 1075 361.5 c 128,-1,83
 1083 352 1083 352 1098.5 331.5 c 128,-1,84
 1114 311 1114 311 1138.5 274.5 c 128,-1,85
 1163 238 1163 238 1208 176 c 1,86,87
 1243 168 1243 168 1272 168 c 1,88,-1
 1464 346 l 2,89,90
 1561 434 1561 434 1634.5 493.5 c 128,-1,91
 1708 553 1708 553 1762.5 589 c 128,-1,92
 1817 625 1817 625 1857.5 638 c 128,-1,93
 1898 651 1898 651 1929 651 c 0,94,95
 1968 651 1968 651 2015 636 c 128,-1,96
 2062 621 2062 621 2105 596 c 128,-1,97
 2148 571 2148 571 2176 540.5 c 128,-1,98
 2204 510 2204 510 2204 481 c 0,99,100
 2206 475 2206 475 2206 471 c 0,101,102
 2206 446 2206 446 2200 424 c 0,103,104
 2195 397 2195 397 2182 366.5 c 128,-1,105
 2169 336 2169 336 2142.5 296 c 128,-1,106
 2116 256 2116 256 2077 197 c 1,107,108
 2152 201 2152 201 2195 209 c 0,109,110
 2234 215 2234 215 2261 215 c 0,111,112
 2273 215 l 1,113,-1
 2273 0 l 1,0,-1
2032 322 m 1,114,115
 2007 350 2007 350 1989.5 368.5 c 128,-1,116
 1972 387 1972 387 1953.5 400.5 c 128,-1,117
 1935 414 1935 414 1918 420 c 128,-1,118
 1901 426 1901 426 1876 426 c 0,119,120
 1835 424 1835 424 1797 418 c 128,-1,121
 1759 412 1759 412 1719 396.5 c 128,-1,122
 1679 381 1679 381 1636 352.5 c 128,-1,123
 1593 324 1593 324 1546 281 c 2,124,-1
 1405 152 l 1,125,126
 1493 152 1493 152 1582 164 c 128,-1,127
 1671 176 1671 176 1754 198.5 c 128,-1,128
 1837 221 1837 221 1908.5 253 c 128,-1,129
 1980 285 1980 285 2032 322 c 1,114,115
EndSplineSet
EndChar

StartChar: NameMe.91
Encoding: 91 -1 61
Width: 1753
Flags: W
HStem: 0 215<0 88> 45 225<762 1155.86> 586 225<1211.3 1424.09>
LayerCount: 2
Fore
SplineSet
1679 592 m 1,0,1
 1673 563 1673 563 1668 541.5 c 128,-1,2
 1663 520 1663 520 1651.5 489.5 c 128,-1,3
 1640 459 1640 459 1619.5 416 c 128,-1,4
 1599 373 1599 373 1569 303 c 1,5,6
 1477 213 1477 213 1332.5 150.5 c 128,-1,7
 1188 88 1188 88 999 55 c 0,8,9
 905 47 905 47 840 45 c 0,10,11
 821 45 821 45 809 45 c 0,12,13
 760 45 760 45 725 47 c 0,14,15
 676 51 676 51 639 55 c 128,-1,16
 602 59 602 59 567 66 c 1,17,18
 555 33 555 33 548 12.5 c 128,-1,19
 541 -8 541 -8 531.5 -22.5 c 128,-1,20
 522 -37 522 -37 507 -50 c 128,-1,21
 492 -63 492 -63 465 -90 c 0,22,23
 461 -96 461 -96 457 -89 c 128,-1,24
 453 -82 453 -82 451 -70.5 c 128,-1,25
 449 -59 449 -59 449 -48 c 128,-1,26
 449 -37 449 -37 449 -33 c 1,27,28
 457 -4 457 -4 464 15.5 c 128,-1,29
 471 35 471 35 477 47 c 128,-1,30
 483 59 483 59 489.5 71.5 c 128,-1,31
 496 84 496 84 502 94 c 1,32,33
 496 98 496 98 486.5 103.5 c 128,-1,34
 477 109 477 109 463 120 c 128,-1,35
 449 131 449 131 424 150.5 c 128,-1,36
 399 170 399 170 365 201 c 1,37,38
 356 172 356 172 341 147.5 c 128,-1,39
 326 123 326 123 296 99.5 c 128,-1,40
 266 76 266 76 216 54.5 c 128,-1,41
 166 33 166 33 88 10 c 1,42,-1
 0 0 l 1,43,-1
 0 215 l 1,44,45
 29 215 29 215 66.5 221 c 128,-1,46
 104 227 104 227 140 236.5 c 128,-1,47
 176 246 176 246 209 259 c 128,-1,48
 242 272 242 272 264 285 c 1,49,50
 295 315 295 315 315.5 333.5 c 128,-1,51
 336 352 336 352 351.5 364.5 c 128,-1,52
 367 377 367 377 378 382 c 128,-1,53
 389 387 389 387 401 391 c 1,54,-1
 639 297 l 1,55,56
 651 315 651 315 680 346 c 128,-1,57
 709 377 709 377 746.5 414 c 128,-1,58
 784 451 784 451 828 490.5 c 128,-1,59
 872 530 872 530 920.5 569 c 128,-1,60
 969 608 969 608 1017 644 c 128,-1,61
 1065 680 1065 680 1108 709 c 0,62,63
 1272 811 1272 811 1356 811 c 0,64,65
 1386 811 1386 811 1421 802 c 128,-1,66
 1456 793 1456 793 1492 776.5 c 128,-1,67
 1528 760 1528 760 1561.5 738.5 c 128,-1,68
 1595 717 1595 717 1622 691.5 c 128,-1,69
 1649 666 1649 666 1664 640 c 128,-1,70
 1679 614 1679 614 1679 592 c 1,0,1
1507 449 m 1,71,72
 1495 481 1495 481 1467.5 508 c 128,-1,73
 1440 535 1440 535 1405 551 c 128,-1,74
 1370 567 1370 567 1335 576.5 c 128,-1,75
 1300 586 1300 586 1278 586 c 0,76,77
 1268 584 1268 584 1253.5 582 c 128,-1,78
 1239 580 1239 580 1217.5 569.5 c 128,-1,79
 1196 559 1196 559 1161 541.5 c 128,-1,80
 1126 524 1126 524 1072 490.5 c 128,-1,81
 1018 457 1018 457 942 404.5 c 128,-1,82
 866 352 866 352 762 279 c 1,83,84
 825 270 825 270 889 270 c 0,85,86
 926 270 926 270 965 272 c 0,87,88
 1067 281 1067 281 1162 304.5 c 128,-1,89
 1257 328 1257 328 1344.5 365.5 c 128,-1,90
 1432 403 1432 403 1507 449 c 1,71,72
EndSplineSet
EndChar

StartChar: NameMe.92
Encoding: 92 -1 62
Width: 1601
Flags: W
HStem: -4 197<1237 1623.42> 0 215<0 39 713 896.755 1238.71 1624> 170 178<215.709 313.938> 524 240<1097.08 1305.39>
VStem: 379 49<-169.682 -79>
LayerCount: 2
Fore
SplineSet
1624 0 m 1,0,-1
 1237 -4 l 2,1,2
 1221 -4 1221 -4 1190 -2 c 128,-1,3
 1159 0 1159 0 1125.5 4 c 128,-1,4
 1092 8 1092 8 1054 12 c 128,-1,5
 1016 16 1016 16 984 21.5 c 128,-1,6
 952 27 952 27 929.5 32 c 128,-1,7
 907 37 907 37 899 41 c 1,8,9
 827 25 827 25 774 14.5 c 128,-1,10
 721 4 721 4 676 2 c 0,11,12
 651 0 651 0 630.5 0 c 128,-1,13
 610 0 610 0 590 2 c 0,14,15
 553 4 553 4 510 12 c 1,16,17
 487 -4 487 -4 428 -127 c 1,18,19
 416 -160 416 -160 404.5 -170 c 128,-1,20
 393 -180 393 -180 387 -174 c 128,-1,21
 381 -168 381 -168 379 -152 c 0,22,23
 379 -150 379 -150 379 -147 c 0,24,25
 379 -131 379 -131 385 -115 c 2,26,-1
 436 29 l 1,27,28
 401 29 401 29 376.5 50.5 c 128,-1,29
 352 72 352 72 332.5 99.5 c 128,-1,30
 313 127 313 127 297 148.5 c 128,-1,31
 281 170 281 170 264 170 c 0,32,33
 252 170 252 170 235.5 158.5 c 128,-1,34
 219 147 219 147 195.5 130 c 128,-1,35
 172 113 172 113 142.5 86 c 128,-1,36
 113 59 113 59 68 31 c 0,37,38
 43 16 43 16 27.5 8 c 128,-1,39
 12 0 12 0 0 0 c 1,40,-1
 0 215 l 1,41,-1
 39 219 l 2,42,43
 84 223 84 223 122 243.5 c 128,-1,44
 160 264 160 264 189.5 284.5 c 128,-1,45
 219 305 219 305 243.5 324.5 c 128,-1,46
 268 344 268 344 291 348 c 1,47,48
 297 348 297 348 371 285 c 0,49,50
 446 223 446 223 541 223 c 1,51,52
 604 293 604 293 654.5 344 c 128,-1,53
 705 395 705 395 745.5 434 c 128,-1,54
 786 473 786 473 819 505 c 128,-1,55
 852 537 852 537 881.5 561.5 c 128,-1,56
 911 586 911 586 940 608.5 c 128,-1,57
 969 631 969 631 997 653 c 0,58,59
 1051 692 1051 692 1092 716.5 c 128,-1,60
 1133 741 1133 741 1163 752 c 0,61,62
 1194 764 1194 764 1221 764 c 0,63,64
 1225 764 1225 764 1227 764 c 0,65,66
 1253 762 1253 762 1284 748 c 0,67,68
 1343 723 1343 723 1381 697.5 c 128,-1,69
 1419 672 1419 672 1441.5 652.5 c 128,-1,70
 1464 633 1464 633 1472.5 614.5 c 128,-1,71
 1481 596 1481 596 1483 580 c 0,72,73
 1483 532 1483 532 1463.5 478 c 128,-1,74
 1444 424 1444 424 1412 370.5 c 128,-1,75
 1380 317 1380 317 1335 270 c 128,-1,76
 1290 223 1290 223 1237 193 c 1,77,78
 1292 193 1292 193 1328 195 c 128,-1,79
 1364 197 1364 197 1389.5 199 c 128,-1,80
 1415 201 1415 201 1435.5 205 c 128,-1,81
 1456 209 1456 209 1481.5 211 c 128,-1,82
 1507 213 1507 213 1540 215 c 0,83,84
 1561 215 1561 215 1587 215 c 0,85,86
 1604 215 1604 215 1624 215 c 1,87,-1
 1624 0 l 1,0,-1
1339 461 m 1,88,89
 1323 471 1323 471 1297.5 483.5 c 128,-1,90
 1272 496 1272 496 1242 504 c 128,-1,91
 1212 512 1212 512 1181.5 518 c 128,-1,92
 1151 524 1151 524 1126 524 c 0,93,94
 1104 524 1104 524 1072 515 c 128,-1,95
 1040 506 1040 506 993 475 c 128,-1,96
 946 444 946 444 878.5 384 c 128,-1,97
 811 324 811 324 713 219 c 1,98,99
 725 219 725 219 739 219 c 0,100,101
 764 219 764 219 799 223 c 0,102,103
 852 231 852 231 915.5 249.5 c 128,-1,104
 979 268 979 268 1045.5 293.5 c 128,-1,105
 1112 319 1112 319 1170.5 348 c 128,-1,106
 1229 377 1229 377 1275 405.5 c 128,-1,107
 1321 434 1321 434 1339 461 c 1,88,89
EndSplineSet
EndChar

StartChar: NameMe.93
Encoding: 93 -1 63
Width: 1947
Flags: W
HStem: -66 230<357.534 659 895 1271.22> -47 213<324.464 659> 160 37<58.8135 84.04> 442 236<1370.11 1580.46>
VStem: 694.5 16.5<1781.89 1798.02> 801 98<299.779 684.995> 1675 185<292.635 483.5>
LayerCount: 2
Fore
SplineSet
1847.5 355 m 128,-1,1
 1835 311 1835 311 1811.5 277.5 c 128,-1,2
 1788 244 1788 244 1756 214 c 128,-1,3
 1724 184 1724 184 1683 139 c 0,4,5
 1636 92 1636 92 1550 57.5 c 128,-1,6
 1464 23 1464 23 1355.5 -3 c 128,-1,7
 1247 -29 1247 -29 1123 -44 c 128,-1,8
 999 -59 999 -59 877 -66 c 0,9,10
 809 -68 809 -68 739 -68 c 0,11,12
 686 -68 686 -68 633 -66 c 0,13,14
 512 -61 512 -61 414 -47 c 0,15,16
 412 -47 412 -47 406.5 -45 c 128,-1,17
 401 -43 401 -43 389 -38 c 128,-1,18
 377 -33 377 -33 352.5 -18.5 c 128,-1,19
 328 -4 328 -4 289 18.5 c 128,-1,20
 250 41 250 41 192.5 76 c 128,-1,21
 135 111 135 111 55 160 c 0,22,23
 53 160 53 160 52 166 c 0,24,-1
 50 178 l 0,25,26
 49 184 49 184 51 190.5 c 128,-1,27
 53 197 53 197 59 197 c 0,28,29
 150 186 150 186 213 180 c 128,-1,30
 276 174 276 174 329.5 171 c 128,-1,31
 383 168 383 168 431 166 c 128,-1,32
 479 164 479 164 545 164 c 2,33,-1
 659 164 l 1,34,-1
 801 250 l 1,35,36
 793 449 793 449 777.5 610.5 c 128,-1,37
 762 772 762 772 746.5 911.5 c 128,-1,38
 731 1051 731 1051 718 1173.5 c 128,-1,39
 705 1296 705 1296 696 1415 c 1,40,41
 645 1481 645 1481 629 1532 c 0,42,43
 616 1571 616 1571 616 1593 c 0,44,45
 616 1606 616 1606 621 1616 c 0,46,47
 623 1634 623 1634 635 1665 c 128,-1,48
 647 1696 647 1696 663.5 1725.5 c 128,-1,49
 680 1755 680 1755 694.5 1777.5 c 128,-1,50
 709 1800 709 1800 711 1800 c 1,51,52
 709 1794 709 1794 710 1781.5 c 128,-1,53
 711 1769 711 1769 723 1747.5 c 128,-1,54
 735 1726 735 1726 753.5 1700.5 c 128,-1,55
 772 1675 772 1675 791.5 1653.5 c 128,-1,56
 811 1632 811 1632 829.5 1618 c 128,-1,57
 848 1604 848 1604 860 1604 c 1,58,59
 866 1565 866 1565 868 1538 c 0,60,61
 868 1530 868 1530 868 1524 c 0,62,63
 868 1507 868 1507 866 1493 c 0,64,65
 860 1475 860 1475 848 1456.5 c 128,-1,66
 836 1438 836 1438 811 1411 c 1,67,68
 813 1411 813 1411 818 1366 c 128,-1,69
 823 1321 823 1321 831.5 1242 c 128,-1,70
 840 1163 840 1163 850 1059.5 c 128,-1,71
 860 956 860 956 870.5 841.5 c 128,-1,72
 881 727 881 727 889 609.5 c 128,-1,73
 897 492 897 492 899 385 c 0,74,-1
 899 377 l 0,75,76
 899 373 899 373 898 362.5 c 128,-1,77
 897 352 897 352 893 338 c 128,-1,78
 889 324 889 324 881 299 c 1,79,80
 903 324 903 324 955.5 366 c 128,-1,81
 1008 408 1008 408 1072.5 454 c 128,-1,82
 1137 500 1137 500 1206.5 544 c 128,-1,83
 1276 588 1276 588 1340.5 619.5 c 128,-1,84
 1405 651 1405 651 1454 668 c 0,85,86
 1483 678 1483 678 1503 678 c 0,87,88
 1520 678 1520 678 1532 672 c 1,89,90
 1563 668 1563 668 1599.5 658.5 c 128,-1,91
 1636 649 1636 649 1672 635 c 128,-1,92
 1708 621 1708 621 1742 602.5 c 128,-1,93
 1776 584 1776 584 1802.5 562.5 c 128,-1,94
 1829 541 1829 541 1844.5 518.5 c 128,-1,95
 1860 496 1860 496 1860 471 c 0,96,0
 1860 399 1860 399 1847.5 355 c 128,-1,1
1667 344 m 0,97,98
 1653 362 1653 362 1616 380.5 c 128,-1,99
 1579 399 1579 399 1532 416.5 c 128,-1,100
 1485 434 1485 434 1444 442 c 1,101,102
 1401 442 1401 442 1338.5 422.5 c 128,-1,103
 1276 403 1276 403 1204.5 368.5 c 128,-1,104
 1133 334 1133 334 1053 282.5 c 128,-1,105
 973 231 973 231 895 168 c 1,106,107
 999 172 999 172 1075 176 c 128,-1,108
 1151 180 1151 180 1202 183 c 128,-1,109
 1253 186 1253 186 1285 189.5 c 128,-1,110
 1317 193 1317 193 1334.5 195 c 128,-1,111
 1352 197 1352 197 1360 198 c 128,-1,112
 1368 199 1368 199 1372 201 c 0,113,114
 1401 205 1401 205 1420.5 209 c 128,-1,115
 1440 213 1440 213 1458.5 216 c 128,-1,116
 1477 219 1477 219 1496.5 225 c 128,-1,117
 1516 231 1516 231 1539.5 242.5 c 128,-1,118
 1563 254 1563 254 1593.5 271.5 c 128,-1,119
 1624 289 1624 289 1663 311 c 0,120,121
 1675 317 1675 317 1675 328 c 0,122,123
 1675 334 1675 334 1667 344 c 0,97,98
EndSplineSet
EndChar

StartChar: NameMe.94
Encoding: 94 -1 64
Width: 1775
Flags: W
HStem: -29 193<752 1248.4> 0 215<1682.32 1788>
VStem: 705 110<353.75 1323.19>
LayerCount: 2
Fore
SplineSet
1747 -2 m 128,-1,1
 1718 -4 1718 -4 1679 -6 c 128,-1,2
 1640 -8 1640 -8 1596 -10 c 128,-1,3
 1552 -12 1552 -12 1513.5 -14 c 128,-1,4
 1475 -16 1475 -16 1445 -17 c 128,-1,5
 1415 -18 1415 -18 1405 -18 c 0,6,7
 1354 -20 1354 -20 1313 -20 c 128,-1,8
 1272 -20 1272 -20 1236 -21.5 c 128,-1,9
 1200 -23 1200 -23 1164 -24 c 128,-1,10
 1128 -25 1128 -25 1088.5 -25 c 128,-1,11
 1049 -25 1049 -25 1000.5 -26 c 128,-1,12
 952 -27 952 -27 893 -29 c 0,13,14
 881 -29 881 -29 866.5 -29 c 128,-1,15
 852 -29 852 -29 822.5 -31 c 128,-1,16
 793 -33 793 -33 740.5 -35 c 128,-1,17
 688 -37 688 -37 598 -41 c 1,18,-1
 104 117 l 1,19,20
 82 135 82 135 68.5 147.5 c 128,-1,21
 55 160 55 160 54 167 c 128,-1,22
 53 174 53 174 64.5 177 c 128,-1,23
 76 180 76 180 104 184 c 2,24,-1
 485 174 l 1,25,26
 504 180 504 180 523.5 187.5 c 128,-1,27
 543 195 543 195 565.5 209 c 128,-1,28
 588 223 588 223 619.5 247.5 c 128,-1,29
 651 272 651 272 700 311 c 1,30,31
 702 432 702 432 705 528 c 0,32,33
 705 602 l 0,34,35
 705 655 705 655 702 709 c 0,36,37
 700 793 700 793 696 872.5 c 128,-1,38
 692 952 692 952 686 1041 c 128,-1,39
 680 1130 680 1130 672 1235.5 c 128,-1,40
 664 1341 664 1341 651 1481 c 1,41,42
 647 1485 647 1485 642 1493 c 128,-1,43
 637 1501 637 1501 633 1518.5 c 128,-1,44
 629 1536 629 1536 623.5 1562.5 c 128,-1,45
 618 1589 618 1589 612 1634 c 1,46,47
 612 1649 612 1649 624.5 1684.5 c 128,-1,48
 637 1720 637 1720 650.5 1757 c 128,-1,49
 664 1794 664 1794 679 1822.5 c 128,-1,50
 694 1851 694 1851 707 1851 c 0,51,52
 709 1851 709 1851 711 1833 c 128,-1,53
 713 1815 713 1815 719 1789 c 128,-1,54
 725 1763 725 1763 732 1736.5 c 128,-1,55
 739 1710 739 1710 754 1692 c 0,56,57
 772 1671 772 1671 787.5 1660 c 128,-1,58
 803 1649 803 1649 813 1639.5 c 128,-1,59
 823 1630 823 1630 829.5 1621 c 128,-1,60
 836 1612 836 1612 836 1599 c 0,61,62
 831 1587 831 1587 825 1574 c 128,-1,63
 819 1561 819 1561 812 1544.5 c 128,-1,64
 805 1528 805 1528 796.5 1512.5 c 128,-1,65
 788 1497 788 1497 784 1487 c 1,66,67
 793 1376 793 1376 799 1282 c 128,-1,68
 805 1188 805 1188 808 1106 c 128,-1,69
 811 1024 811 1024 814 952.5 c 128,-1,70
 817 881 817 881 817 815 c 256,71,72
 817 750 817 750 815 691.5 c 128,-1,73
 813 633 813 633 809 576.5 c 128,-1,74
 805 520 805 520 799 464 c 128,-1,75
 793 408 793 408 780 352 c 1,76,77
 920 444 920 444 1018 500.5 c 128,-1,78
 1116 557 1116 557 1183.5 591 c 128,-1,79
 1251 625 1251 625 1297 636 c 128,-1,80
 1343 647 1343 647 1376 649 c 1,81,82
 1427 643 1427 643 1482.5 621.5 c 128,-1,83
 1538 600 1538 600 1581 567.5 c 128,-1,84
 1624 535 1624 535 1651.5 496 c 128,-1,85
 1679 457 1679 457 1679 420 c 0,86,87
 1679 412 1679 412 1672 386 c 128,-1,88
 1665 360 1665 360 1648.5 325.5 c 128,-1,89
 1632 291 1632 291 1602.5 252 c 128,-1,90
 1573 213 1573 213 1530 180 c 1,91,-1
 1788 215 l 1,92,-1
 1788 0 l 1,93,0
 1776 0 1776 0 1747 -2 c 128,-1,1
1492 334 m 128,-1,95
 1481 344 1481 344 1464.5 356.5 c 128,-1,96
 1448 369 1448 369 1428.5 380 c 128,-1,97
 1409 391 1409 391 1388.5 403.5 c 128,-1,98
 1368 416 1368 416 1351.5 423 c 128,-1,99
 1335 430 1335 430 1327 432 c 0,100,101
 1307 436 1307 436 1282 436 c 128,-1,102
 1257 436 1257 436 1231 432 c 0,103,104
 1180 424 1180 424 1127.5 404.5 c 128,-1,105
 1075 385 1075 385 1024 355.5 c 128,-1,106
 973 326 973 326 925 293 c 128,-1,107
 877 260 877 260 832.5 227.5 c 128,-1,108
 788 195 788 195 752 164 c 1,109,110
 885 168 885 168 984 174 c 128,-1,111
 1083 180 1083 180 1160 192.5 c 128,-1,112
 1237 205 1237 205 1289 218 c 128,-1,113
 1341 231 1341 231 1380 247.5 c 128,-1,114
 1419 264 1419 264 1450 281.5 c 128,-1,115
 1481 299 1481 299 1507 319 c 1,116,94
 1503 324 1503 324 1492 334 c 128,-1,95
EndSplineSet
EndChar

StartChar: NameMe.95
Encoding: 95 -1 65
Width: 1265
Flags: W
HStem: 0 215<0 191.817> 492 192<709.886 942.058>
VStem: 268 94<372.53 914.887>
LayerCount: 2
Fore
SplineSet
1208 500 m 0,0,1
 1208 444 1208 444 1186.5 393 c 128,-1,2
 1165 342 1165 342 1128.5 297 c 128,-1,3
 1092 252 1092 252 1043.5 214 c 128,-1,4
 995 176 995 176 941 146.5 c 128,-1,5
 887 117 887 117 829.5 96.5 c 128,-1,6
 772 76 772 76 721 68 c 0,7,8
 651 55 651 55 581.5 44 c 128,-1,9
 512 33 512 33 438.5 23.5 c 128,-1,10
 365 14 365 14 285 8 c 0,11,12
 190 0 190 0 113 0 c 2,13,-1
 0 0 l 1,14,-1
 0 215 l 1,15,-1
 145 215 l 1,16,17
 174 242 174 242 202.5 267.5 c 128,-1,18
 231 293 231 293 260 317 c 1,19,20
 266 336 266 336 268 379 c 0,21,22
 268 387 268 387 268 397 c 0,23,24
 268 434 268 434 264 479 c 0,25,26
 260 541 260 541 254 614.5 c 128,-1,27
 248 688 248 688 239.5 766 c 128,-1,28
 231 844 231 844 222 925 c 128,-1,29
 213 1006 213 1006 205 1081.5 c 128,-1,30
 197 1157 197 1157 188.5 1224.5 c 128,-1,31
 180 1292 180 1292 172 1341 c 1,32,33
 168 1354 168 1354 163 1369 c 128,-1,34
 158 1384 158 1384 152.5 1404.5 c 128,-1,35
 147 1425 147 1425 143 1457 c 128,-1,36
 139 1489 139 1489 133 1534 c 1,37,38
 137 1565 137 1565 144.5 1594.5 c 128,-1,39
 152 1624 152 1624 164 1649.5 c 128,-1,40
 176 1675 176 1675 190.5 1695.5 c 128,-1,41
 205 1716 205 1716 219 1724 c 1,42,43
 223 1726 223 1726 225 1719 c 128,-1,44
 227 1712 227 1712 230 1700 c 128,-1,45
 233 1688 233 1688 236.5 1673.5 c 128,-1,46
 240 1659 240 1659 246 1647 c 1,47,48
 281 1616 281 1616 300 1594.5 c 128,-1,49
 319 1573 319 1573 330.5 1558.5 c 128,-1,50
 342 1544 342 1544 344 1540 c 128,-1,51
 346 1536 346 1536 346 1534 c 1,52,53
 346 1532 l 0,54,55
 346 1528 346 1528 342 1507 c 0,56,57
 336 1489 336 1489 326.5 1456 c 128,-1,58
 317 1423 317 1423 306 1389.5 c 128,-1,59
 295 1356 295 1356 281 1337 c 1,60,61
 297 1217 297 1217 308 1120.5 c 128,-1,62
 319 1024 319 1024 328.5 948 c 128,-1,63
 338 872 338 872 345 814 c 128,-1,64
 352 756 352 756 356 710 c 128,-1,65
 360 664 360 664 362 625 c 0,66,67
 365 600 365 600 365 578 c 0,68,69
 365 559 365 559 362 545 c 0,70,71
 360 504 360 504 357 462 c 128,-1,72
 354 420 354 420 348 371 c 1,73,-1
 379 387 l 1,74,75
 461 457 461 457 520.5 505 c 128,-1,76
 580 553 580 553 624 584.5 c 128,-1,77
 668 616 668 616 702.5 635.5 c 128,-1,78
 737 655 737 655 771 665.5 c 128,-1,79
 805 676 805 676 841 680 c 128,-1,80
 877 684 877 684 924 684 c 0,81,82
 940 684 940 684 967.5 678 c 128,-1,83
 995 672 995 672 1027 659.5 c 128,-1,84
 1059 647 1059 647 1091.5 631.5 c 128,-1,85
 1124 616 1124 616 1150 594.5 c 128,-1,86
 1176 573 1176 573 1192 549.5 c 128,-1,87
 1208 526 1208 526 1208 500 c 0,0,1
1030 369 m 1,88,89
 991 410 991 410 959.5 434.5 c 128,-1,90
 928 459 928 459 900 470 c 128,-1,91
 872 481 872 481 848.5 485 c 128,-1,92
 825 489 825 489 805 492 c 1,93,94
 760 492 760 492 698.5 467 c 128,-1,95
 637 442 637 442 570.5 402 c 128,-1,96
 504 362 504 362 439.5 312 c 128,-1,97
 375 262 375 262 322 213 c 1,98,99
 420 215 420 215 512 227.5 c 128,-1,100
 604 240 604 240 686 257 c 128,-1,101
 768 274 768 274 835.5 291.5 c 128,-1,102
 903 309 903 309 949 325.5 c 128,-1,103
 995 342 995 342 1016 354 c 0,104,105
 1032 362 1032 362 1032 367 c 0,106,-1
 1030 369 l 1,88,89
EndSplineSet
EndChar

StartChar: NameMe.96
Encoding: 96 -1 66
Width: 1204
Flags: W
HStem: 0 215<0 82 1057 1221> 0 178<860 1218.44> 27 209<283.844 573.359> 555 238<721.766 913.875>
VStem: 213 84<397 769.209>
LayerCount: 2
Fore
SplineSet
86 1530 m 0,0,1
 80 1565 80 1565 68 1622 c 1,2,3
 96 1683 96 1683 111.5 1722 c 128,-1,4
 127 1761 127 1761 138.5 1782.5 c 128,-1,5
 150 1804 150 1804 156 1810.5 c 128,-1,6
 162 1817 162 1817 166 1817 c 1,7,8
 170 1792 170 1792 177 1771.5 c 128,-1,9
 184 1751 184 1751 194.5 1732.5 c 128,-1,10
 205 1714 205 1714 220.5 1694.5 c 128,-1,11
 236 1675 236 1675 256 1657 c 0,12,13
 313 1597 313 1597 315 1577 c 1,14,15
 315 1561 315 1561 307 1536 c 128,-1,16
 299 1511 299 1511 289 1484.5 c 128,-1,17
 279 1458 279 1458 261.5 1434.5 c 128,-1,18
 244 1411 244 1411 223 1401 c 1,19,20
 240 1276 240 1276 250 1175.5 c 128,-1,21
 260 1075 260 1075 268 991 c 128,-1,22
 276 907 276 907 282.5 835.5 c 128,-1,23
 289 764 289 764 292 694.5 c 128,-1,24
 295 625 295 625 296 552 c 128,-1,25
 297 479 297 479 297 397 c 1,26,27
 399 487 399 487 475 552.5 c 128,-1,28
 551 618 551 618 605 662.5 c 128,-1,29
 659 707 659 707 697 732.5 c 128,-1,30
 735 758 735 758 761.5 771 c 128,-1,31
 788 784 788 784 807.5 788.5 c 128,-1,32
 827 793 827 793 848 793 c 0,33,34
 885 793 885 793 931 774.5 c 128,-1,35
 977 756 977 756 1017 725 c 128,-1,36
 1057 694 1057 694 1083.5 656 c 128,-1,37
 1110 618 1110 618 1110 580 c 0,38,39
 1110 541 1110 541 1091.5 488.5 c 128,-1,40
 1073 436 1073 436 1040.5 380 c 128,-1,41
 1008 324 1008 324 961.5 270.5 c 128,-1,42
 915 217 915 217 860 178 c 1,43,44
 920 178 920 178 1057 205 c 2,45,-1
 1221 215 l 1,46,-1
 1221 0 l 1,47,-1
 936 0 l 2,48,49
 909 0 909 0 811 -6 c 0,50,51
 768 -8 768 -8 735 -8 c 256,52,53
 705 -8 705 -8 670 -4 c 128,-1,54
 635 0 635 0 575 16 c 1,55,56
 508 20 508 20 464 23.5 c 128,-1,57
 420 27 420 27 387 27 c 256,58,59
 356 27 356 27 333.5 26 c 128,-1,60
 311 25 311 25 293 20 c 2,61,-1
 0 0 l 1,62,-1
 0 215 l 1,63,-1
 82 219 l 1,64,-1
 213 346 l 1,65,66
 211 416 211 416 204 507 c 128,-1,67
 197 598 197 598 188.5 697.5 c 128,-1,68
 180 797 180 797 168 898 c 128,-1,69
 156 999 156 999 145.5 1091.5 c 128,-1,70
 135 1184 135 1184 127 1260 c 0,71,72
 111 1380 111 1380 111 1384 c 0,73,74
 111 1389 111 1389 104 1432 c 0,75,76
 96 1483 96 1483 86 1530 c 0,0,1
948 465 m 1,77,78
 915 520 915 520 877.5 537.5 c 128,-1,79
 840 555 840 555 797 555 c 2,80,-1
 741 555 l 2,81,82
 713 555 713 555 671 539.5 c 128,-1,83
 629 524 629 524 572.5 486.5 c 128,-1,84
 516 449 516 449 444.5 388.5 c 128,-1,85
 373 328 373 328 283 236 c 1,86,87
 387 236 387 236 489.5 258.5 c 128,-1,88
 592 281 592 281 698 324 c 0,89,90
 915 403 915 403 948 465 c 1,77,78
EndSplineSet
EndChar

StartChar: NameMe.97
Encoding: 97 -1 67
Width: 1638
Flags: W
HStem: -1335 194<684.007 1196.09> -1135 29<1525.99 1543> 831 168<291.014 616.574>
VStem: 20 111<-792.205 -384.5> 86 115<-422.275 -219.328 575.263 763.8>
LayerCount: 2
Fore
SplineSet
1393 -1221 m 128,-1,1
 1305 -1260 1305 -1260 1202.5 -1288.5 c 128,-1,2
 1100 -1317 1100 -1317 989 -1327 c 0,3,4
 905 -1335 905 -1335 821 -1335 c 0,5,6
 797 -1335 797 -1335 768 -1335 c 0,7,8
 659 -1331 659 -1331 554 -1308.5 c 128,-1,9
 449 -1286 449 -1286 358.5 -1241 c 128,-1,10
 268 -1196 268 -1196 196.5 -1127.5 c 128,-1,11
 125 -1059 125 -1059 80 -965 c 0,12,13
 39 -872 39 -872 27 -770 c 0,14,15
 20 -723 20 -723 20 -672 c 0,16,17
 20 -618 20 -618 29 -563 c 0,18,19
 41 -457 41 -457 75 -350.5 c 128,-1,20
 109 -244 109 -244 155 -142.5 c 128,-1,21
 201 -41 201 -41 256 51 c 128,-1,22
 311 143 311 143 371 219 c 1,23,24
 270 250 270 250 205.5 309.5 c 128,-1,25
 141 369 141 369 113 444 c 0,26,27
 86 510 86 510 86 582 c 0,28,29
 86 590 86 590 86 600 c 0,30,31
 88 682 88 682 124 759 c 128,-1,32
 160 836 160 836 224.5 900.5 c 128,-1,33
 289 965 289 965 381 999 c 1,34,35
 393 999 393 999 406 999 c 0,36,37
 465 999 465 999 506 991 c 0,38,39
 559 983 559 983 601 962.5 c 128,-1,40
 643 942 643 942 680 909.5 c 128,-1,41
 717 877 717 877 760 827 c 0,42,43
 776 811 776 811 776 797 c 0,44,45
 776 782 776 782 766 774 c 128,-1,46
 756 766 756 766 739 764 c 0,47,-1
 735 764 l 0,48,49
 723 764 723 764 713 772 c 0,50,51
 680 791 680 791 651.5 805 c 128,-1,52
 623 819 623 819 584 827 c 0,53,54
 555 831 555 831 518 831 c 0,55,56
 506 831 506 831 496 831 c 0,57,58
 444 829 444 829 369 815 c 0,59,60
 332 811 332 811 302 797.5 c 128,-1,61
 272 784 272 784 249.5 768 c 128,-1,62
 227 752 227 752 216 734.5 c 128,-1,63
 205 717 205 717 201 700 c 0,64,65
 201 696 201 696 201 690 c 0,66,67
 201 657 201 657 217 621 c 0,68,69
 240 571 240 571 290 529 c 128,-1,70
 340 487 340 487 420 454.5 c 128,-1,71
 500 422 500 422 612 412 c 1,72,73
 709 469 709 469 777.5 509 c 128,-1,74
 846 549 846 549 891 574.5 c 128,-1,75
 936 600 936 600 961.5 614.5 c 128,-1,76
 987 629 987 629 1001.5 635 c 128,-1,77
 1016 641 1016 641 1020 642 c 128,-1,78
 1024 643 1024 643 1026 643 c 0,79,80
 1036 643 1036 643 1038 627 c 0,81,-1
 1038 623 l 0,82,83
 1038 604 1038 604 1032 580 c 0,84,85
 1028 553 1028 553 1017 522.5 c 128,-1,86
 1006 492 1006 492 994.5 466 c 128,-1,87
 983 440 983 440 974 425 c 128,-1,88
 965 410 965 410 961 416 c 1,89,90
 850 344 850 344 771 297 c 128,-1,91
 692 250 692 250 636 218 c 128,-1,92
 580 186 580 186 542 162.5 c 128,-1,93
 504 139 504 139 474 115.5 c 128,-1,94
 444 92 444 92 417.5 60.5 c 128,-1,95
 391 29 391 29 361.5 -19.5 c 128,-1,96
 332 -68 332 -68 291 -139.5 c 128,-1,97
 250 -211 250 -211 190 -315 c 1,98,99
 139 -457 139 -457 131 -575 c 0,100,101
 131 -590 131 -590 131 -602 c 0,102,103
 131 -711 131 -711 178 -799 c 0,104,105
 227 -897 227 -897 343 -972 c 128,-1,106
 459 -1047 459 -1047 647 -1092 c 0,107,108
 768 -1106 768 -1106 856 -1117 c 128,-1,109
 944 -1128 944 -1128 1014.5 -1133.5 c 128,-1,110
 1085 -1139 1085 -1139 1145 -1141 c 0,111,112
 1155 -1141 1155 -1141 1169 -1141 c 0,113,114
 1217 -1141 1217 -1141 1260 -1137 c 0,115,116
 1321 -1133 1321 -1133 1384.5 -1125.5 c 128,-1,117
 1448 -1118 1448 -1118 1534 -1106 c 1,118,119
 1546 -1120 1546 -1120 1546 -1135 c 1,120,0
 1481 -1182 1481 -1182 1393 -1221 c 128,-1,1
EndSplineSet
EndChar

StartChar: NameMe.98
Encoding: 98 -1 68
Width: 804
Flags: W
HStem: -1321 246<585.735 1147.31> 0 21G<795.5 823> 213 2<823 824.999>
VStem: 29 94<-674.483 -161.775> 823 2<213.5 215>
LayerCount: 2
Fore
SplineSet
1173.5 -1267.5 m 128,-1,1
 1124 -1284 1124 -1284 1076 -1296.5 c 128,-1,2
 1028 -1309 1028 -1309 984 -1315 c 128,-1,3
 940 -1321 940 -1321 907 -1321 c 0,4,5
 676 -1321 676 -1321 510 -1269 c 128,-1,6
 344 -1217 344 -1217 236.5 -1112.5 c 128,-1,7
 129 -1008 129 -1008 79 -853 c 128,-1,8
 29 -698 29 -698 29 -494 c 0,9,10
 29 -381 29 -381 41 -278.5 c 128,-1,11
 53 -176 53 -176 89 -82 c 128,-1,12
 125 12 125 12 186.5 100 c 128,-1,13
 248 188 248 188 348 274 c 1,14,15
 334 291 334 291 318.5 301 c 128,-1,16
 303 311 303 311 281 315 c 0,17,18
 262 319 262 319 238 319 c 0,19,20
 231 319 231 319 225 319 c 0,21,22
 195 317 195 317 147 311 c 1,23,24
 156 367 156 367 163 401.5 c 128,-1,25
 170 436 170 436 175 458.5 c 128,-1,26
 180 481 180 481 183 493.5 c 128,-1,27
 186 506 186 506 188 512 c 1,28,29
 236 551 236 551 275.5 571.5 c 128,-1,30
 315 592 315 592 351 603 c 128,-1,31
 387 614 387 614 424 617.5 c 128,-1,32
 461 621 461 621 500 621 c 0,33,34
 545 621 545 621 586 608.5 c 128,-1,35
 627 596 627 596 659.5 573.5 c 128,-1,36
 692 551 692 551 711.5 518 c 128,-1,37
 731 485 731 485 731 449 c 0,38,39
 731 436 731 436 727 413.5 c 128,-1,40
 723 391 723 391 714 368.5 c 128,-1,41
 705 346 705 346 692.5 322.5 c 128,-1,42
 680 299 680 299 668 285 c 1,43,44
 672 272 672 272 698.5 258 c 128,-1,45
 725 244 725 244 752.5 233.5 c 128,-1,46
 780 223 780 223 805 217 c 0,47,48
 817 213 817 213 821 213 c 128,-1,49
 825 213 825 213 825 215 c 0,50,-1
 823 215 l 1,51,-1
 823 0 l 1,52,53
 768 4 768 4 730 13.5 c 128,-1,54
 692 23 692 23 656.5 39 c 128,-1,55
 621 55 621 55 583 86 c 128,-1,56
 545 117 545 117 483 160 c 1,57,58
 428 135 428 135 363.5 89 c 128,-1,59
 299 43 299 43 244.5 -27.5 c 128,-1,60
 190 -98 190 -98 156 -190 c 0,61,62
 123 -279 123 -279 123 -385 c 0,63,-1
 123 -397 l 0,64,65
 123 -416 123 -416 123 -432 c 0,66,67
 123 -528 123 -528 143 -610 c 0,68,69
 172 -707 172 -707 226.5 -783.5 c 128,-1,70
 281 -860 281 -860 358.5 -916.5 c 128,-1,71
 436 -973 436 -973 528.5 -1010 c 128,-1,72
 621 -1047 621 -1047 725 -1063 c 0,73,74
 811 -1075 811 -1075 897 -1075 c 0,75,76
 920 -1075 920 -1075 940 -1075 c 0,77,78
 1069 -1071 1069 -1071 1149 -1069 c 128,-1,79
 1229 -1067 1229 -1067 1275 -1065 c 128,-1,80
 1321 -1063 1321 -1063 1344.5 -1060 c 128,-1,81
 1368 -1057 1368 -1057 1389 -1055 c 0,82,83
 1456 -1049 1456 -1049 1517.5 -1042.5 c 128,-1,84
 1579 -1036 1579 -1036 1649 -1030 c 1,85,-1
 1649 -1042 l 0,86,87
 1649 -1065 1649 -1065 1630 -1075 c 1,88,-1
 1268 -1233 l 2,89,0
 1223 -1251 1223 -1251 1173.5 -1267.5 c 128,-1,1
EndSplineSet
EndChar

StartChar: NameMe.99
Encoding: 99 -1 69
Width: 933
Flags: W
HStem: 0 215<0 116.749> 690 172<259.273 555.341>
VStem: 33 135<485.426 584.221>
LayerCount: 2
Fore
SplineSet
936 399 m 1,0,1
 932 389 932 389 926 378 c 128,-1,2
 920 367 920 367 909.5 349.5 c 128,-1,3
 899 332 899 332 884.5 308.5 c 128,-1,4
 870 285 870 285 846 252 c 1,5,6
 797 227 797 227 724 199.5 c 128,-1,7
 651 172 651 172 573.5 146.5 c 128,-1,8
 496 121 496 121 416 96.5 c 128,-1,9
 336 72 336 72 273.5 54.5 c 128,-1,10
 211 37 211 37 169 25 c 0,11,-1
 127 12 l 0,12,13
 111 12 111 12 99.5 10 c 128,-1,14
 88 8 88 8 74.5 6 c 128,-1,15
 61 4 61 4 45 2 c 128,-1,16
 29 0 29 0 0 0 c 1,17,-1
 0 215 l 1,18,19
 18 213 18 213 33 213 c 0,20,21
 39 213 39 213 43 215 c 0,22,23
 61 215 61 215 74.5 217 c 128,-1,24
 88 219 88 219 98.5 224 c 128,-1,25
 109 229 109 229 117 236 c 1,26,27
 88 268 88 268 69.5 298 c 128,-1,28
 51 328 51 328 44 356.5 c 128,-1,29
 37 385 37 385 35 412.5 c 128,-1,30
 33 440 33 440 33 469 c 1,31,32
 80 616 80 616 153.5 713.5 c 128,-1,33
 227 811 227 811 315 848 c 1,34,35
 367 862 367 862 399 862 c 0,36,37
 401 862 401 862 406 862 c 0,38,39
 440 860 440 860 469 856 c 0,40,41
 487 852 487 852 518 837.5 c 128,-1,42
 549 823 549 823 581.5 799.5 c 128,-1,43
 614 776 614 776 647 746.5 c 128,-1,44
 680 717 680 717 709 680 c 0,45,46
 731 651 731 651 737 643 c 128,-1,47
 743 635 743 635 743 629 c 1,48,49
 727 621 727 621 718 619.5 c 128,-1,50
 709 618 709 618 700.5 619.5 c 128,-1,51
 692 621 692 621 685 625 c 128,-1,52
 678 629 678 629 668 635 c 0,53,54
 639 649 639 649 621.5 658.5 c 128,-1,55
 604 668 604 668 589.5 672 c 128,-1,56
 575 676 575 676 565 678 c 128,-1,57
 555 680 555 680 549 684 c 0,58,59
 520 690 520 690 487 690 c 0,60,61
 481 690 481 690 475 688 c 0,62,63
 438 688 438 688 399 682 c 128,-1,64
 360 676 360 676 322.5 665.5 c 128,-1,65
 285 655 285 655 252 644 c 128,-1,66
 219 633 219 633 197.5 620.5 c 128,-1,67
 176 608 176 608 168 596 c 1,68,69
 168 594 l 0,70,71
 168 573 168 573 180 545 c 0,72,73
 195 512 195 512 217.5 478 c 128,-1,74
 240 444 240 444 270.5 411.5 c 128,-1,75
 301 379 301 379 338 353.5 c 128,-1,76
 375 328 375 328 412 313 c 0,77,78
 442 303 442 303 469 303 c 0,79,80
 489 303 l 1,81,82
 608 338 608 338 679 359.5 c 128,-1,83
 750 381 750 381 790.5 392 c 128,-1,84
 831 403 831 403 852.5 410.5 c 128,-1,85
 874 418 874 418 889 424 c 1,86,87
 905 424 l 0,88,89
 922 424 922 424 928 420 c 0,90,91
 936 412 936 412 936 399 c 1,0,1
EndSplineSet
EndChar

StartChar: NameMe.100
Encoding: 100 -1 70
Width: 776
Flags: W
HStem: 0 215<0 192.59 621.094 799>
LayerCount: 2
Fore
SplineSet
799 0 m 1,0,1
 776 -2 776 -2 758 -2 c 0,2,3
 705 -2 705 -2 664 8 c 0,4,5
 610 18 610 18 567 42 c 128,-1,6
 524 66 524 66 486.5 100.5 c 128,-1,7
 449 135 449 135 401 180 c 1,8,9
 344 135 344 135 294 101.5 c 128,-1,10
 244 68 244 68 197 46.5 c 128,-1,11
 150 25 150 25 101.5 12.5 c 128,-1,12
 53 0 53 0 0 0 c 1,13,-1
 0 215 l 1,14,15
 29 215 29 215 71 218 c 128,-1,16
 113 221 113 221 159 228.5 c 128,-1,17
 205 236 205 236 248 248 c 128,-1,18
 291 260 291 260 315 281 c 1,19,20
 236 365 236 365 199 365 c 0,21,22
 176 360 176 360 161.5 358 c 128,-1,23
 147 356 147 356 137 353 c 128,-1,24
 127 350 127 350 115.5 345 c 128,-1,25
 104 340 104 340 88 336 c 1,26,27
 100 395 100 395 112.5 439 c 128,-1,28
 125 483 125 483 141.5 516 c 128,-1,29
 158 549 158 549 183.5 568.5 c 128,-1,30
 209 588 209 588 252 604 c 1,31,32
 283 610 283 610 303.5 614 c 128,-1,33
 324 618 324 618 339 621.5 c 128,-1,34
 354 625 354 625 363.5 625 c 128,-1,35
 373 625 373 625 381 625 c 0,36,37
 391 627 391 627 401 627 c 0,38,39
 444 627 444 627 487 614 c 0,40,41
 545 600 545 600 591 574.5 c 128,-1,42
 637 549 637 549 666.5 518 c 128,-1,43
 696 487 696 487 696 461 c 0,44,45
 696 432 696 432 684 408.5 c 128,-1,46
 672 385 672 385 654.5 363.5 c 128,-1,47
 637 342 637 342 616.5 322.5 c 128,-1,48
 596 303 596 303 580 285 c 1,49,50
 616 262 616 262 642 247.5 c 128,-1,51
 668 233 668 233 691.5 225 c 128,-1,52
 715 217 715 217 739.5 215 c 128,-1,53
 764 213 764 213 799 213 c 1,54,-1
 799 0 l 1,0,1
EndSplineSet
EndChar

StartChar: NameMe.101
Encoding: 101 -1 71
Width: 1892
Flags: W
HStem: -74 183<418.652 1184.52> 422 201<1495.25 1570.32>
VStem: 41 135<291.257 511.821> 1724 95<337.43 508>
LayerCount: 2
Fore
SplineSet
1819 492 m 0,0,1
 1819 360 1819 360 1740 256 c 128,-1,2
 1661 152 1661 152 1515.5 78 c 128,-1,3
 1370 4 1370 4 1164 -35 c 128,-1,4
 958 -74 958 -74 702 -74 c 0,5,6
 567 -74 567 -74 453.5 -51.5 c 128,-1,7
 340 -29 340 -29 255 17 c 128,-1,8
 170 63 170 63 114.5 132 c 128,-1,9
 59 201 59 201 43 293 c 0,10,11
 41 315 41 315 41 340 c 0,12,13
 41 377 41 377 47 410 c 0,14,15
 63 469 63 469 89 518 c 128,-1,16
 115 567 115 567 143.5 605 c 128,-1,17
 172 643 172 643 186 668 c 1,18,-1
 223 668 l 1,19,20
 227 666 227 666 227 655 c 0,21,22
 227 647 227 647 223 635 c 0,23,24
 217 604 217 604 207 566 c 128,-1,25
 197 528 197 528 186.5 488.5 c 128,-1,26
 176 449 176 449 176 424 c 0,27,28
 176 360 176 360 213 302 c 128,-1,29
 250 244 250 244 318.5 201 c 128,-1,30
 387 158 387 158 485.5 133.5 c 128,-1,31
 584 109 584 109 702 109 c 0,32,33
 889 115 889 115 1035.5 132.5 c 128,-1,34
 1182 150 1182 150 1295.5 175.5 c 128,-1,35
 1409 201 1409 201 1491 232.5 c 128,-1,36
 1573 264 1573 264 1624 296 c 128,-1,37
 1675 328 1675 328 1699.5 357.5 c 128,-1,38
 1724 387 1724 387 1724 412 c 0,39,40
 1724 418 1724 418 1720 429 c 128,-1,41
 1716 440 1716 440 1708 453.5 c 128,-1,42
 1700 467 1700 467 1688.5 479.5 c 128,-1,43
 1677 492 1677 492 1663 504 c 1,44,45
 1608 446 1608 446 1548 430 c 0,46,47
 1522 422 1522 422 1495 422 c 128,-1,48
 1468 422 1468 422 1442 432 c 0,49,50
 1395 453 1395 453 1364 503 c 128,-1,51
 1333 553 1333 553 1333 629 c 0,52,53
 1333 655 1333 655 1342.5 692 c 128,-1,54
 1352 729 1352 729 1368 769 c 128,-1,55
 1384 809 1384 809 1403.5 848 c 128,-1,56
 1423 887 1423 887 1446.5 917.5 c 128,-1,57
 1470 948 1470 948 1493 965.5 c 128,-1,58
 1516 983 1516 983 1536 983 c 0,59,60
 1561 983 1561 983 1589.5 956.5 c 128,-1,61
 1618 930 1618 930 1648.5 887 c 128,-1,62
 1679 844 1679 844 1710 788.5 c 128,-1,63
 1741 733 1741 733 1764.5 679 c 128,-1,64
 1788 625 1788 625 1803.5 574.5 c 128,-1,65
 1819 524 1819 524 1819 492 c 0,0,1
1571 676 m 0,66,67
 1571 680 1571 680 1572 686 c 128,-1,68
 1573 692 1573 692 1568 703.5 c 128,-1,69
 1563 715 1563 715 1550.5 730 c 128,-1,70
 1538 745 1538 745 1513 770 c 1,71,72
 1493 764 1493 764 1475.5 749.5 c 128,-1,73
 1458 735 1458 735 1452 692 c 0,74,75
 1448 680 1448 680 1454 665.5 c 128,-1,76
 1460 651 1460 651 1471.5 641 c 128,-1,77
 1483 631 1483 631 1495 625 c 0,78,79
 1503 623 1503 623 1511 623 c 0,80,81
 1518 623 1518 623 1524 625 c 2,82,83
 1528 625 1528 625 1536 629 c 128,-1,84
 1544 633 1544 633 1552.5 638 c 128,-1,85
 1561 643 1561 643 1566 653.5 c 128,-1,86
 1571 664 1571 664 1571 676 c 0,66,67
EndSplineSet
EndChar

StartChar: NameMe.102
Encoding: 102 -1 72
Width: 2041
Flags: W
HStem: 4 209<388.64 1121.4 1882.62 2052> 676 215<1647.96 1760.61>
VStem: 8 117<399.068 603.962> 1808 121<462.885 628.401>
LayerCount: 2
Fore
SplineSet
1808 543 m 0,0,1
 1808 557 1808 557 1796 580.5 c 128,-1,2
 1784 604 1784 604 1766.5 624.5 c 128,-1,3
 1749 645 1749 645 1729.5 660.5 c 128,-1,4
 1710 676 1710 676 1696 676 c 256,5,6
 1679 676 1679 676 1657.5 656.5 c 128,-1,7
 1636 637 1636 637 1613.5 610.5 c 128,-1,8
 1591 584 1591 584 1577 558 c 128,-1,9
 1563 532 1563 532 1561 520 c 1,10,11
 1581 489 1581 489 1596.5 471 c 128,-1,12
 1612 453 1612 453 1623 441.5 c 128,-1,13
 1634 430 1634 430 1641.5 426 c 128,-1,14
 1649 422 1649 422 1655 422 c 0,15,16
 1679 422 1679 422 1706 431 c 128,-1,17
 1733 440 1733 440 1754.5 455.5 c 128,-1,18
 1776 471 1776 471 1790 493.5 c 128,-1,19
 1804 516 1804 516 1808 543 c 0,0,1
1561 174 m 1,20,21
 1393 117 1393 117 1260.5 82 c 128,-1,22
 1128 47 1128 47 1027 30.5 c 128,-1,23
 926 14 926 14 849 9 c 128,-1,24
 772 4 772 4 715 4 c 0,25,26
 373 4 373 4 190.5 110.5 c 128,-1,27
 8 217 8 217 8 432 c 0,28,29
 8 473 8 473 20.5 519 c 128,-1,30
 33 565 33 565 54.5 608 c 128,-1,31
 76 651 76 651 103.5 689 c 128,-1,32
 131 727 131 727 166 752 c 1,33,34
 154 731 154 731 145.5 705.5 c 128,-1,35
 137 680 137 680 132 654.5 c 128,-1,36
 127 629 127 629 126 606.5 c 128,-1,37
 125 584 125 584 125 571 c 2,38,-1
 125 553 l 2,39,40
 125 483 125 483 152.5 424 c 128,-1,41
 180 365 180 365 252 316.5 c 128,-1,42
 324 268 324 268 447.5 240.5 c 128,-1,43
 571 213 571 213 762 213 c 0,44,45
 848 215 848 215 933 225.5 c 128,-1,46
 1018 236 1018 236 1093.5 249 c 128,-1,47
 1169 262 1169 262 1234.5 277.5 c 128,-1,48
 1300 293 1300 293 1348.5 304 c 128,-1,49
 1397 315 1397 315 1421 324 c 0,50,51
 1448 332 l 1,52,53
 1448 371 1448 371 1457 425 c 128,-1,54
 1466 479 1466 479 1483.5 541.5 c 128,-1,55
 1501 604 1501 604 1527.5 665.5 c 128,-1,56
 1554 727 1554 727 1588 777 c 128,-1,57
 1622 827 1622 827 1663 859 c 128,-1,58
 1704 891 1704 891 1751 891 c 0,59,60
 1804 891 1804 891 1841 861 c 128,-1,61
 1878 831 1878 831 1899.5 784 c 128,-1,62
 1921 737 1921 737 1927 678 c 0,63,64
 1929 651 1929 651 1929 627 c 0,65,66
 1929 590 1929 590 1923 553 c 0,67,68
 1917 487 1917 487 1892.5 427 c 128,-1,69
 1868 367 1868 367 1829 315 c 1,70,71
 1833 303 1833 303 1848.5 285.5 c 128,-1,72
 1864 268 1864 268 1890.5 253 c 128,-1,73
 1917 238 1917 238 1958 226.5 c 128,-1,74
 1999 215 1999 215 2052 215 c 1,75,-1
 2052 0 l 1,76,77
 1985 8 1985 8 1932.5 18.5 c 128,-1,78
 1880 29 1880 29 1838 39 c 128,-1,79
 1796 49 1796 49 1762.5 63.5 c 128,-1,80
 1729 78 1729 78 1696 95.5 c 128,-1,81
 1663 113 1663 113 1631 132.5 c 128,-1,82
 1599 152 1599 152 1561 174 c 1,20,21
EndSplineSet
EndChar

StartChar: NameMe.103
Encoding: 103 -1 73
Width: 571
Flags: W
HStem: 0 215<0 236.591> 303 201<237.217 337.737>
VStem: 74 162<504.821 624.459> 338 217<302.097 578.188>
LayerCount: 2
Fore
SplineSet
336 535 m 0,0,1
 338 543 338 543 338 551 c 128,-1,2
 338 559 338 559 336 571 c 0,3,4
 334 596 334 596 315 621 c 1,5,6
 303 631 303 631 293 631 c 128,-1,7
 283 631 283 631 272 625 c 0,8,9
 256 608 256 608 236 553 c 1,10,11
 236 545 236 545 242 535.5 c 128,-1,12
 248 526 248 526 256 519 c 128,-1,13
 264 512 264 512 272.5 508 c 128,-1,14
 281 504 281 504 287 504 c 0,15,16
 299 504 299 504 316.5 509 c 128,-1,17
 334 514 334 514 336 535 c 0,0,1
0 215 m 1,18,19
 109 215 109 215 185.5 221 c 128,-1,20
 262 227 262 227 315.5 239.5 c 128,-1,21
 369 252 369 252 402.5 270.5 c 128,-1,22
 436 289 436 289 453 311 c 1,23,24
 449 340 449 340 440.5 351 c 128,-1,25
 432 362 432 362 426 362 c 256,26,27
 420 362 420 362 416 360 c 1,28,29
 391 340 391 340 369.5 328.5 c 128,-1,30
 348 317 348 317 329.5 312 c 128,-1,31
 311 307 311 307 293.5 305 c 128,-1,32
 276 303 276 303 260 303 c 0,33,34
 223 303 223 303 189.5 318.5 c 128,-1,35
 156 334 156 334 131 358.5 c 128,-1,36
 106 383 106 383 91 413.5 c 128,-1,37
 76 444 76 444 76 477 c 2,38,39
 74 485 74 485 74 494 c 0,40,41
 74 516 74 516 80 543 c 0,42,43
 88 580 88 580 106.5 624 c 128,-1,44
 125 668 125 668 148.5 711 c 128,-1,45
 172 754 172 754 196.5 788.5 c 128,-1,46
 221 823 221 823 246 844 c 0,47,48
 270 864 270 864 291 864 c 0,49,-1
 293 864 l 0,50,51
 336 862 336 862 388 813 c 128,-1,52
 440 764 440 764 487 659 c 0,53,54
 539 549 539 549 553 440 c 0,55,56
 555 401 555 401 555 367 c 0,57,58
 555 299 555 299 541 240 c 0,59,60
 514 150 514 150 445.5 90.5 c 128,-1,61
 377 31 377 31 260 18 c 2,62,-1
 145 0 l 1,63,-1
 0 0 l 1,64,-1
 0 215 l 1,18,19
EndSplineSet
EndChar

StartChar: NameMe.104
Encoding: 104 -1 74
Width: 708
Flags: W
HStem: 0 215<-41 115.9 545.252 721>
VStem: 483 123<379.954 543.969>
LayerCount: 2
Fore
SplineSet
483 479 m 0,0,1
 483 512 483 512 446 545 c 1,2,3
 438 549 438 549 429 549 c 128,-1,4
 420 549 420 549 410 545 c 0,5,6
 391 541 391 541 371.5 526.5 c 128,-1,7
 352 512 352 512 333.5 493.5 c 128,-1,8
 315 475 315 475 302 458.5 c 128,-1,9
 289 442 289 442 279.5 427 c 128,-1,10
 270 412 270 412 268 408 c 1,11,12
 279 389 279 389 290 374.5 c 128,-1,13
 301 360 301 360 314.5 349 c 128,-1,14
 328 338 328 338 338 328.5 c 128,-1,15
 348 319 348 319 356 315 c 1,16,17
 408 350 408 350 434.5 375.5 c 128,-1,18
 461 401 461 401 472 420.5 c 128,-1,19
 483 440 483 440 483 454.5 c 128,-1,20
 483 469 483 469 483 479 c 0,0,1
-41 0 m 1,21,-1
 -41 215 l 1,22,23
 12 215 12 215 47 221 c 128,-1,24
 82 227 82 227 104.5 234.5 c 128,-1,25
 127 242 127 242 137 251 c 128,-1,26
 147 260 147 260 152 270 c 1,27,28
 168 389 168 389 199.5 483.5 c 128,-1,29
 231 578 231 578 268 645.5 c 128,-1,30
 305 713 305 713 346 750.5 c 128,-1,31
 387 788 387 788 428 799 c 1,32,33
 432 799 432 799 438 799 c 0,34,35
 485 799 485 799 518 768 c 0,36,37
 553 735 553 735 584 672 c 1,38,39
 598 604 598 604 604 555 c 0,40,41
 606 528 606 528 606 500 c 0,42,43
 606 479 606 479 604 461 c 0,44,45
 600 416 600 416 585.5 361.5 c 128,-1,46
 571 307 571 307 545 227 c 1,47,48
 545 221 545 221 567 215 c 1,49,-1
 721 215 l 1,50,-1
 721 0 l 1,51,52
 651 0 651 0 612 0 c 128,-1,53
 573 0 573 0 552.5 2 c 128,-1,54
 532 4 532 4 524 5 c 128,-1,55
 516 6 516 6 512 8 c 1,56,57
 469 12 469 12 434 21.5 c 128,-1,58
 399 31 399 31 371.5 41 c 128,-1,59
 344 51 344 51 320.5 63.5 c 128,-1,60
 297 76 297 76 272 88 c 1,61,62
 254 72 254 72 239.5 61.5 c 128,-1,63
 225 51 225 51 213 43 c 128,-1,64
 201 35 201 35 186.5 30 c 128,-1,65
 172 25 172 25 156 18 c 1,66,-1
 -41 0 l 1,21,-1
EndSplineSet
EndChar

StartChar: NameMe.105
Encoding: 105 -1 75
Width: 1445
Flags: W
HStem: -672 211<361.677 855.01> -27 246<967.5 1101.18>
VStem: 33 135<-291.238 -40.2217> 793 127<223.392 386.415> 1268 110<-202.098 62.8043>
LayerCount: 2
Fore
SplineSet
1376 -14 m 0,0,1
 1378 -20 1378 -20 1378 -27 c 0,2,3
 1378 -121 1378 -121 1346 -205 c 0,4,5
 1315 -293 1315 -293 1256.5 -364.5 c 128,-1,6
 1198 -436 1198 -436 1119 -494.5 c 128,-1,7
 1040 -553 1040 -553 950 -592 c 128,-1,8
 860 -631 860 -631 764 -651.5 c 128,-1,9
 668 -672 668 -672 571 -672 c 0,10,11
 461 -672 461 -672 360.5 -640 c 128,-1,12
 260 -608 260 -608 188.5 -552 c 128,-1,13
 117 -496 117 -496 75 -416 c 128,-1,14
 33 -336 33 -336 33 -238 c 0,15,16
 33 -201 33 -201 46 -142.5 c 128,-1,17
 59 -84 59 -84 86 -20.5 c 128,-1,18
 113 43 113 43 148.5 103.5 c 128,-1,19
 184 164 184 164 223 209 c 1,20,21
 233 201 233 201 232 186.5 c 128,-1,22
 231 172 231 172 223 149.5 c 128,-1,23
 215 127 215 127 205 95 c 128,-1,24
 195 63 195 63 185.5 21.5 c 128,-1,25
 176 -20 176 -20 170 -74 c 0,26,27
 168 -104 168 -104 168 -139 c 0,28,29
 168 -168 168 -168 168 -199 c 1,30,31
 209 -324 209 -324 316.5 -392.5 c 128,-1,32
 424 -461 424 -461 596 -461 c 0,33,34
 651 -461 651 -461 724 -448.5 c 128,-1,35
 797 -436 797 -436 870.5 -413.5 c 128,-1,36
 944 -391 944 -391 1015.5 -359.5 c 128,-1,37
 1087 -328 1087 -328 1143.5 -284 c 128,-1,38
 1200 -240 1200 -240 1234 -187.5 c 128,-1,39
 1268 -135 1268 -135 1268 -72 c 0,40,41
 1268 -33 1268 -33 1255.5 4 c 128,-1,42
 1243 41 1243 41 1212 78 c 1,43,44
 1188 49 1188 49 1154 27.5 c 128,-1,45
 1120 6 1120 6 1086.5 -7 c 128,-1,46
 1053 -20 1053 -20 1024 -25 c 0,47,48
 1016 -27 1016 -27 1008 -27 c 0,49,50
 995 -27 995 -27 987 -20 c 1,51,52
 948 -20 948 -20 912.5 -2 c 128,-1,53
 877 16 877 16 850 51 c 128,-1,54
 823 86 823 86 808 133 c 128,-1,55
 793 180 793 180 793 236 c 1,56,57
 811 348 811 348 833.5 428 c 128,-1,58
 856 508 856 508 883.5 560 c 128,-1,59
 911 612 911 612 940 635.5 c 128,-1,60
 969 659 969 659 997 659 c 0,61,62
 1044 659 1044 659 1084 635.5 c 128,-1,63
 1124 612 1124 612 1164 558 c 128,-1,64
 1204 504 1204 504 1242 418 c 128,-1,65
 1280 332 1280 332 1323 205 c 0,66,67
 1352 119 1352 119 1364 64.5 c 128,-1,68
 1376 10 1376 10 1376 -14 c 0,0,1
1102 264 m 0,69,70
 1102 287 1102 287 1090.5 306.5 c 128,-1,71
 1079 326 1079 326 1061.5 345.5 c 128,-1,72
 1044 365 1044 365 1024 380 c 128,-1,73
 1004 395 1004 395 987 406 c 1,74,75
 961 387 961 387 942.5 358.5 c 128,-1,76
 924 330 924 330 920 307 c 1,77,78
 920 293 920 293 927 272.5 c 128,-1,79
 934 252 934 252 967 221 c 1,80,81
 983 219 983 219 997 219 c 0,82,83
 1042 219 1042 219 1067 229 c 0,84,85
 1102 240 1102 240 1102 264 c 0,69,70
EndSplineSet
EndChar

StartChar: NameMe.106
Encoding: 106 -1 76
Width: 1701
Flags: W
HStem: -711 236<454.285 970.64> -68 250<1235.6 1370.81> 0 215<1645.57 1731>
VStem: 80 153<-287.562 -49.148> 1077 654<1.01086 181.275> 1524 127<-245.736 -20.219>
LayerCount: 2
Fore
SplineSet
1271.5 189.5 m 128,-1,1
 1288 182 1288 182 1309 182 c 0,2,3
 1329 182 1329 182 1338.5 183 c 128,-1,4
 1348 184 1348 184 1352 188.5 c 128,-1,5
 1356 193 1356 193 1359 199 c 128,-1,6
 1362 205 1362 205 1372 213 c 1,7,8
 1366 242 1366 242 1358 259 c 128,-1,9
 1350 276 1350 276 1341 285 c 1,10,11
 1323 297 1323 297 1305 297 c 0,12,13
 1292 297 1292 297 1280 291 c 0,14,15
 1253 276 1253 276 1235 227 c 1,16,0
 1255 197 1255 197 1271.5 189.5 c 128,-1,1
1731 0 m 1,17,-1
 1651 0 l 1,18,19
 1642 -76 1642 -76 1635 -124 c 128,-1,20
 1628 -172 1628 -172 1622 -204 c 128,-1,21
 1616 -236 1616 -236 1612 -252 c 128,-1,22
 1608 -268 1608 -268 1604 -276 c 0,23,24
 1585 -311 1585 -311 1538 -355 c 128,-1,25
 1491 -399 1491 -399 1421.5 -447.5 c 128,-1,26
 1352 -496 1352 -496 1266 -544 c 128,-1,27
 1180 -592 1180 -592 1084.5 -628 c 128,-1,28
 989 -664 989 -664 893 -686.5 c 128,-1,29
 797 -709 797 -709 705 -709 c 0,30,31
 700 -711 700 -711 696 -711 c 0,32,33
 571 -711 571 -711 465 -678 c 0,34,35
 350 -643 350 -643 265 -584.5 c 128,-1,36
 180 -526 180 -526 130 -443 c 128,-1,37
 80 -360 80 -360 80 -260 c 0,38,39
 80 -162 80 -162 109 -92 c 0,40,41
 123 -55 123 -55 135 -21.5 c 128,-1,42
 147 12 147 12 164 43 c 0,43,44
 193 113 193 113 227.5 174.5 c 128,-1,45
 262 236 262 236 307 303 c 1,46,47
 317 305 317 305 326 305 c 0,48,49
 334 305 334 305 338 303 c 0,50,51
 350 299 350 299 356 290 c 128,-1,52
 362 281 362 281 363.5 263.5 c 128,-1,53
 365 246 365 246 365 227 c 1,54,55
 315 150 315 150 289.5 95.5 c 128,-1,56
 264 41 264 41 252 0 c 128,-1,57
 240 -41 240 -41 236.5 -68.5 c 128,-1,58
 233 -96 233 -96 233 -123 c 0,59,60
 233 -207 233 -207 268 -271.5 c 128,-1,61
 303 -336 303 -336 365.5 -382 c 128,-1,62
 428 -428 428 -428 514 -451.5 c 128,-1,63
 600 -475 600 -475 705 -475 c 0,64,65
 780 -475 780 -475 872.5 -464 c 128,-1,66
 965 -453 965 -453 1057 -430.5 c 128,-1,67
 1149 -408 1149 -408 1233 -378 c 128,-1,68
 1317 -348 1317 -348 1381.5 -313.5 c 128,-1,69
 1446 -279 1446 -279 1485 -241 c 128,-1,70
 1524 -203 1524 -203 1524 -164 c 128,-1,71
 1524 -125 1524 -125 1524 -100 c 0,72,-1
 1524 -88 l 0,73,74
 1524 -72 1524 -72 1524 -59 c 0,75,76
 1522 -43 1522 -43 1517.5 -35 c 128,-1,77
 1513 -27 1513 -27 1503 -20 c 1,78,79
 1436 -68 1436 -68 1317 -68 c 0,80,81
 1260 -68 1260 -68 1215.5 -55.5 c 128,-1,82
 1171 -43 1171 -43 1140.5 -17.5 c 128,-1,83
 1110 8 1110 8 1093.5 50 c 128,-1,84
 1077 92 1077 92 1077 152 c 0,85,86
 1077 186 1077 186 1083.5 230 c 128,-1,87
 1090 274 1090 274 1102 321.5 c 128,-1,88
 1114 369 1114 369 1132.5 414 c 128,-1,89
 1151 459 1151 459 1176.5 493.5 c 128,-1,90
 1202 528 1202 528 1234 549.5 c 128,-1,91
 1266 571 1266 571 1305 571 c 0,92,93
 1339 571 1339 571 1387.5 540.5 c 128,-1,94
 1436 510 1436 510 1483 459 c 128,-1,95
 1530 408 1530 408 1569 344.5 c 128,-1,96
 1608 281 1608 281 1626 215 c 1,97,-1
 1731 215 l 1,98,-1
 1731 0 l 1,17,-1
EndSplineSet
EndChar

StartChar: NameMe.107
Encoding: 107 -1 77
Width: 1601
Flags: W
HStem: 0 213<340.562 830.358> 645 627
VStem: 27 114<383.706 635.688> 1384 119<1178.34 1654.44> 1419 129<487.395 1007.66>
LayerCount: 2
Fore
SplineSet
467 0 m 16,0,1
 459 0 459 0 449 0 c 0,2,3
 356 0 356 0 283 27 c 0,4,5
 201 55 201 55 143 113 c 0,6,7
 88 168 88 168 57 252 c 0,8,9
 27 338 27 338 27 434 c 0,10,11
 27 440 27 440 29 449 c 0,12,13
 29 467 29 467 41 526 c 0,14,15
 47 571 47 571 66 621 c 0,16,17
 84 668 84 668 111 715 c 0,18,19
 135 760 135 760 174 791 c 0,20,21
 193 805 193 805 201 805 c 0,22,23
 209 807 209 807 209 801 c 256,24,25
 209 793 209 793 205 778 c 0,26,-1
 193 750 l 0,27,28
 184 735 184 735 180 721 c 0,29,30
 174 711 174 711 172 698 c 2,31,32
 145 612 145 612 143 559 c 0,33,34
 141 549 141 549 141 539 c 0,35,36
 141 489 141 489 154 453 c 0,37,38
 168 403 168 403 195 369 c 0,39,40
 219 334 219 334 256 307 c 0,41,42
 305 270 305 270 369 246 c 0,43,44
 428 223 428 223 508 213 c 0,45,46
 532 213 532 213 580 213 c 0,47,48
 621 213 621 213 659 213 c 0,49,50
 739 219 739 219 819 236 c 0,51,52
 899 252 899 252 977 276 c 0,53,54
 1055 299 1055 299 1122 330 c 0,55,56
 1192 360 1192 360 1247 391 c 0,57,58
 1305 424 1305 424 1343 457 c 0,59,60
 1376 481 1376 481 1401 530 c 0,61,62
 1419 571 1419 571 1419 614 c 0,63,64
 1419 616 1419 616 1419 621 c 2,65,-1
 1384 1565 l 2,66,-1
 1384 1569 l 0,67,68
 1384 1585 1384 1585 1397 1608 c 0,69,70
 1409 1630 1409 1630 1423 1649 c 0,71,72
 1440 1665 1440 1665 1456 1679 c 0,73,74
 1473 1694 1473 1694 1487 1704 c 0,75,76
 1499 1712 1499 1712 1503 1716 c 0,77,78
 1507 1456 1507 1456 1511 1260 c 0,79,80
 1518 1065 1518 1065 1526 920 c 0,81,82
 1532 848 1532 848 1536 799 c 0,83,84
 1540 748 1540 748 1544 721 c 0,85,86
 1548 682 1548 682 1548 657 c 0,87,88
 1548 649 1548 649 1544 588 c 0,89,90
 1540 532 1540 532 1516 481 c 0,91,92
 1493 428 1493 428 1444 377 c 0,93,94
 1401 322 1401 322 1335 272 c 0,95,96
 1272 221 1272 221 1196 180 c 0,97,98
 1092 123 1092 123 961 80 c 0,99,100
 825 39 825 39 653 4 c 1,101,-1
 467 0 l 16,0,1
EndSplineSet
Refer: 15 -1 N 1 0 0 1 422 625 2
EndChar

StartChar: NameMe.108
Encoding: 108 -1 78
Width: 1699
Flags: W
HStem: 0 205<1663.63 1741> 16 209<348.722 846.39> 663 627
VStem: 18 117<398.762 653.691> 1384 134<839.934 1508.24> 1403 125<479.172 1223.11>
LayerCount: 2
Fore
SplineSet
1743 0 m 1,0,1
 1659 0 1659 0 1606 20 c 0,2,3
 1556 41 1556 41 1528 96 c 0,4,5
 1499 150 1499 150 1483 238 c 0,6,7
 1466 328 1466 328 1456 440 c 1,8,9
 1438 393 1438 393 1411 358 c 0,10,11
 1389 324 1389 324 1352 293 c 0,12,13
 1319 264 1319 264 1276 236 c 0,14,15
 1233 209 1233 209 1182 182 c 0,16,17
 1079 127 1079 127 946 88 c 0,18,19
 811 47 811 47 637 16 c 1,20,-1
 444 16 l 2,21,22
 348 18 348 18 266 47 c 0,23,24
 186 80 186 80 129 135 c 0,25,26
 76 195 76 195 45 279 c 0,27,28
 18 358 18 358 18 449 c 0,29,30
 18 461 18 461 20 471 c 0,31,32
 20 492 20 492 33 553 c 0,33,34
 43 598 43 598 59 645 c 0,35,36
 80 694 80 694 106 737 c 0,37,38
 137 791 137 791 172 813 c 0,39,40
 193 827 193 827 201 827 c 0,41,42
 209 827 209 827 209 819 c 0,43,44
 209 811 209 811 203 801 c 0,45,46
 197 788 197 788 188 772 c 0,47,48
 182 756 182 756 176 743 c 0,49,50
 172 733 172 733 168 721 c 2,51,52
 141 633 141 633 137 584 c 0,53,54
 135 565 135 565 135 551 c 0,55,56
 135 510 135 510 143 473 c 0,57,58
 156 428 156 428 184 391 c 0,59,60
 207 360 207 360 244 330 c 0,61,62
 293 293 293 293 356 266 c 0,63,64
 424 240 424 240 494 231 c 0,65,66
 535 225 535 225 584 225 c 0,67,68
 614 225 614 225 647 227 c 0,69,70
 727 231 727 231 809 248 c 0,71,72
 889 262 889 262 967 285 c 0,73,74
 1044 307 1044 307 1112 334 c 0,75,76
 1180 362 1180 362 1237 393 c 0,77,78
 1305 430 1305 430 1335 457 c 0,79,80
 1370 483 1370 483 1386 528 c 0,81,82
 1403 571 1403 571 1403 614 c 0,83,84
 1403 616 1403 616 1401 621 c 2,85,-1
 1384 1419 l 2,86,87
 1382 1421 1382 1421 1382 1423 c 0,88,89
 1382 1446 1382 1446 1395 1464 c 0,90,91
 1409 1487 1409 1487 1423 1503 c 0,92,93
 1444 1522 1444 1522 1464 1536 c 0,94,95
 1485 1548 1485 1548 1499 1559 c 0,96,97
 1516 1569 1516 1569 1522 1571 c 0,98,99
 1528 1573 1528 1573 1520 1569 c 1,100,101
 1518 1442 1518 1442 1518 1341 c 0,102,103
 1518 1241 1518 1241 1520 1171 c 0,104,105
 1524 1100 1524 1100 1524 1032 c 0,106,107
 1526 965 1526 965 1528 895 c 0,108,109
 1534 760 1534 760 1540 684 c 0,110,111
 1544 649 1544 649 1552 584 c 0,112,113
 1565 494 1565 494 1577 444 c 0,114,115
 1593 377 1593 377 1616 319 c 256,116,117
 1640 266 1640 266 1663 233 c 0,118,119
 1683 205 1683 205 1741 205 c 1,120,-1
 1743 0 l 1,0,1
EndSplineSet
Refer: 15 -1 N 1 0 0 1 389 643 2
EndChar

StartChar: NameMe.109
Encoding: 109 -1 79
Width: 1521
Flags: W
HStem: 0 215<4 474.175>
VStem: 2 139<1130 1173.5> 690 105<374.767 532.363>
LayerCount: 2
Fore
SplineSet
297 215 m 2,0,1
 334 215 334 215 377 225.5 c 128,-1,2
 420 236 420 236 464 254 c 128,-1,3
 508 272 508 272 548 297 c 128,-1,4
 588 322 588 322 619.5 349.5 c 128,-1,5
 651 377 651 377 670.5 406.5 c 128,-1,6
 690 436 690 436 690 465 c 0,7,8
 690 475 690 475 665.5 508 c 128,-1,9
 641 541 641 541 600 581 c 128,-1,10
 559 621 559 621 508 667 c 128,-1,11
 457 713 457 713 400.5 755 c 128,-1,12
 344 797 344 797 287.5 826.5 c 128,-1,13
 231 856 231 856 184 868 c 1,14,15
 180 870 180 870 174 867 c 0,16,-1
 162 861 l 0,17,18
 156 858 156 858 147.5 854 c 128,-1,19
 139 850 139 850 131 848 c 1,20,21
 96 866 96 866 69.5 886.5 c 128,-1,22
 43 907 43 907 28.5 934 c 128,-1,23
 14 961 14 961 8 993 c 0,24,25
 4 1018 4 1018 4 1071 c 0,26,27
 4 1112 4 1112 2 1145 c 0,28,29
 2 1147 2 1147 2 1151 c 0,30,31
 2 1180 2 1180 8 1208 c 0,32,33
 14 1237 14 1237 29.5 1268.5 c 128,-1,34
 45 1300 45 1300 80 1335 c 1,35,36
 201 1415 201 1415 325 1496 c 128,-1,37
 449 1577 449 1577 568.5 1656 c 128,-1,38
 688 1735 688 1735 801.5 1808.5 c 128,-1,39
 915 1882 915 1882 1015.5 1946.5 c 128,-1,40
 1116 2011 1116 2011 1202 2067.5 c 128,-1,41
 1288 2124 1288 2124 1351.5 2165 c 128,-1,42
 1415 2206 1415 2206 1455 2231.5 c 128,-1,43
 1495 2257 1495 2257 1503 2263 c 1,44,45
 1507 2261 1507 2261 1509 2248.5 c 128,-1,46
 1511 2236 1511 2236 1512 2223 c 128,-1,47
 1513 2210 1513 2210 1516 2200 c 0,48,-1
 1516 2187 l 0,49,50
 1511 2173 1511 2173 1507 2159.5 c 128,-1,51
 1503 2146 1503 2146 1499 2133 c 128,-1,52
 1495 2120 1495 2120 1488 2105.5 c 128,-1,53
 1481 2091 1481 2091 1470 2073 c 1,54,55
 1436 2032 1436 2032 1389.5 1992 c 128,-1,56
 1343 1952 1343 1952 1284 1913 c 1,57,58
 1268 1909 1268 1909 1224 1882 c 128,-1,59
 1180 1855 1180 1855 1118.5 1817.5 c 128,-1,60
 1057 1780 1057 1780 979 1729.5 c 128,-1,61
 901 1679 901 1679 818 1624 c 128,-1,62
 735 1569 735 1569 651 1510.5 c 128,-1,63
 567 1452 567 1452 489.5 1397.5 c 128,-1,64
 412 1343 412 1343 346.5 1295 c 128,-1,65
 281 1247 281 1247 232.5 1210.5 c 128,-1,66
 184 1174 184 1174 160 1151 c 0,67,68
 141 1137 141 1137 141 1133 c 0,69,70
 141 1130 141 1130 143 1130 c 1,71,72
 205 1104 205 1104 272.5 1066 c 128,-1,73
 340 1028 340 1028 407.5 980 c 128,-1,74
 475 932 475 932 536.5 878.5 c 128,-1,75
 598 825 598 825 643 772 c 0,76,77
 795 600 795 600 795 432 c 0,78,79
 795 401 795 401 789.5 375.5 c 128,-1,80
 784 350 784 350 767 319.5 c 128,-1,81
 750 289 750 289 719 249 c 128,-1,82
 688 209 688 209 637 152 c 0,83,84
 492 0 492 0 297 0 c 2,85,-1
 4 0 l 1,86,-1
 4 215 l 1,87,-1
 297 215 l 2,0,1
EndSplineSet
EndChar

StartChar: NameMe.110
Encoding: 110 -1 80
Width: 1671
Flags: W
HStem: 0 215<0 423.296 1439.49 1704>
LayerCount: 2
Fore
SplineSet
1626 2217 m 128,-1,1
 1624 2208 1624 2208 1621 2190.5 c 128,-1,2
 1618 2173 1618 2173 1608.5 2144.5 c 128,-1,3
 1599 2116 1599 2116 1585 2073 c 1,4,5
 1507 2021 1507 2021 1454 1984.5 c 128,-1,6
 1401 1948 1401 1948 1355 1917 c 128,-1,7
 1309 1886 1309 1886 1263 1855.5 c 128,-1,8
 1217 1825 1217 1825 1159.5 1785 c 128,-1,9
 1102 1745 1102 1745 1025 1691.5 c 128,-1,10
 948 1638 948 1638 837.5 1563.5 c 128,-1,11
 727 1489 727 1489 575 1384 c 0,12,13
 223 1147 223 1147 221 1145 c 0,14,15
 215 1143 215 1143 215 1137 c 0,16,17
 215 1124 215 1124 268.5 1095.5 c 128,-1,18
 322 1067 322 1067 411 1016 c 128,-1,19
 500 965 500 965 616.5 890 c 128,-1,20
 733 815 733 815 862 711 c 0,21,22
 1004 592 1004 592 1107 510 c 128,-1,23
 1210 428 1210 428 1283 371.5 c 128,-1,24
 1356 315 1356 315 1403 283.5 c 128,-1,25
 1450 252 1450 252 1478.5 235.5 c 128,-1,26
 1507 219 1507 219 1599.5 216 c 128,-1,27
 1692 213 1692 213 1704 211 c 1,28,-1
 1704 0 l 1,29,30
 1692 0 1692 0 1586.5 4 c 128,-1,31
 1481 8 1481 8 1446 15.5 c 128,-1,32
 1411 23 1411 23 1382.5 31 c 128,-1,33
 1354 39 1354 39 1348 43 c 0,34,35
 1274 100 1274 100 1216.5 145 c 128,-1,36
 1159 190 1159 190 1113 229 c 128,-1,37
 1067 268 1067 268 1022 306 c 128,-1,38
 977 344 977 344 928 388 c 128,-1,39
 879 432 879 432 817.5 486.5 c 128,-1,40
 756 541 756 541 676 610 c 1,41,42
 680 592 680 592 686 572.5 c 128,-1,43
 692 553 692 553 698.5 533.5 c 128,-1,44
 705 514 705 514 709 494 c 0,45,46
 713 473 713 473 713 461 c 0,47,48
 713 457 l 0,49,50
 702 326 702 326 664 229 c 0,51,52
 627 137 627 137 571 100 c 0,53,54
 498 47 498 47 293 23 c 0,55,56
 123 0 123 0 18 0 c 0,57,58
 8 0 8 0 0 0 c 1,59,-1
 0 215 l 1,60,61
 63 215 63 215 259 227.5 c 128,-1,62
 455 240 455 240 500 266.5 c 128,-1,63
 545 293 545 293 578.5 333 c 128,-1,64
 612 373 612 373 629 430 c 1,65,66
 623 471 623 471 612.5 504 c 128,-1,67
 602 537 602 537 588.5 562.5 c 128,-1,68
 575 588 575 588 558 608.5 c 128,-1,69
 541 629 541 629 518 643 c 0,70,71
 457 696 457 696 406.5 734 c 128,-1,72
 356 772 356 772 314 804 c 128,-1,73
 272 836 272 836 234.5 863.5 c 128,-1,74
 197 891 197 891 161 916.5 c 128,-1,75
 125 942 125 942 88 968.5 c 128,-1,76
 51 995 51 995 12 1030 c 1,77,-1
 8 1102 l 2,78,79
 8 1106 8 1106 8 1108 c 0,80,81
 8 1120 8 1120 10 1139 c 0,82,83
 12 1151 12 1151 16 1163.5 c 128,-1,84
 20 1176 20 1176 30.5 1188 c 128,-1,85
 41 1200 41 1200 51 1210 c 0,86,87
 90 1237 90 1237 149.5 1280 c 128,-1,88
 209 1323 209 1323 285.5 1378.5 c 128,-1,89
 362 1434 362 1434 451.5 1497.5 c 128,-1,90
 541 1561 541 1561 636 1626.5 c 128,-1,91
 731 1692 731 1692 831.5 1760.5 c 128,-1,92
 932 1829 932 1829 1027 1894.5 c 128,-1,93
 1122 1960 1122 1960 1210 2020.5 c 128,-1,94
 1298 2081 1298 2081 1373 2130 c 128,-1,95
 1448 2179 1448 2179 1505.5 2218 c 128,-1,96
 1563 2257 1563 2257 1595 2277 c 1,97,98
 1628 2271 1628 2271 1628 2232 c 0,99,0
 1628 2226 1628 2226 1626 2217 c 128,-1,1
EndSplineSet
EndChar

StartChar: NameMe.111
Encoding: 111 -1 81
Width: 2865
Flags: W
HStem: 6 207<500.025 1669.15>
VStem: 84 139<350 563.188> 1221 139<1117.09 1181.31> 1909 102<383.869 535.133>
LayerCount: 2
Fore
SplineSet
1513 221 m 2,0,1
 1552 221 1552 221 1595 232.5 c 128,-1,2
 1638 244 1638 244 1681 262.5 c 128,-1,3
 1724 281 1724 281 1765 304.5 c 128,-1,4
 1806 328 1806 328 1837 356.5 c 128,-1,5
 1868 385 1868 385 1888.5 413.5 c 128,-1,6
 1909 442 1909 442 1909 471 c 0,7,8
 1909 481 1909 481 1884.5 513 c 128,-1,9
 1860 545 1860 545 1819 587 c 128,-1,10
 1778 629 1778 629 1724.5 675 c 128,-1,11
 1671 721 1671 721 1616 761 c 128,-1,12
 1561 801 1561 801 1504.5 832.5 c 128,-1,13
 1448 864 1448 864 1401 874 c 1,14,15
 1399 877 1399 877 1392.5 874.5 c 128,-1,16
 1386 872 1386 872 1379 868 c 128,-1,17
 1372 864 1372 864 1364 860 c 128,-1,18
 1356 856 1356 856 1350 854 c 1,19,20
 1313 872 1313 872 1287.5 892.5 c 128,-1,21
 1262 913 1262 913 1247.5 941 c 128,-1,22
 1233 969 1233 969 1225 999 c 0,23,24
 1221 1026 1221 1026 1221 1059 c 0,25,26
 1221 1075 l 0,27,28
 1221 1116 1221 1116 1221 1151 c 0,29,30
 1221 1155 l 0,31,32
 1221 1186 1221 1186 1225 1214 c 0,33,34
 1233 1243 1233 1243 1248.5 1274 c 128,-1,35
 1264 1305 1264 1305 1296 1339 c 1,36,37
 1417 1419 1417 1419 1541 1501 c 128,-1,38
 1665 1583 1665 1583 1786 1662 c 128,-1,39
 1907 1741 1907 1741 2019.5 1814.5 c 128,-1,40
 2132 1888 2132 1888 2233.5 1953.5 c 128,-1,41
 2335 2019 2335 2019 2420 2073.5 c 128,-1,42
 2505 2128 2505 2128 2568.5 2170 c 128,-1,43
 2632 2212 2632 2212 2672 2237.5 c 128,-1,44
 2712 2263 2712 2263 2722 2267 c 1,45,46
 2724 2265 2724 2265 2726 2254 c 128,-1,47
 2728 2243 2728 2243 2730 2229.5 c 128,-1,48
 2732 2216 2732 2216 2732 2204.5 c 128,-1,49
 2732 2193 2732 2193 2732 2191 c 0,50,51
 2728 2177 2728 2177 2725 2164.5 c 128,-1,52
 2722 2152 2722 2152 2717 2140 c 128,-1,53
 2712 2128 2712 2128 2704.5 2112.5 c 128,-1,54
 2697 2097 2697 2097 2687 2081 c 1,55,56
 2652 2040 2652 2040 2607 2000 c 128,-1,57
 2562 1960 2562 1960 2503 1919 c 1,58,59
 2484 1913 2484 1913 2440 1888.5 c 128,-1,60
 2396 1864 2396 1864 2333.5 1824 c 128,-1,61
 2271 1784 2271 1784 2195.5 1733.5 c 128,-1,62
 2120 1683 2120 1683 2037 1629 c 128,-1,63
 1954 1575 1954 1575 1869 1517.5 c 128,-1,64
 1784 1460 1784 1460 1707 1404 c 128,-1,65
 1630 1348 1630 1348 1562.5 1299.5 c 128,-1,66
 1495 1251 1495 1251 1448 1215.5 c 128,-1,67
 1401 1180 1401 1180 1376 1157 c 0,68,69
 1360 1143 1360 1143 1360 1139 c 0,70,71
 1360 1137 l 1,72,73
 1419 1112 1419 1112 1489 1072 c 128,-1,74
 1559 1032 1559 1032 1625.5 985 c 128,-1,75
 1692 938 1692 938 1754.5 884.5 c 128,-1,76
 1817 831 1817 831 1862 780 c 0,77,78
 2011 606 2011 606 2011 438 c 0,79,80
 2011 408 2011 408 2006 382 c 128,-1,81
 2001 356 2001 356 1984.5 325.5 c 128,-1,82
 1968 295 1968 295 1936.5 254 c 128,-1,83
 1905 213 1905 213 1851 156 c 0,84,85
 1710 6 1710 6 1343 6 c 0,86,87
 1341 6 l 0,88,89
 1221 6 1221 6 1130 6 c 0,90,91
 950 6 950 6 897 6 c 0,92,93
 819 4 819 4 778 4 c 0,94,95
 627 4 627 4 500 33.5 c 128,-1,96
 373 63 373 63 280.5 115.5 c 128,-1,97
 188 168 188 168 136 238.5 c 128,-1,98
 84 309 84 309 84 391 c 0,99,100
 90 453 90 453 108.5 509 c 128,-1,101
 127 565 127 565 153.5 614.5 c 128,-1,102
 180 664 180 664 211 701.5 c 128,-1,103
 242 739 242 739 274 764 c 1,104,105
 276 752 276 752 276 741 c 0,106,107
 276 721 276 721 270 700 c 0,108,109
 264 666 264 666 253 635 c 128,-1,110
 242 604 242 604 232.5 578.5 c 128,-1,111
 223 553 223 553 223 532 c 0,112,113
 223 465 223 465 267 406.5 c 128,-1,114
 311 348 311 348 390 304 c 128,-1,115
 469 260 469 260 576.5 236.5 c 128,-1,116
 684 213 684 213 811 213 c 2,117,-1
 1513 221 l 2,0,1
EndSplineSet
EndChar

StartChar: NameMe.112
Encoding: 112 -1 82
Width: 2682
Flags: W
HStem: 6 207<431.026 1603.59 2576 2744>
VStem: 16 140<406.512 559.79> 1839 111<379.611 498.933>
LayerCount: 2
Fore
SplineSet
1448 221 m 2,0,1
 1487 221 1487 221 1528 231 c 0,2,3
 1573 244 1573 244 1616 262.5 c 128,-1,4
 1659 281 1659 281 1700 304.5 c 128,-1,5
 1741 328 1741 328 1771.5 356.5 c 128,-1,6
 1802 385 1802 385 1820.5 413.5 c 128,-1,7
 1839 442 1839 442 1839 471 c 0,8,9
 1839 481 1839 481 1815.5 513 c 128,-1,10
 1792 545 1792 545 1752 587 c 128,-1,11
 1712 629 1712 629 1659 675 c 128,-1,12
 1606 721 1606 721 1549.5 761 c 128,-1,13
 1493 801 1493 801 1437.5 832.5 c 128,-1,14
 1382 864 1382 864 1333 874 c 1,15,16
 1321 872 1321 872 1314 868 c 128,-1,17
 1307 864 1307 864 1298.5 860 c 128,-1,18
 1290 856 1290 856 1284 854 c 1,19,20
 1245 872 1245 872 1220.5 892.5 c 128,-1,21
 1196 913 1196 913 1179.5 941 c 128,-1,22
 1163 969 1163 969 1157 999 c 0,23,24
 1151 1024 1151 1024 1151 1075 c 0,25,26
 1151 1116 1151 1116 1151 1151 c 0,27,28
 1151 1155 l 0,29,30
 1151 1186 1151 1186 1157 1214 c 0,31,32
 1163 1243 1163 1243 1179.5 1274 c 128,-1,33
 1196 1305 1196 1305 1229 1339 c 1,34,35
 1352 1419 1352 1419 1475.5 1501 c 128,-1,36
 1599 1583 1599 1583 1719 1662 c 128,-1,37
 1839 1741 1839 1741 1951.5 1814.5 c 128,-1,38
 2064 1888 2064 1888 2165.5 1953.5 c 128,-1,39
 2267 2019 2267 2019 2352 2073.5 c 128,-1,40
 2437 2128 2437 2128 2501.5 2170 c 128,-1,41
 2566 2212 2566 2212 2605 2237.5 c 128,-1,42
 2644 2263 2644 2263 2656 2267 c 1,43,44
 2658 2265 2658 2265 2660 2254 c 128,-1,45
 2662 2243 2662 2243 2663 2229.5 c 128,-1,46
 2664 2216 2664 2216 2664 2204.5 c 128,-1,47
 2664 2193 2664 2193 2664 2191 c 0,48,49
 2662 2177 2662 2177 2659 2164.5 c 128,-1,50
 2656 2152 2656 2152 2650 2140 c 128,-1,51
 2644 2128 2644 2128 2638 2112.5 c 128,-1,52
 2632 2097 2632 2097 2619 2081 c 1,53,54
 2587 2040 2587 2040 2542 2000 c 128,-1,55
 2497 1960 2497 1960 2435 1919 c 1,56,57
 2419 1913 2419 1913 2375 1888.5 c 128,-1,58
 2331 1864 2331 1864 2267.5 1824 c 128,-1,59
 2204 1784 2204 1784 2128 1733.5 c 128,-1,60
 2052 1683 2052 1683 1970 1629 c 128,-1,61
 1888 1575 1888 1575 1803 1517.5 c 128,-1,62
 1718 1460 1718 1460 1641.5 1404 c 128,-1,63
 1565 1348 1565 1348 1496 1299.5 c 128,-1,64
 1427 1251 1427 1251 1380 1215.5 c 128,-1,65
 1333 1180 1333 1180 1294 1137 c 1,66,67
 1354 1112 1354 1112 1423.5 1072 c 128,-1,68
 1493 1032 1493 1032 1678.5 923.5 c 128,-1,69
 1864 815 1864 815 1993 713 c 0,70,71
 2134 594 2134 594 2237.5 511 c 128,-1,72
 2341 428 2341 428 2414.5 372.5 c 128,-1,73
 2488 317 2488 317 2534 285.5 c 128,-1,74
 2580 254 2580 254 2610 236.5 c 128,-1,75
 2640 219 2640 219 2686 216 c 128,-1,76
 2732 213 2732 213 2744 211 c 1,77,-1
 2744 0 l 1,78,79
 2732 0 2732 0 2670.5 4 c 128,-1,80
 2609 8 2609 8 2575.5 16.5 c 128,-1,81
 2542 25 2542 25 2513 33 c 128,-1,82
 2484 41 2484 41 2480 43 c 0,83,84
 2404 102 2404 102 2348 147.5 c 128,-1,85
 2292 193 2292 193 2243.5 230.5 c 128,-1,86
 2195 268 2195 268 2151 306 c 128,-1,87
 2107 344 2107 344 2057 388 c 128,-1,88
 2007 432 2007 432 1923 500 c 1,89,90
 1950 457 1950 457 1950 422 c 0,91,92
 1950 410 1950 410 1948 397 c 0,93,94
 1931 356 1931 356 1916 325.5 c 128,-1,95
 1901 295 1901 295 1868 254 c 128,-1,96
 1835 213 1835 213 1784 156 c 0,97,98
 1645 6 1645 6 1278 6 c 0,99,100
 1276 6 l 0,101,102
 1151 6 1151 6 1063 6 c 0,103,104
 883 6 883 6 829 6 c 0,105,106
 752 4 752 4 713 4 c 0,107,108
 559 4 559 4 431 33.5 c 128,-1,109
 303 63 303 63 212 115.5 c 128,-1,110
 121 168 121 168 68 240 c 0,111,112
 16 309 16 309 16 383 c 0,113,114
 16 385 16 385 16 391 c 0,115,116
 18 438 18 438 43 508 c 0,117,118
 59 565 59 565 86 614.5 c 128,-1,119
 113 664 113 664 144.5 701.5 c 128,-1,120
 176 739 176 739 209 764 c 1,121,122
 209 752 209 752 209 741 c 0,123,124
 209 721 209 721 205 700 c 0,125,126
 197 666 197 666 186.5 635 c 128,-1,127
 176 604 176 604 166 578.5 c 128,-1,128
 156 553 156 553 156 532 c 0,129,130
 156 465 156 465 200 406.5 c 128,-1,131
 244 348 244 348 322.5 304 c 128,-1,132
 401 260 401 260 510 236 c 0,133,134
 618 213 618 213 731 213 c 0,135,136
 743 213 l 2,137,-1
 1448 221 l 2,0,1
EndSplineSet
EndChar

StartChar: NameMe.113
Encoding: 113 -1 83
Width: 2701
Flags: W
HStem: -17 146<245.674 930.677> 337.5 154.5<741.112 1205.97> 430 133<1893.32 2306.8>
LayerCount: 2
Fore
SplineSet
2630 295 m 0,0,-1
 2610 264 l 0,1,-1
 2591 232 l 0,2,3
 2584 215 2584 215 2573 207 c 0,4,-1
 2511 132 l 0,5,6
 2154 12 2154 12 488 -17 c 0,7,-1
 422 -10 l 0,8,9
 282 0 282 0 223 40 c 0,10,11
 0 152 0 152 0 285 c 0,12,13
 54 243 54 243 173 192.5 c 128,-1,14
 292 142 292 142 481 129 c 0,15,16
 2088 190 2088 190 2397 306 c 0,17,-1
 2395 311 l 0,18,-1
 2393 315 l 0,19,20
 2386 335 2386 335 2313 382 c 0,21,22
 2232 430 2232 430 2160 430 c 0,23,-1
 1971 425 l 0,24,-1
 1597 382 l 0,25,-1
 1415 372 l 0,26,-1
 1261 355 l 0,27,-1
 1155 342 l 0,28,-1
 1076 339 l 0,29,30
 864 330 864 330 757 337.5 c 128,-1,31
 650 345 650 345 625.5 362.5 c 128,-1,32
 601 380 601 380 601 404 c 128,-1,33
 601 428 601 428 618 470 c 0,34,35
 716 672 716 672 894.5 824.5 c 128,-1,36
 1073 977 1073 977 1216 1028 c 0,37,38
 1349 1059 1349 1059 1283 887 c 0,39,40
 1237 934 1237 934 1083 848 c 0,41,42
 743 625 743 625 739 519 c 0,43,-1
 741 514 l 0,44,45
 744 509 744 509 821.5 500.5 c 128,-1,46
 899 492 899 492 1008 492 c 0,47,-1
 1298 513 l 0,48,-1
 1613 530 l 0,49,-1
 2040 562 l 0,50,-1
 2139 563 l 0,51,-1
 2300 566 l 0,52,53
 2409 566 2409 566 2505 525 c 0,54,55
 2582 493 2582 493 2616 453 c 0,56,-1
 2633 430 l 0,57,-1
 2646 399 l 0,58,59
 2655 370 2655 370 2630 295 c 0,0,-1
EndSplineSet
EndChar

StartChar: NameMe.114
Encoding: 114 -1 84
Width: 2836
Flags: W
HStem: -17 146<245.674 930.677> 0 216<2614.77 2862> 337.5 154.5<741.112 1205.97> 430 133<1893.32 2306.8>
LayerCount: 2
Fore
SplineSet
2630 295 m 0,0,-1
 2610 264 l 0,1,2
 2602 255 2602 255 2613.5 238 c 128,-1,3
 2625 221 2625 221 2648 221 c 0,4,-1
 2862 216 l 0,5,-1
 2862 0 l 0,6,7
 2784 -4 2784 -4 2727.5 7 c 128,-1,8
 2671 18 2671 18 2631.5 36.5 c 128,-1,9
 2592 55 2592 55 2564 80 c 128,-1,10
 2536 105 2536 105 2511 132 c 0,11,12
 2154 12 2154 12 488 -17 c 0,13,-1
 422 -10 l 0,14,15
 282 0 282 0 223 40 c 0,16,17
 0 152 0 152 0 285 c 0,18,19
 54 243 54 243 173 192.5 c 128,-1,20
 292 142 292 142 481 129 c 0,21,22
 2088 190 2088 190 2397 306 c 0,23,-1
 2395 311 l 0,24,-1
 2393 315 l 0,25,26
 2386 335 2386 335 2313 382 c 0,27,28
 2232 430 2232 430 2160 430 c 0,29,-1
 1971 425 l 0,30,-1
 1597 382 l 0,31,-1
 1415 372 l 0,32,-1
 1261 355 l 0,33,-1
 1155 342 l 0,34,-1
 1076 339 l 0,35,36
 864 330 864 330 757 337.5 c 128,-1,37
 650 345 650 345 625.5 362.5 c 128,-1,38
 601 380 601 380 601 404 c 128,-1,39
 601 428 601 428 618 470 c 0,40,41
 716 672 716 672 894.5 824.5 c 128,-1,42
 1073 977 1073 977 1216 1028 c 0,43,44
 1349 1059 1349 1059 1283 887 c 0,45,46
 1237 934 1237 934 1083 848 c 0,47,48
 743 625 743 625 739 519 c 0,49,-1
 741 514 l 0,50,51
 744 509 744 509 821.5 500.5 c 128,-1,52
 899 492 899 492 1008 492 c 0,53,-1
 1298 513 l 0,54,-1
 1613 530 l 0,55,-1
 2040 562 l 0,56,-1
 2139 563 l 0,57,-1
 2300 566 l 0,58,59
 2409 566 2409 566 2505 525 c 0,60,61
 2582 493 2582 493 2616 453 c 0,62,-1
 2633 430 l 0,63,-1
 2646 399 l 0,64,65
 2655 370 2655 370 2630 295 c 0,0,-1
EndSplineSet
EndChar

StartChar: NameMe.115
Encoding: 115 -1 85
Width: 2600
Flags: W
HStem: 0 216<1 518.293> 337.5 154.5<609.112 1073.97> 430 133<1761.32 2174.8>
LayerCount: 2
Fore
SplineSet
2379 132 m 0,0,1
 1949 -16 1949 -16 1 0 c 0,2,-1
 1 216 l 0,3,4
 1956 190 1956 190 2265 306 c 0,5,-1
 2263 311 l 0,6,-1
 2261 315 l 0,7,8
 2254 335 2254 335 2181 382 c 0,9,10
 2100 430 2100 430 2028 430 c 0,11,-1
 1839 425 l 0,12,-1
 1465 382 l 0,13,-1
 1283 372 l 0,14,-1
 1129 355 l 0,15,-1
 1023 342 l 0,16,-1
 944 339 l 0,17,18
 732 330 732 330 625 337.5 c 128,-1,19
 518 345 518 345 493.5 362.5 c 128,-1,20
 469 380 469 380 469 404 c 128,-1,21
 469 428 469 428 486 470 c 0,22,23
 584 672 584 672 762.5 824.5 c 128,-1,24
 941 977 941 977 1084 1028 c 0,25,26
 1217 1059 1217 1059 1151 887 c 0,27,28
 1105 934 1105 934 951 848 c 0,29,30
 611 625 611 625 607 519 c 0,31,-1
 609 514 l 0,32,33
 612 509 612 509 689.5 500.5 c 128,-1,34
 767 492 767 492 876 492 c 0,35,-1
 1166 513 l 0,36,-1
 1481 530 l 0,37,-1
 1908 562 l 0,38,-1
 2007 563 l 0,39,-1
 2168 566 l 0,40,41
 2277 566 2277 566 2373 525 c 0,42,43
 2450 493 2450 493 2484 453 c 0,44,-1
 2501 430 l 0,45,-1
 2514 399 l 0,46,47
 2523 370 2523 370 2496.5 288.5 c 128,-1,48
 2470 207 2470 207 2379 132 c 0,0,1
EndSplineSet
EndChar

StartChar: NameMe.116
Encoding: 116 -1 86
Width: 2701
Flags: W
HStem: 0 216<1 518.293 2482.77 2730> 337.5 154.5<609.112 1073.97> 430 133<1761.32 2174.8>
LayerCount: 2
Fore
SplineSet
2498 295 m 0,0,-1
 2478 264 l 0,1,2
 2470 255 2470 255 2481.5 238 c 128,-1,3
 2493 221 2493 221 2516 221 c 0,4,-1
 2730 216 l 0,5,-1
 2730 0 l 0,6,7
 2652 -4 2652 -4 2595.5 7 c 128,-1,8
 2539 18 2539 18 2499.5 36.5 c 128,-1,9
 2460 55 2460 55 2432 80 c 128,-1,10
 2404 105 2404 105 2379 132 c 0,11,12
 1949 -16 1949 -16 1 0 c 0,13,-1
 1 216 l 0,14,15
 1956 190 1956 190 2265 306 c 0,16,-1
 2263 311 l 0,17,-1
 2261 315 l 0,18,19
 2254 335 2254 335 2181 382 c 0,20,21
 2100 430 2100 430 2028 430 c 0,22,-1
 1839 425 l 0,23,-1
 1465 382 l 0,24,-1
 1283 372 l 0,25,-1
 1129 355 l 0,26,-1
 1023 342 l 0,27,-1
 944 339 l 0,28,29
 732 330 732 330 625 337.5 c 128,-1,30
 518 345 518 345 493.5 362.5 c 128,-1,31
 469 380 469 380 469 404 c 128,-1,32
 469 428 469 428 486 470 c 0,33,34
 584 672 584 672 762.5 824.5 c 128,-1,35
 941 977 941 977 1084 1028 c 0,36,37
 1217 1059 1217 1059 1151 887 c 0,38,39
 1105 934 1105 934 951 848 c 0,40,41
 611 625 611 625 607 519 c 0,42,-1
 609 514 l 0,43,44
 612 509 612 509 689.5 500.5 c 128,-1,45
 767 492 767 492 876 492 c 0,46,-1
 1166 513 l 0,47,-1
 1481 530 l 0,48,-1
 1908 562 l 0,49,-1
 2007 563 l 0,50,-1
 2168 566 l 0,51,52
 2277 566 2277 566 2373 525 c 0,53,54
 2450 493 2450 493 2484 453 c 0,55,-1
 2501 430 l 0,56,-1
 2514 399 l 0,57,58
 2523 370 2523 370 2498 295 c 0,0,-1
EndSplineSet
EndChar

StartChar: NameMe.121
Encoding: 121 -1 91
Width: 1388
Flags: W
HStem: -541 209<375.905 775.888>
VStem: 55 125<-178.348 12.5572> 1061 223<1140.64 1365.8> 1061 151<443.463 1188.31> 1069 166<-139.786 692.537> 1092 47<1479.2 1564.94>
LayerCount: 2
Fore
SplineSet
1235 63 m 2,0,1
 1235 -74 1235 -74 1178.5 -186.5 c 128,-1,2
 1122 -299 1122 -299 1024 -378 c 128,-1,3
 926 -457 926 -457 791.5 -499 c 128,-1,4
 657 -541 657 -541 502 -541 c 0,5,6
 416 -541 416 -541 336 -513 c 128,-1,7
 256 -485 256 -485 192.5 -436 c 128,-1,8
 129 -387 129 -387 92 -318.5 c 128,-1,9
 55 -250 55 -250 55 -168 c 0,10,11
 55 -127 55 -127 70.5 -73.5 c 128,-1,12
 86 -20 86 -20 108.5 34 c 128,-1,13
 131 88 131 88 157.5 139 c 128,-1,14
 184 190 184 190 209 227 c 0,15,16
 219 248 219 248 234.5 263.5 c 128,-1,17
 250 279 250 279 265.5 288 c 128,-1,18
 281 297 281 297 292 300 c 128,-1,19
 303 303 303 303 311 299 c 1,20,21
 324 293 324 293 324 279 c 0,22,23
 324 272 324 272 319 260 c 1,24,25
 285 213 285 213 261.5 170 c 128,-1,26
 238 127 238 127 223.5 85 c 128,-1,27
 209 43 209 43 198.5 3 c 128,-1,28
 188 -37 188 -37 180 -80 c 1,29,30
 180 -121 180 -121 214 -166 c 128,-1,31
 248 -211 248 -211 304 -248 c 128,-1,32
 360 -285 360 -285 430 -308.5 c 128,-1,33
 500 -332 500 -332 575 -332 c 0,34,35
 600 -332 600 -332 638 -325.5 c 128,-1,36
 676 -319 676 -319 718 -307 c 128,-1,37
 760 -295 760 -295 805 -275.5 c 128,-1,38
 850 -256 850 -256 893 -233 c 0,39,40
 938 -213 938 -213 974 -185.5 c 128,-1,41
 1010 -158 1010 -158 1034.5 -128 c 128,-1,42
 1059 -98 1059 -98 1067 -63 c 0,43,44
 1071 -45 1071 -45 1071 -29 c 0,45,46
 1071 -10 1071 -10 1067 6 c 1,47,48
 1069 18 1069 18 1069 43 c 0,49,50
 1069 53 1069 53 1069 66 c 0,51,52
 1069 90 1069 90 1069 127 c 0,53,54
 1069 156 1069 156 1067 447.5 c 128,-1,55
 1065 739 1065 739 1061 1296 c 0,56,57
 1061 1303 1061 1303 1062 1312 c 128,-1,58
 1063 1321 1063 1321 1065 1336.5 c 128,-1,59
 1067 1352 1067 1352 1069 1376.5 c 128,-1,60
 1071 1401 1071 1401 1075 1436 c 0,61,62
 1081 1475 1081 1475 1086.5 1497.5 c 128,-1,63
 1092 1520 1092 1520 1092 1532 c 1,64,65
 1096 1544 1096 1544 1102 1555.5 c 128,-1,66
 1108 1567 1108 1567 1114 1575 c 128,-1,67
 1120 1583 1120 1583 1126.5 1587 c 128,-1,68
 1133 1591 1133 1591 1135 1587 c 1,69,70
 1141 1577 1141 1577 1141 1565 c 0,71,72
 1139 1563 1139 1563 1139 1561 c 0,73,74
 1139 1542 1139 1542 1149 1513 c 0,75,76
 1159 1485 1159 1485 1174 1452 c 0,77,78
 1180 1436 1180 1436 1185 1425.5 c 128,-1,79
 1190 1415 1190 1415 1192 1411 c 128,-1,80
 1194 1407 1194 1407 1205.5 1395.5 c 128,-1,81
 1217 1384 1217 1384 1247 1360 c 0,82,83
 1284 1339 1284 1339 1284 1288 c 0,84,85
 1284 1280 1284 1280 1282 1266.5 c 128,-1,86
 1280 1253 1280 1253 1272 1230.5 c 128,-1,87
 1264 1208 1264 1208 1250.5 1170.5 c 128,-1,88
 1237 1133 1237 1133 1212 1073 c 1,89,-1
 1235 63 l 2,0,1
EndSplineSet
EndChar

StartChar: NameMe.122
Encoding: 122 -1 92
Width: 1466
Flags: W
HStem: -541 211<468.952 874.291> 13 202<1383.51 1489>
VStem: 137 148<-165.7 84.1172>
LayerCount: 2
Fore
SplineSet
1489 0 m 1,0,1
 1454 0 1454 0 1430.5 3 c 128,-1,2
 1407 6 1407 6 1387.5 13 c 128,-1,3
 1368 20 1368 20 1349.5 32.5 c 128,-1,4
 1331 45 1331 45 1315 63 c 1,5,6
 1298 20 1298 20 1289 -17.5 c 128,-1,7
 1280 -55 1280 -55 1274 -88 c 128,-1,8
 1268 -121 1268 -121 1259.5 -150.5 c 128,-1,9
 1251 -180 1251 -180 1238 -208 c 128,-1,10
 1225 -236 1225 -236 1200.5 -264.5 c 128,-1,11
 1176 -293 1176 -293 1138 -326.5 c 128,-1,12
 1100 -360 1100 -360 1043.5 -398 c 128,-1,13
 987 -436 987 -436 909 -479 c 0,14,15
 881 -496 881 -496 845 -507 c 128,-1,16
 809 -518 809 -518 772 -525 c 128,-1,17
 735 -532 735 -532 701.5 -536.5 c 128,-1,18
 668 -541 668 -541 639 -541 c 0,19,20
 535 -541 535 -541 443.5 -508 c 128,-1,21
 352 -475 352 -475 283.5 -415.5 c 128,-1,22
 215 -356 215 -356 176 -271 c 128,-1,23
 137 -186 137 -186 137 -80 c 0,24,25
 137 -57 137 -57 148.5 -10 c 128,-1,26
 160 37 160 37 188.5 99.5 c 128,-1,27
 217 162 217 162 270.5 232.5 c 128,-1,28
 324 303 324 303 408 371 c 1,29,30
 424 369 424 369 424 352 c 0,31,32
 424 340 424 340 413.5 317.5 c 128,-1,33
 403 295 403 295 388 263 c 128,-1,34
 373 231 373 231 354.5 195.5 c 128,-1,35
 336 160 336 160 319.5 124 c 128,-1,36
 303 88 303 88 294 53 c 128,-1,37
 285 18 285 18 285 -10 c 0,38,39
 285 -78 285 -78 313.5 -137.5 c 128,-1,40
 342 -197 342 -197 394 -239 c 128,-1,41
 446 -281 446 -281 517 -305.5 c 128,-1,42
 588 -330 588 -330 668 -330 c 0,43,44
 772 -330 772 -330 860 -313.5 c 128,-1,45
 948 -297 948 -297 1013.5 -266.5 c 128,-1,46
 1079 -236 1079 -236 1116 -194 c 128,-1,47
 1153 -152 1153 -152 1153 -98 c 0,48,49
 1128 242 1128 242 1100.5 578.5 c 128,-1,50
 1073 915 1073 915 1049 1255 c 1,51,52
 1065 1323 1065 1323 1076 1367 c 128,-1,53
 1087 1411 1087 1411 1098.5 1440.5 c 128,-1,54
 1110 1470 1110 1470 1121.5 1486.5 c 128,-1,55
 1133 1503 1133 1503 1149 1520 c 1,56,-1
 1184 1520 l 1,57,58
 1190 1360 1190 1360 1200 1212.5 c 128,-1,59
 1210 1065 1210 1065 1223.5 933 c 128,-1,60
 1237 801 1237 801 1252.5 688 c 128,-1,61
 1268 575 1268 575 1284 493.5 c 128,-1,62
 1300 412 1300 412 1316.5 359.5 c 128,-1,63
 1333 307 1333 307 1352 297 c 2,64,65
 1364 272 1364 272 1395.5 250.5 c 128,-1,66
 1427 229 1427 229 1489 215 c 1,67,-1
 1489 0 l 1,0,1
EndSplineSet
EndChar

StartChar: NameMe.123
Encoding: 123 -1 93
Width: 350
Flags: W
HStem: 4 209<-25 113.394>
VStem: 113 137<349.018 1182.78> 131 133<233.668 1111.23>
LayerCount: 2
Fore
SplineSet
244 174 m 0,0,1
 233 152 233 152 218 126 c 128,-1,2
 203 100 203 100 179.5 75.5 c 128,-1,3
 156 51 156 51 128 32.5 c 128,-1,4
 100 14 100 14 63 4 c 1,5,-1
 -25 0 l 1,6,-1
 -31 213 l 1,7,-1
 4 213 l 2,8,9
 25 215 25 215 38 217 c 128,-1,10
 51 219 51 219 66 223 c 0,11,12
 109 240 109 240 131 285 c 1,13,-1
 129 346 l 2,14,15
 127 395 127 395 126 473 c 128,-1,16
 125 551 125 551 121 638 c 128,-1,17
 117 725 117 725 113 814 c 128,-1,18
 109 903 109 903 106.5 982 c 128,-1,19
 104 1061 104 1061 102 1118.5 c 128,-1,20
 100 1176 100 1176 100 1200 c 2,21,-1
 100 1212 l 2,22,23
 96 1237 96 1237 88 1260.5 c 128,-1,24
 80 1284 80 1284 61 1321 c 1,25,26
 86 1432 86 1432 107.5 1490 c 128,-1,27
 129 1548 129 1548 168 1556 c 1,28,-1
 307 1378 l 1,29,30
 305 1346 305 1346 302 1331.5 c 128,-1,31
 299 1317 299 1317 295 1305 c 2,32,-1
 225 1184 l 1,33,34
 227 1145 227 1145 230 1111 c 128,-1,35
 233 1077 233 1077 235.5 1040.5 c 128,-1,36
 238 1004 238 1004 241 962 c 128,-1,37
 244 920 244 920 246 862.5 c 128,-1,38
 248 805 248 805 250 730 c 128,-1,39
 252 655 252 655 256 555 c 2,40,-1
 264 276 l 2,41,42
 264 268 l 0,43,44
 264 242 264 242 258 219 c 0,45,46
 252 193 252 193 244 174 c 0,0,1
EndSplineSet
EndChar

StartChar: NameMe.124
Encoding: 124 -1 94
Width: 518
Flags: W
HStem: 0 215<-12 114.661 434.715 532>
VStem: 213 125<371.634 1534.88>
LayerCount: 2
Fore
SplineSet
535 0 m 1,0,-1
 479 0 l 2,1,2
 434 4 434 4 401.5 24.5 c 128,-1,3
 369 45 369 45 344 86 c 128,-1,4
 319 127 319 127 302 185.5 c 128,-1,5
 285 244 285 244 272 322 c 1,6,7
 268 281 268 281 243.5 228.5 c 128,-1,8
 219 176 219 176 186 127 c 0,9,10
 168 106 168 106 149.5 84.5 c 128,-1,11
 131 63 131 63 113 43 c 0,12,13
 72 8 72 8 -12 -4 c 1,14,-1
 -14 213 l 1,15,16
 113 236 113 236 139 256 c 0,17,18
 170 276 170 276 193 332 c 1,19,20
 201 408 201 408 207 473.5 c 128,-1,21
 213 539 213 539 213 592 c 2,22,-1
 213 647 l 1,23,-1
 213 676 l 1,24,-1
 213 692 l 1,25,-1
 213 702 l 2,26,27
 213 707 213 707 209 711 c 1,28,29
 209 772 209 772 207 866.5 c 128,-1,30
 205 961 205 961 201 1092 c 0,31,32
 201 1155 201 1155 200 1237 c 128,-1,33
 199 1319 199 1319 197 1419 c 0,34,35
 197 1423 l 0,36,37
 197 1446 197 1446 211 1475 c 0,38,39
 223 1503 223 1503 248 1526 c 256,40,41
 270 1548 270 1548 292.5 1554.5 c 128,-1,42
 315 1561 315 1561 332 1565 c 1,43,-1
 332 1184 l 1,44,-1
 332 1049 l 1,45,-1
 332 987 l 1,46,-1
 332 961 l 1,47,-1
 332 944 l 2,48,49
 332 934 332 934 334 932 c 1,50,51
 336 877 336 877 336 831.5 c 128,-1,52
 336 786 336 786 338 750 c 0,53,54
 340 696 340 696 342 658.5 c 128,-1,55
 344 621 344 621 346 593 c 128,-1,56
 348 565 348 565 352 546.5 c 128,-1,57
 356 528 356 528 360 512 c 0,58,59
 369 469 369 469 372 441.5 c 128,-1,60
 375 414 375 414 377 399 c 0,61,62
 381 385 381 385 383 371.5 c 128,-1,63
 385 358 385 358 391 344 c 0,64,65
 395 328 395 328 401.5 313.5 c 128,-1,66
 408 299 408 299 416 289 c 0,67,68
 432 256 432 256 459.5 235.5 c 128,-1,69
 487 215 487 215 532 215 c 1,70,-1
 535 0 l 1,0,-1
EndSplineSet
EndChar

StartChar: NameMe.125
Encoding: 125 -1 95
Width: 573
Flags: W
HStem: 4 209<-25 336.353>
VStem: 321.5 141.5<864.293 1182.78> 349 126<285 1103.79>
LayerCount: 2
Fore
SplineSet
467 174 m 0,0,1
 457 152 457 152 440.5 126 c 128,-1,2
 424 100 424 100 402.5 75.5 c 128,-1,3
 381 51 381 51 351.5 32.5 c 128,-1,4
 322 14 322 14 289 4 c 1,5,-1
 -25 0 l 1,6,-1
 -31 213 l 1,7,-1
 225 213 l 2,8,9
 227 213 227 213 260 217 c 0,10,11
 274 219 274 219 289 223 c 0,12,13
 330 240 330 240 356 285 c 1,14,-1
 352 346 l 2,15,16
 352 395 352 395 349 473 c 128,-1,17
 346 551 346 551 343 638 c 128,-1,18
 340 725 340 725 336 814 c 128,-1,19
 332 903 332 903 328 982 c 128,-1,20
 324 1061 324 1061 321.5 1118.5 c 128,-1,21
 319 1176 319 1176 319 1200 c 2,22,-1
 319 1212 l 2,23,24
 319 1227 319 1227 309 1260 c 0,25,26
 303 1284 303 1284 285 1321 c 1,27,28
 307 1432 307 1432 329.5 1490 c 128,-1,29
 352 1548 352 1548 389 1556 c 1,30,-1
 532 1378 l 1,31,32
 528 1346 528 1346 526 1331 c 0,33,34
 524 1319 524 1319 516 1305 c 2,35,-1
 449 1184 l 1,36,37
 453 1145 453 1145 455 1111 c 128,-1,38
 457 1077 457 1077 459 1040.5 c 128,-1,39
 461 1004 461 1004 463 962 c 128,-1,40
 465 920 465 920 467 862.5 c 128,-1,41
 469 805 469 805 471 729 c 0,42,43
 473 629 473 629 475 555 c 2,44,-1
 483 276 l 2,45,46
 485 272 485 272 485 268 c 0,47,48
 485 242 485 242 479 219 c 0,49,50
 473 193 473 193 467 174 c 0,0,1
EndSplineSet
EndChar

StartChar: NameMe.126
Encoding: 126 -1 96
Width: 573
Flags: W
HStem: 0 215<-12 114.661 442.254 596>
VStem: 197 135<1241.5 1520.17> 213 125<371.634 1534.88>
LayerCount: 2
Fore
SplineSet
600 0 m 1,0,-1
 479 0 l 2,1,2
 438 2 438 2 399 25 c 0,3,4
 369 45 369 45 344 86 c 128,-1,5
 319 127 319 127 302 185.5 c 128,-1,6
 285 244 285 244 272 322 c 1,7,8
 268 281 268 281 243.5 228.5 c 128,-1,9
 219 176 219 176 186 127 c 0,10,11
 168 106 168 106 149.5 84.5 c 128,-1,12
 131 63 131 63 113 43 c 0,13,14
 72 8 72 8 -12 -4 c 1,15,-1
 -14 213 l 1,16,17
 113 236 113 236 139 256 c 0,18,19
 170 276 170 276 193 332 c 1,20,21
 201 408 201 408 207 473.5 c 128,-1,22
 213 539 213 539 213 592 c 2,23,-1
 213 647 l 1,24,-1
 213 676 l 1,25,-1
 213 692 l 1,26,-1
 213 702 l 2,27,28
 213 707 213 707 209 711 c 1,29,30
 209 813 209 813 207 866 c 0,31,32
 203 961 203 961 201 1092 c 0,33,34
 201 1155 201 1155 199 1237 c 0,35,36
 199 1382 199 1382 197 1419 c 0,37,38
 197 1423 l 0,39,40
 197 1446 197 1446 211 1475 c 0,41,42
 223 1503 223 1503 248 1526 c 256,43,44
 270 1548 270 1548 292.5 1554.5 c 128,-1,45
 315 1561 315 1561 332 1565 c 1,46,-1
 332 1184 l 1,47,-1
 332 1049 l 1,48,-1
 332 987 l 1,49,-1
 332 961 l 1,50,-1
 332 944 l 2,51,52
 332 934 332 934 334 932 c 1,53,54
 336 877 336 877 336 831.5 c 128,-1,55
 336 786 336 786 338 750 c 0,56,57
 340 696 340 696 342 658.5 c 128,-1,58
 344 621 344 621 346 592 c 0,59,60
 350 557 350 557 352 549 c 0,61,62
 358 530 358 530 360 512 c 0,63,64
 369 469 369 469 372 441.5 c 128,-1,65
 375 414 375 414 377 399 c 0,66,67
 381 385 381 385 383 371.5 c 128,-1,68
 385 358 385 358 391 344 c 0,69,70
 395 328 395 328 401.5 313.5 c 128,-1,71
 408 299 408 299 416 289 c 0,72,73
 432 256 432 256 492.5 235.5 c 128,-1,74
 553 215 553 215 596 215 c 1,75,-1
 600 0 l 1,0,-1
EndSplineSet
EndChar

StartChar: NameMe.127
Encoding: 127 -1 97
Width: 800
Flags: W
LayerCount: 2
Fore
SplineSet
698 72 m 0,0,1
 684 55 684 55 659 55 c 0,2,3
 592 63 592 63 543 66 c 0,4,5
 524 66 524 66 508 66 c 0,6,7
 475 66 475 66 449 63 c 0,8,9
 408 59 408 59 374 50 c 128,-1,10
 340 41 340 41 311 27 c 0,11,12
 266 4 266 4 234.5 -15.5 c 128,-1,13
 203 -35 203 -35 181.5 -55.5 c 128,-1,14
 160 -76 160 -76 147.5 -100.5 c 128,-1,15
 135 -125 135 -125 127 -156 c 1,16,-1
 205 -1092 l 2,17,18
 205 -1133 205 -1133 203 -1156.5 c 128,-1,19
 201 -1180 201 -1180 192.5 -1198.5 c 128,-1,20
 184 -1217 184 -1217 165.5 -1232 c 128,-1,21
 147 -1247 147 -1247 115 -1270 c 1,22,-1
 43 -252 l 2,23,24
 43 -205 43 -205 44 -170 c 128,-1,25
 45 -135 45 -135 51 -106.5 c 128,-1,26
 57 -78 57 -78 68.5 -49 c 128,-1,27
 80 -20 80 -20 100 16 c 0,28,29
 106 29 106 29 115.5 42 c 128,-1,30
 125 55 125 55 140.5 75.5 c 128,-1,31
 156 96 156 96 180.5 126 c 128,-1,32
 205 156 205 156 244 197 c 1,33,34
 252 264 252 264 271.5 331.5 c 128,-1,35
 291 399 291 399 328 469 c 0,36,37
 342 496 342 496 357.5 512 c 128,-1,38
 373 528 373 528 388 538.5 c 128,-1,39
 403 549 403 549 421.5 552 c 128,-1,40
 440 555 440 555 457 557 c 1,41,42
 477 555 477 555 509 536.5 c 128,-1,43
 541 518 541 518 571 471 c 0,44,45
 633 391 633 391 666.5 347 c 128,-1,46
 700 303 700 303 717.5 279.5 c 128,-1,47
 735 256 735 256 739 248 c 128,-1,48
 743 240 743 240 745 238 c 1,49,50
 745 233 745 233 745 229 c 0,51,52
 745 213 745 213 743 193 c 0,53,54
 739 166 739 166 732 143.5 c 128,-1,55
 725 121 725 121 716 101.5 c 128,-1,56
 707 82 707 82 698 72 c 0,0,1
516 244 m 1,57,58
 522 248 522 248 522 254 c 0,59,60
 522 262 522 262 516 272 c 0,61,62
 504 289 504 289 485.5 306.5 c 128,-1,63
 467 324 467 324 446 338 c 0,64,-1
 428 352 l 0,65,66
 416 352 416 352 405.5 348 c 128,-1,67
 395 344 395 344 382 331.5 c 128,-1,68
 369 319 369 319 352.5 294.5 c 128,-1,69
 336 270 336 270 311 225 c 1,70,-1
 516 244 l 1,57,58
EndSplineSet
EndChar

StartChar: NameMe.128
Encoding: 128 -1 98
Width: 872
Flags: W
HStem: 0 21G<874.5 885> 164 213<224.933 444.151 444.839 480.535>
VStem: 25 100<-550.895 87.1184> 147.5 61.5<-1228.68 -905.781>
LayerCount: 2
Fore
SplineSet
885 0 m 1,0,1
 864 0 864 0 851 2 c 128,-1,2
 838 4 838 4 829.5 6 c 128,-1,3
 821 8 821 8 816 12 c 128,-1,4
 811 16 811 16 807 18 c 1,5,6
 784 -45 784 -45 768 -85 c 128,-1,7
 752 -125 752 -125 742.5 -144.5 c 128,-1,8
 733 -164 733 -164 729 -172 c 128,-1,9
 725 -180 725 -180 721 -180 c 1,10,11
 549 -135 549 -135 496 76 c 0,12,13
 475 164 475 164 420 164 c 0,14,15
 373 164 373 164 339 162 c 128,-1,16
 305 160 305 160 281.5 156 c 128,-1,17
 258 152 258 152 240.5 143.5 c 128,-1,18
 223 135 223 135 213 125 c 2,19,20
 186 109 186 109 166.5 84 c 128,-1,21
 147 59 147 59 136 19.5 c 128,-1,22
 125 -20 125 -20 125 -80 c 0,23,24
 125 -96 l 0,25,26
 125 -152 125 -152 131 -231 c 0,27,28
 145 -362 145 -362 157.5 -458.5 c 128,-1,29
 170 -555 170 -555 180 -630 c 128,-1,30
 190 -705 190 -705 198.5 -758 c 128,-1,31
 207 -811 207 -811 212 -857 c 128,-1,32
 217 -903 217 -903 219 -944 c 0,33,34
 223 -979 223 -979 223 -1016 c 0,35,36
 223 -1028 l 0,37,38
 223 -1071 223 -1071 219 -1123.5 c 128,-1,39
 215 -1176 215 -1176 209 -1243 c 1,40,41
 193 -1243 193 -1243 180.5 -1231 c 128,-1,42
 168 -1219 168 -1219 160 -1198.5 c 128,-1,43
 152 -1178 152 -1178 147.5 -1156.5 c 128,-1,44
 143 -1135 143 -1135 141 -1116 c 0,45,46
 135 -1040 135 -1040 122 -943 c 128,-1,47
 109 -846 109 -846 92.5 -725 c 128,-1,48
 76 -604 76 -604 58.5 -457.5 c 128,-1,49
 41 -311 41 -311 25 -137 c 0,50,51
 25 -63 25 -63 38 6.5 c 128,-1,52
 51 76 51 76 71.5 134.5 c 128,-1,53
 92 193 92 193 117.5 234.5 c 128,-1,54
 143 276 143 276 164 297 c 0,55,56
 180 311 180 311 208 324.5 c 128,-1,57
 236 338 236 338 267.5 347 c 128,-1,58
 299 356 299 356 332 362.5 c 128,-1,59
 365 369 365 369 390.5 373 c 128,-1,60
 416 377 416 377 432.5 378 c 128,-1,61
 449 379 449 379 444 379 c 1,62,63
 471 379 471 379 480 378 c 128,-1,64
 489 377 489 377 496 377 c 1,65,66
 496 379 496 379 499 382 c 128,-1,67
 502 385 502 385 507 390 c 128,-1,68
 512 395 512 395 521 408.5 c 128,-1,69
 530 422 530 422 545 444 c 1,70,71
 596 379 596 379 639 332 c 128,-1,72
 682 285 682 285 737 260 c 0,73,74
 772 244 772 244 795.5 235.5 c 128,-1,75
 819 227 819 227 834.5 223 c 128,-1,76
 850 219 850 219 861 217 c 128,-1,77
 872 215 872 215 885 215 c 1,78,-1
 885 0 l 1,0,1
EndSplineSet
EndChar

StartChar: NameMe.129
Encoding: 129 -1 99
Width: 745
Flags: W
HStem: 0 215<0 124.597> 115 245<440.946 566.999> 461 237<483.593 603>
VStem: 567 176<330 454.106>
LayerCount: 2
Fore
SplineSet
549 449 m 0,0,1
 539 461 539 461 512 461 c 0,2,3
 471 461 471 461 459 436 c 0,4,5
 453 424 453 424 448.5 412.5 c 128,-1,6
 444 401 444 401 440 389 c 1,7,8
 469 375 469 375 490.5 367.5 c 128,-1,9
 512 360 512 360 526.5 358 c 128,-1,10
 541 356 541 356 548 358 c 128,-1,11
 555 360 555 360 563 360 c 1,12,13
 567 375 567 375 567 385 c 128,-1,14
 567 395 567 395 565 403 c 0,15,16
 561 424 561 424 549 449 c 0,0,1
63 0 m 1,17,-1
 0 0 l 1,18,-1
 0 215 l 1,19,-1
 55 215 l 1,20,21
 125 227 125 227 225 338 c 2,22,-1
 403 571 l 2,23,24
 457 639 457 639 505 667.5 c 128,-1,25
 553 696 553 696 596 698 c 0,26,27
 610 698 610 698 626.5 675.5 c 128,-1,28
 643 653 643 653 659.5 618.5 c 128,-1,29
 676 584 676 584 692.5 542 c 128,-1,30
 709 500 709 500 719 460 c 128,-1,31
 729 420 729 420 736 386 c 128,-1,32
 743 352 743 352 743 336 c 0,33,34
 743 324 743 324 739 304.5 c 128,-1,35
 735 285 735 285 728 260.5 c 128,-1,36
 721 236 721 236 710.5 210 c 128,-1,37
 700 184 700 184 686 161.5 c 128,-1,38
 672 139 672 139 655.5 127 c 128,-1,39
 639 115 639 115 625 115 c 0,40,41
 571 115 571 115 525 122 c 128,-1,42
 479 129 479 129 437 143.5 c 128,-1,43
 395 158 395 158 353 177.5 c 128,-1,44
 311 197 311 197 268 219 c 1,45,46
 213 147 213 147 178 105 c 128,-1,47
 143 63 143 63 121.5 41.5 c 128,-1,48
 100 20 100 20 88 12 c 128,-1,49
 76 4 76 4 63 0 c 1,17,-1
EndSplineSet
EndChar

StartChar: NameMe.130
Encoding: 130 -1 100
Width: 892
Flags: W
HStem: 0 215<0 136.35 783.602 907>
LayerCount: 2
Fore
SplineSet
551 252 m 1,0,1
 551 264 551 264 541.5 279.5 c 128,-1,2
 532 295 532 295 518 309.5 c 128,-1,3
 504 324 504 324 486.5 338 c 128,-1,4
 469 352 469 352 449 360 c 1,5,6
 424 352 424 352 411.5 344 c 128,-1,7
 399 336 399 336 392 329 c 128,-1,8
 385 322 385 322 383 315.5 c 128,-1,9
 381 309 381 309 381 303 c 1,10,11
 381 289 381 289 395 276 c 1,12,13
 440 260 440 260 467 252 c 128,-1,14
 494 244 494 244 511 243 c 128,-1,15
 528 242 528 242 536.5 245 c 128,-1,16
 545 248 545 248 551 252 c 1,0,1
907 215 m 1,17,-1
 907 0 l 1,18,19
 889 0 889 0 864.5 3 c 128,-1,20
 840 6 840 6 816.5 12 c 128,-1,21
 793 18 793 18 771.5 28.5 c 128,-1,22
 750 39 750 39 735 51 c 1,23,24
 692 -8 692 -8 668.5 -27.5 c 128,-1,25
 645 -47 645 -47 635 -47 c 0,26,27
 571 -47 571 -47 520 -36 c 128,-1,28
 469 -25 469 -25 416 4 c 0,29,30
 369 33 369 33 321.5 59.5 c 128,-1,31
 274 86 274 86 225 113 c 1,32,33
 176 59 176 59 121 31 c 0,34,35
 63 0 63 0 4 0 c 0,36,37
 0 0 l 1,38,-1
 0 215 l 1,39,40
 41 215 41 215 77 229.5 c 128,-1,41
 113 244 113 244 136.5 260 c 128,-1,42
 160 276 160 276 174 287.5 c 128,-1,43
 188 299 188 299 184 297 c 1,44,45
 256 387 256 387 304 439.5 c 128,-1,46
 352 492 352 492 385 517.5 c 128,-1,47
 418 543 418 543 438 549 c 0,48,49
 453 551 453 551 465 551 c 0,50,51
 469 551 469 551 471 551 c 2,52,53
 479 551 l 0,54,55
 502 551 502 551 524 537 c 0,56,57
 549 520 549 520 584 473 c 0,58,59
 651 393 651 393 696 344 c 128,-1,60
 741 295 741 295 776 265.5 c 128,-1,61
 811 236 811 236 841.5 225.5 c 128,-1,62
 872 215 872 215 907 215 c 1,17,-1
EndSplineSet
EndChar

StartChar: NameMe.131
Encoding: 131 -1 101
Width: 1103
Flags: W
HStem: -431 20<49 86.0156>
LayerCount: 2
Fore
SplineSet
1056 239 m 1,0,-1
 1046 212 l 1,1,-1
 1030 181 l 2,2,3
 1027 175 1027 175 1016 88.5 c 128,-1,4
 1005 2 1005 2 995 -8 c 0,5,6
 977 -29 977 -29 958 -45 c 1,7,-1
 662 -18 l 1,8,9
 656 -85 656 -85 643 -134 c 2,10,-1
 616 -216 l 2,11,12
 583 -284 583 -284 465 -344 c 2,13,-1
 364 -381 l 1,14,-1
 278 -409 l 1,15,-1
 183 -430 l 1,16,-1
 144 -435 l 1,17,-1
 107 -437 l 1,18,-1
 49 -431 l 1,19,-1
 48 -411 l 1,20,21
 103 -399 103 -399 135 -380 c 2,22,-1
 176 -362 l 1,23,-1
 219 -340 l 1,24,-1
 258 -320 l 1,25,-1
 297 -296 l 1,26,-1
 371 -244 l 2,27,28
 403 -220 403 -220 433 -191 c 2,29,-1
 461 -163 l 1,30,-1
 487 -133 l 2,31,32
 520 -94 520 -94 561 -14 c 1,33,-1
 622 322 l 2,34,35
 640 386 640 386 703 483 c 1,36,-1
 745 524 l 1,37,-1
 798 556 l 1,38,39
 808 556 808 556 865 526 c 1,40,-1
 881 513 l 1,41,-1
 901 494 l 1,42,-1
 954 439 l 2,43,44
 1038 334 1038 334 1056 239 c 1,0,-1
937 205 m 1,45,-1
 808 404 l 1,46,-1
 718 227 l 1,47,-1
 937 205 l 1,45,-1
EndSplineSet
EndChar

StartChar: NameMe.132
Encoding: 132 -1 102
Width: 1202
Flags: W
HStem: -331 30<88.2781 101.007> 0 216<1088.02 1230>
LayerCount: 2
Fore
SplineSet
1046.71 82 m 1,0,1
 1039.7 70.7744 1039.7 70.7744 1029 58 c 1,2,-1
 995.999 43 l 1,3,-1
 942.999 27 l 1,4,-1
 876.999 19 l 1,5,-1
 819.999 15 l 1,6,-1
 809.999 15 l 1,7,-1
 776.999 15 l 2,8,9
 763.666 15 763.666 15 749.999 19 c 2,10,-1
 708.999 31 l 1,11,-1
 682.999 43 l 1,12,13
 682.999 -10.25 682.999 -10.25 671.999 -57 c 0,14,15
 669.382 -80.7881 669.382 -80.7881 659.999 -108 c 2,16,-1
 649.999 -137 l 1,17,-1
 637.999 -157 l 2,18,19
 585.888 -243.853 585.888 -243.853 483.999 -291 c 0,20,21
 429.067 -316.419 429.067 -316.419 354.999 -327 c 2,22,-1
 291.999 -336 l 1,23,-1
 229.999 -340 l 2,24,25
 206.824 -341.495 206.824 -341.495 141.999 -331 c 0,26,27
 93.5352 -323.152 93.5352 -323.152 51.999 -301 c 1,28,29
 137.999 -278 137.999 -278 231.999 -239 c 0,30,31
 279.242 -219.223 279.242 -219.223 309.999 -200 c 2,32,-1
 325.999 -190 l 1,33,-1
 346.999 -178 l 1,34,-1
 389.999 -147 l 2,35,36
 500.352 -67.4434 500.352 -67.4434 581.999 56 c 1,37,-1
 610.999 133 l 1,38,-1
 661.999 291 l 2,39,40
 688.689 373.688 688.689 373.688 721.999 416 c 1,41,-1
 739.999 432 l 1,42,-1
 762.999 453 l 1,43,-1
 815.999 486 l 1,44,45
 837.557 486 837.557 486 878.999 453 c 0,46,47
 901.515 435.071 901.515 435.071 964.999 346 c 0,48,49
 999.001 298.294 999.001 298.294 1023 246 c 1,50,-1
 1052 224 l 1,51,-1
 1071 217 l 1,52,-1
 1105 216 l 1,53,-1
 1230 216 l 1,54,-1
 1230 0 l 1,55,-1
 1205 0 l 2,56,57
 1139.78 0 1139.78 0 1092 41 c 0,58,59
 1048.57 79.1426 1048.57 79.1426 1046.71 82 c 1,0,1
935 166 m 1,60,-1
 851 299 l 1,61,-1
 781 185 l 1,62,-1
 935 166 l 1,60,-1
EndSplineSet
EndChar

StartChar: NameMe.133
Encoding: 133 -1 103
Width: 1306
Flags: W
HStem: -584 226<356.221 802.184>
VStem: 51 142<-212.312 18.8364> 1128 115<-198.762 52.8645>
LayerCount: 2
Fore
SplineSet
1243 -51 m 2,0,1
 1243 -147 1243 -147 1214.5 -223 c 128,-1,2
 1186 -299 1186 -299 1126.5 -360.5 c 128,-1,3
 1067 -422 1067 -422 978 -473 c 128,-1,4
 889 -524 889 -524 764 -565 c 0,5,6
 735 -575 735 -575 690 -580 c 0,7,8
 657 -584 657 -584 621 -584 c 0,9,10
 606 -584 606 -584 590 -584 c 0,11,12
 535 -582 535 -582 473.5 -572.5 c 128,-1,13
 412 -563 412 -563 352.5 -543.5 c 128,-1,14
 293 -524 293 -524 238.5 -496.5 c 128,-1,15
 184 -469 184 -469 142 -427 c 128,-1,16
 100 -385 100 -385 75.5 -330.5 c 128,-1,17
 51 -276 51 -276 51 -209 c 0,18,19
 51 -158 51 -158 64.5 -93.5 c 128,-1,20
 78 -29 78 -29 102.5 37.5 c 128,-1,21
 127 104 127 104 164 166.5 c 128,-1,22
 201 229 201 229 248 276 c 1,23,24
 266 260 266 260 274.5 251 c 128,-1,25
 283 242 283 242 284 234.5 c 128,-1,26
 285 227 285 227 284 221 c 128,-1,27
 283 215 283 215 283 209 c 1,28,29
 244 135 244 135 224.5 89 c 128,-1,30
 205 43 205 43 199 12 c 0,31,32
 193 -16 193 -16 193 -35 c 0,33,34
 193 -37 l 0,35,36
 193 -51 193 -51 193 -63 c 0,37,38
 193 -123 193 -123 216.5 -175 c 128,-1,39
 240 -227 240 -227 286 -267 c 128,-1,40
 332 -307 332 -307 398.5 -332.5 c 128,-1,41
 465 -358 465 -358 549 -358 c 0,42,43
 578 -358 578 -358 635 -349 c 128,-1,44
 692 -340 692 -340 753.5 -325.5 c 128,-1,45
 815 -311 815 -311 876.5 -295 c 128,-1,46
 938 -279 938 -279 977 -260 c 0,47,48
 1053 -225 1053 -225 1092 -193 c 0,49,50
 1128 -158 1128 -158 1128 -113 c 0,51,52
 1128 -109 l 2,53,-1
 1128 -78 l 1,54,55
 1122 -53 1122 -53 1116 -32.5 c 128,-1,56
 1110 -12 1110 -12 1101 10.5 c 128,-1,57
 1092 33 1092 33 1079.5 60.5 c 128,-1,58
 1067 88 1067 88 1047.5 126 c 128,-1,59
 1028 164 1028 164 1002.5 216 c 128,-1,60
 977 268 977 268 938 340 c 1,61,-1
 1028 516 l 1,62,63
 1049 492 1049 492 1069.5 463 c 128,-1,64
 1090 434 1090 434 1112 395 c 0,65,66
 1124 377 1124 377 1136.5 353.5 c 128,-1,67
 1149 330 1149 330 1159 303 c 0,68,69
 1171 276 1171 276 1187.5 226 c 128,-1,70
 1204 176 1204 176 1225 96 c 2,71,-1
 1243 -51 l 2,0,1
EndSplineSet
EndChar

StartChar: NameMe.134
Encoding: 134 -1 104
Width: 1404
Flags: W
HStem: -637 242<361.94 787.385> 8 205<1253.61 1419>
VStem: 16 131<-222.116 -34.3457> 1133 92<-199.062 4 6 7.7417>
LayerCount: 2
Fore
SplineSet
1419 213 m 1,0,-1
 1419 0 l 1,1,2
 1348 4 1348 4 1310 6 c 128,-1,3
 1272 8 1272 8 1253.5 8 c 128,-1,4
 1235 8 1235 8 1231 8 c 128,-1,5
 1227 8 1227 8 1227 6 c 1,6,-1
 1223 4 l 1,7,-1
 1225 -55 l 2,8,9
 1217 -156 1217 -156 1182 -239 c 128,-1,10
 1147 -322 1147 -322 1092.5 -387.5 c 128,-1,11
 1038 -453 1038 -453 968.5 -499 c 128,-1,12
 899 -545 899 -545 826.5 -576.5 c 128,-1,13
 754 -608 754 -608 679 -622.5 c 128,-1,14
 604 -637 604 -637 537 -637 c 0,15,16
 418 -637 418 -637 321.5 -604 c 128,-1,17
 225 -571 225 -571 157.5 -514 c 128,-1,18
 90 -457 90 -457 53 -375 c 128,-1,19
 16 -293 16 -293 16 -195 c 0,20,21
 16 -158 16 -158 33 -100 c 1,22,23
 78 12 78 12 112.5 79.5 c 128,-1,24
 147 147 147 147 174 184 c 128,-1,25
 201 221 201 221 218.5 233.5 c 128,-1,26
 236 246 236 246 250 246 c 0,27,-1
 252 246 l 1,28,29
 260 244 260 244 264 229 c 1,30,31
 256 209 256 209 241.5 179.5 c 128,-1,32
 227 150 227 150 210 113 c 128,-1,33
 193 76 193 76 175.5 32 c 128,-1,34
 158 -12 158 -12 147 -63 c 0,35,36
 147 -76 147 -76 147 -86 c 0,37,38
 147 -154 147 -154 182 -209 c 0,39,40
 221 -270 221 -270 287.5 -312 c 128,-1,41
 354 -354 354 -354 435 -374.5 c 128,-1,42
 516 -395 516 -395 596 -395 c 0,43,44
 637 -395 637 -395 693.5 -388 c 128,-1,45
 750 -381 750 -381 809 -362.5 c 128,-1,46
 868 -344 868 -344 925.5 -318.5 c 128,-1,47
 983 -293 983 -293 1029 -257 c 128,-1,48
 1075 -221 1075 -221 1104 -178 c 128,-1,49
 1133 -135 1133 -135 1133 -84 c 0,50,51
 1133 -55 1133 -55 1130.5 -33.5 c 128,-1,52
 1128 -12 1128 -12 1124 12.5 c 128,-1,53
 1120 37 1120 37 1112 60.5 c 128,-1,54
 1104 84 1104 84 1092 113 c 2,55,-1
 940 373 l 1,56,-1
 940 375 l 0,57,58
 940 377 940 377 944 391 c 0,59,60
 952 416 952 416 966.5 449.5 c 128,-1,61
 981 483 981 483 998.5 519 c 128,-1,62
 1016 555 1016 555 1032 575 c 1,63,64
 1044 567 1044 567 1056.5 554 c 128,-1,65
 1069 541 1069 541 1091.5 508 c 128,-1,66
 1114 475 1114 475 1146 424 c 128,-1,67
 1178 373 1178 373 1227 289 c 1,68,69
 1251 256 1251 256 1282 234.5 c 128,-1,70
 1313 213 1313 213 1339 213 c 2,71,-1
 1419 213 l 1,0,-1
EndSplineSet
EndChar

StartChar: NameMe.135
Encoding: 135 -1 105
Width: 661
Flags: W
HStem: -43 260<195.859 393.92>
VStem: 68 125<224.188 355> 410 157<224.549 353.796>
LayerCount: 2
Fore
SplineSet
567 356 m 0,0,1
 567 307 567 307 557 258 c 128,-1,2
 547 209 547 209 525.5 162 c 128,-1,3
 504 115 504 115 472 75 c 128,-1,4
 440 35 440 35 399 4 c 0,5,6
 358 -16 358 -16 328.5 -26.5 c 128,-1,7
 299 -37 299 -37 281 -39 c 0,8,9
 264 -43 264 -43 252 -43 c 0,10,11
 250 -43 250 -43 246 -41 c 0,12,13
 233 -41 233 -41 225 -41 c 0,14,15
 197 -41 197 -41 168 -24.5 c 128,-1,16
 139 -8 139 -8 117.5 20.5 c 128,-1,17
 96 49 96 49 82 88 c 128,-1,18
 68 127 68 127 68 172 c 0,19,20
 68 252 68 252 147 444 c 0,21,22
 223 635 223 635 283 707 c 1,23,24
 365 664 365 664 420 625 c 128,-1,25
 475 586 475 586 508 545 c 128,-1,26
 541 504 541 504 554 458 c 128,-1,27
 567 412 567 412 567 356 c 0,0,1
410 252 m 1,28,29
 410 281 410 281 397.5 306.5 c 128,-1,30
 385 332 385 332 364.5 354.5 c 128,-1,31
 344 377 344 377 314.5 392.5 c 128,-1,32
 285 408 285 408 252 416 c 1,33,34
 246 408 246 408 239.5 399.5 c 128,-1,35
 233 391 233 391 226 378 c 128,-1,36
 219 365 219 365 212 340 c 128,-1,37
 205 315 205 315 193 281 c 1,38,39
 193 272 193 272 195 264 c 128,-1,40
 197 256 197 256 205 247 c 128,-1,41
 213 238 213 238 226.5 229.5 c 128,-1,42
 240 221 240 221 268 217 c 1,43,44
 299 217 299 217 323.5 218 c 128,-1,45
 348 219 348 219 364.5 223 c 128,-1,46
 381 227 381 227 391 234.5 c 128,-1,47
 401 242 401 242 410 252 c 1,28,29
EndSplineSet
EndChar

StartChar: NameMe.136
Encoding: 136 -1 106
Width: 770
Flags: W
HStem: 0 215<655.79 776> 201 231<221.904 360.602>
VStem: 428 43<919.5 964.868>
LayerCount: 2
Fore
SplineSet
776 0 m 1,0,1
 739 0 739 0 715.5 3 c 128,-1,2
 692 6 692 6 671.5 13 c 128,-1,3
 651 20 651 20 632.5 33.5 c 128,-1,4
 614 47 614 47 588 70 c 0,5,6
 555 100 555 100 524 231 c 2,7,-1
 485 379 l 1,8,9
 444 317 444 317 406.5 282.5 c 128,-1,10
 369 248 369 248 334 229.5 c 128,-1,11
 299 211 299 211 263 206 c 128,-1,12
 227 201 227 201 188 201 c 0,13,14
 43 201 43 201 43 293 c 0,15,16
 43 344 43 344 61.5 396.5 c 128,-1,17
 80 449 80 449 123 502 c 128,-1,18
 166 555 166 555 236.5 608.5 c 128,-1,19
 307 662 307 662 416 715 c 1,20,21
 420 793 420 793 422 835 c 128,-1,22
 424 877 424 877 426 896 c 128,-1,23
 428 915 428 915 428 919.5 c 128,-1,24
 428 924 428 924 428 928 c 1,25,26
 440 961 440 961 448.5 965 c 128,-1,27
 457 969 457 969 462 957.5 c 128,-1,28
 467 946 467 946 471 927.5 c 128,-1,29
 475 909 475 909 483 899 c 1,30,31
 496 813 496 813 514 725 c 128,-1,32
 532 637 532 637 550.5 556 c 128,-1,33
 569 475 569 475 586.5 413.5 c 128,-1,34
 604 352 604 352 616 319 c 1,35,36
 637 287 637 287 651.5 265.5 c 128,-1,37
 666 244 666 244 682 233.5 c 128,-1,38
 698 223 698 223 718.5 219 c 128,-1,39
 739 215 739 215 776 215 c 1,40,-1
 776 0 l 1,0,1
428 633 m 1,41,42
 424 612 424 612 413.5 595 c 128,-1,43
 403 578 403 578 381.5 557.5 c 128,-1,44
 360 537 360 537 322.5 508 c 128,-1,45
 285 479 285 479 221 434 c 1,46,47
 250 432 250 432 271.5 432 c 128,-1,48
 293 432 293 432 303 432 c 0,49,50
 328 432 328 432 344 434 c 128,-1,51
 360 436 360 436 376.5 440 c 128,-1,52
 393 444 393 444 412.5 452.5 c 128,-1,53
 432 461 432 461 465 471 c 1,54,-1
 428 633 l 1,41,42
EndSplineSet
EndChar

StartChar: NameMe.137
Encoding: 137 -1 107
Width: 808
Flags: W
HStem: 0 21G<0 68> 63 142<496.277 687.813>
VStem: 391 74<345.894 503.994> 688 111<205.665 314.666>
LayerCount: 2
Fore
SplineSet
799 250 m 0,0,1
 793 193 793 193 752 152 c 0,2,3
 731 127 731 127 718 110.5 c 128,-1,4
 705 94 705 94 694.5 85 c 128,-1,5
 684 76 684 76 678 73 c 128,-1,6
 672 70 672 70 666 68 c 0,7,8
 647 68 647 68 631.5 65.5 c 128,-1,9
 616 63 616 63 600 63 c 1,10,11
 518 74 518 74 467 85 c 128,-1,12
 416 96 416 96 386 106.5 c 128,-1,13
 356 117 356 117 340 125 c 128,-1,14
 324 133 324 133 311 139 c 1,15,16
 252 96 252 96 212 69.5 c 128,-1,17
 172 43 172 43 144.5 30.5 c 128,-1,18
 117 18 117 18 98.5 14 c 128,-1,19
 80 10 80 10 68 8 c 2,20,-1
 0 0 l 1,21,-1
 0 215 l 1,22,23
 14 215 14 215 36.5 219 c 128,-1,24
 59 223 59 223 82.5 228 c 128,-1,25
 106 233 106 233 126.5 240.5 c 128,-1,26
 147 248 147 248 160 256 c 1,27,28
 156 276 156 276 127 330 c 0,29,30
 117 352 117 352 113 366.5 c 128,-1,31
 109 381 109 381 109 392 c 128,-1,32
 109 403 109 403 113 411.5 c 128,-1,33
 117 420 117 420 121 428 c 2,34,-1
 209 575 l 1,35,-1
 227 612 l 1,36,37
 209 629 209 629 209 682 c 1,38,39
 219 725 219 725 233.5 758 c 128,-1,40
 248 791 248 791 262 811 c 128,-1,41
 276 831 276 831 291.5 841.5 c 128,-1,42
 307 852 307 852 322 852 c 0,43,44
 356 848 356 848 392 828.5 c 128,-1,45
 428 809 428 809 466 778.5 c 128,-1,46
 504 748 504 748 539.5 709 c 128,-1,47
 575 670 575 670 606 629 c 0,48,49
 672 532 672 532 710 467.5 c 128,-1,50
 748 403 748 403 768 362.5 c 128,-1,51
 788 322 788 322 793.5 297 c 128,-1,52
 799 272 799 272 799 250 c 0,0,1
684 215 m 1,53,54
 688 219 688 219 688 227 c 0,55,56
 688 236 688 236 682 252 c 0,57,58
 670 276 670 276 646.5 310 c 128,-1,59
 623 344 623 344 591 380 c 128,-1,60
 559 416 559 416 533.5 445.5 c 128,-1,61
 508 475 508 475 487 492 c 0,62,63
 475 504 475 504 471 504 c 0,64,65
 469 465 469 465 469 438.5 c 128,-1,66
 469 412 469 412 465 386 c 128,-1,67
 461 360 461 360 452.5 333.5 c 128,-1,68
 444 307 444 307 428 272 c 1,69,70
 496 250 496 250 538 236.5 c 128,-1,71
 580 223 580 223 604.5 216 c 128,-1,72
 629 209 629 209 638 207 c 128,-1,73
 647 205 647 205 653 205 c 0,74,75
 680 205 680 205 684 215 c 1,53,54
391 412 m 1,76,77
 391 455 391 455 375.5 490.5 c 128,-1,78
 360 526 360 526 319 539 c 1,79,80
 299 537 299 537 285 520 c 0,81,82
 256 494 256 494 237.5 475.5 c 128,-1,83
 219 457 219 457 208 440.5 c 128,-1,84
 197 424 197 424 190.5 409.5 c 128,-1,85
 184 395 184 395 182 385 c 1,86,87
 213 340 213 340 244 328 c 0,88,89
 272 315 272 315 307 315 c 0,90,-1
 311 315 l 1,91,92
 332 328 332 328 345 338 c 128,-1,93
 358 348 358 348 367.5 358.5 c 128,-1,94
 377 369 377 369 382 380 c 128,-1,95
 387 391 387 391 391 412 c 1,76,77
EndSplineSet
EndChar

StartChar: NameMe.138
Encoding: 138 -1 108
Width: 643
Flags: W
HStem: -524 217<271 454.092> 0 215<0 84.75 469 657>
VStem: 78 90<-208.988 -80> 455 92<-305.091 -165>
LayerCount: 2
Fore
SplineSet
657 0 m 1,0,-1
 469 -4 l 1,1,2
 504 -37 504 -37 525.5 -81 c 128,-1,3
 547 -125 547 -125 547 -205 c 0,4,5
 547 -279 547 -279 534.5 -337 c 128,-1,6
 522 -395 522 -395 498.5 -437 c 128,-1,7
 475 -479 475 -479 443.5 -501.5 c 128,-1,8
 412 -524 412 -524 371 -524 c 0,9,10
 299 -516 299 -516 243.5 -484.5 c 128,-1,11
 188 -453 188 -453 150.5 -402.5 c 128,-1,12
 113 -352 113 -352 94 -289 c 0,13,14
 78 -229 78 -229 78 -164 c 0,15,16
 78 -152 l 0,17,18
 78 -109 78 -109 79 -82 c 128,-1,19
 80 -55 80 -55 80 -40 c 128,-1,20
 80 -25 80 -25 82 -16.5 c 128,-1,21
 84 -8 84 -8 86 0 c 1,22,-1
 47 0 l 2,23,24
 25 0 25 0 14.5 0 c 128,-1,25
 4 0 4 0 0 0 c 1,26,-1
 0 215 l 1,27,28
 131 215 131 215 166 260 c 1,29,30
 201 354 201 354 234.5 423 c 128,-1,31
 268 492 268 492 302 544 c 128,-1,32
 336 596 336 596 372 638 c 128,-1,33
 408 680 408 680 449 725 c 1,34,35
 459 729 459 729 467 729 c 0,36,37
 469 729 469 729 473 727 c 0,38,39
 483 725 483 725 491.5 711.5 c 128,-1,40
 500 698 500 698 504 676.5 c 128,-1,41
 508 655 508 655 508 633 c 0,42,43
 508 629 508 629 508 623 c 0,44,45
 508 582 508 582 502 541 c 0,46,47
 496 492 496 492 484.5 443.5 c 128,-1,48
 473 395 473 395 459.5 351 c 128,-1,49
 446 307 446 307 431 274.5 c 128,-1,50
 416 242 416 242 402.5 223.5 c 128,-1,51
 389 205 389 205 381 205 c 1,52,-1
 657 215 l 1,53,-1
 657 0 l 1,0,-1
430 479 m 1,54,55
 428 512 428 512 424 520 c 128,-1,56
 420 528 420 528 412 528 c 0,57,58
 403 528 403 528 386 514 c 128,-1,59
 369 500 369 500 348.5 475.5 c 128,-1,60
 328 451 328 451 306.5 419 c 128,-1,61
 285 387 285 387 266.5 357.5 c 128,-1,62
 248 328 248 328 233.5 300 c 128,-1,63
 219 272 219 272 217 252 c 1,64,65
 236 256 236 256 254 264 c 128,-1,66
 272 272 272 272 295.5 287.5 c 128,-1,67
 319 303 319 303 351 331.5 c 128,-1,68
 383 360 383 360 420 408 c 1,69,-1
 430 479 l 1,54,55
455 -276 m 0,70,71
 455 -260 455 -260 437.5 -239.5 c 128,-1,72
 420 -219 420 -219 396.5 -199.5 c 128,-1,73
 373 -180 373 -180 344 -161.5 c 128,-1,74
 315 -143 315 -143 297 -133 c 2,75,-1
 168 -80 l 1,76,77
 168 -150 168 -150 212 -209 c 128,-1,78
 256 -268 256 -268 360 -307 c 1,79,80
 375 -307 375 -307 385 -307 c 0,81,82
 414 -307 414 -307 432 -299 c 0,83,84
 455 -291 455 -291 455 -276 c 0,70,71
EndSplineSet
EndChar

StartChar: NameMe.139
Encoding: 139 -1 109
Width: 763
Flags: W
HStem: 3 214<483.186 768>
LayerCount: 2
Fore
SplineSet
768 0 m 5,0,1
 717 0 717 0 650.5 3 c 132,-1,2
 584 6 584 6 469 41 c 5,3,4
 399 76 399 76 319 201 c 5,5,6
 317 201 l 4,7,8
 272 201 272 201 207 10 c 4,9,10
 199 -14 199 -14 98 -223 c 5,11,12
 74 -240 74 -240 59 -240 c 4,13,14
 43 -240 43 -240 43 -215 c 5,15,16
 86 -16 86 -16 106.5 46.5 c 132,-1,17
 127 109 127 109 156 164 c 4,18,19
 266 408 266 408 340 412 c 5,20,21
 354 422 354 422 367 422 c 4,22,23
 412 422 412 422 479 268 c 4,24,25
 504 217 504 217 604 217 c 4,26,27
 614 217 614 217 616 217 c 4,28,29
 625 217 l 4,30,31
 639 217 639 217 686 217 c 4,32,33
 756 217 756 217 768 215 c 5,34,-1
 768 0 l 5,0,1
EndSplineSet
EndChar

StartChar: NameMe.140
Encoding: 140 -1 110
Width: 1327
Flags: W
HStem: 0 215<1052.55 1348> 117 190<857.984 973.029>
VStem: 371 161<-105.215 142.166> 553 102<474.408 548.403> 657 134<-244 33.9468>
LayerCount: 2
Fore
SplineSet
1348 0 m 1,0,1
 1296 0 1296 0 1229.5 3 c 128,-1,2
 1163 6 1163 6 1049 29 c 1,3,4
 981 63 981 63 922 109 c 0,5,6
 911 117 911 117 901 117 c 0,7,8
 856 117 856 117 811 -37 c 1,9,10
 801 -170 801 -170 791 -305 c 0,11,12
 791 -307 791 -307 791 -311 c 0,13,14
 791 -393 791 -393 707 -528 c 1,15,16
 551 -436 551 -436 442 -213 c 0,17,18
 371 -61 371 -61 371 45 c 0,19,20
 371 100 371 100 387 143 c 1,21,22
 221 18 221 18 -6 0 c 1,23,-1
 -6 215 l 1,24,25
 178 272 178 272 346 358 c 128,-1,26
 514 444 514 444 553 545 c 0,27,28
 555 565 555 565 575 565 c 0,29,30
 594 565 594 565 625 549 c 0,31,32
 655 530 655 530 655 496 c 0,33,34
 655 467 655 467 631 424 c 0,35,36
 575 334 575 334 541 152 c 0,37,38
 532 119 532 119 532 84 c 0,39,40
 532 -68 532 -68 657 -244 c 1,41,42
 664 -29 664 -29 686.5 33.5 c 128,-1,43
 709 96 709 96 752 184 c 128,-1,44
 795 272 795 272 862 299 c 0,45,46
 887 307 887 307 913 307 c 0,47,48
 967 307 967 307 1036 276 c 1,49,50
 1067 223 1067 223 1181.5 219 c 128,-1,51
 1296 215 1296 215 1348 215 c 1,52,-1
 1348 0 l 1,0,1
EndSplineSet
EndChar

StartChar: NameMe.141
Encoding: 141 -1 111
Width: 1112
Flags: W
HStem: 33 135<741.505 933.762>
VStem: 934 110<168.348 275.456>
LayerCount: 2
Fore
SplineSet
930 180 m 1,0,1
 934 182 934 182 934 190 c 0,2,3
 934 199 934 199 928 213 c 0,4,5
 915 240 915 240 891.5 272.5 c 128,-1,6
 868 305 868 305 838.5 343 c 128,-1,7
 809 381 809 381 780.5 408.5 c 128,-1,8
 752 436 752 436 735 455 c 0,9,10
 723 467 723 467 719 467 c 0,11,12
 719 465 l 1,13,14
 717 428 717 428 715 400.5 c 128,-1,15
 713 373 713 373 710 348.5 c 128,-1,16
 707 324 707 324 698.5 297 c 128,-1,17
 690 270 690 270 676 233 c 1,18,19
 743 213 743 213 784 198.5 c 128,-1,20
 825 184 825 184 848.5 178 c 128,-1,21
 872 172 872 172 883.5 170 c 128,-1,22
 895 168 895 168 899 168 c 0,23,24
 928 168 928 168 930 180 c 1,0,1
637 375 m 1,25,26
 637 416 637 416 620.5 451.5 c 128,-1,27
 604 487 604 487 565 500 c 1,28,29
 547 496 547 496 532 481 c 0,30,31
 502 457 502 457 483.5 436.5 c 128,-1,32
 465 416 465 416 452.5 400.5 c 128,-1,33
 440 385 440 385 435 371.5 c 128,-1,34
 430 358 430 358 428 344 c 1,35,36
 457 301 457 301 487 291 c 0,37,38
 518 279 518 279 555 279 c 0,39,-1
 559 281 l 1,40,41
 578 293 578 293 591 301 c 128,-1,42
 604 309 604 309 613.5 319.5 c 128,-1,43
 623 330 623 330 628 343 c 128,-1,44
 633 356 633 356 637 375 c 1,25,26
1044 213 m 0,45,46
 1038 154 1038 154 999 117 c 0,47,48
 979 88 979 88 964.5 71.5 c 128,-1,49
 950 55 950 55 941 48 c 128,-1,50
 932 41 932 41 925 37 c 128,-1,51
 918 33 918 33 911 33 c 0,52,53
 897 31 897 31 879.5 30 c 128,-1,54
 862 29 862 29 844 27 c 1,55,56
 764 37 764 37 714 47 c 128,-1,57
 664 57 664 57 632 67.5 c 128,-1,58
 600 78 600 78 583.5 87 c 128,-1,59
 567 96 567 96 555 102 c 1,60,61
 500 55 500 55 458 30.5 c 128,-1,62
 416 6 416 6 388 -7 c 128,-1,63
 360 -20 360 -20 343 -24.5 c 128,-1,64
 326 -29 326 -29 188 -68 c 0,65,66
 119 -96 119 -96 86 -96 c 0,67,68
 57 -96 57 -96 57 -78 c 0,69,70
 57 -72 57 -72 61 -63 c 0,71,72
 84 -2 84 -2 98.5 45 c 128,-1,73
 113 92 113 92 132.5 113.5 c 128,-1,74
 152 135 152 135 174.5 139 c 128,-1,75
 197 143 197 143 274.5 170 c 128,-1,76
 352 197 352 197 372.5 205 c 128,-1,77
 393 213 393 213 406 219 c 1,78,79
 399 236 399 236 377 293 c 0,80,81
 365 311 365 311 359.5 327.5 c 128,-1,82
 354 344 354 344 355 354.5 c 128,-1,83
 356 365 356 365 359 374 c 128,-1,84
 362 383 362 383 367 389 c 2,85,-1
 457 537 l 1,86,-1
 471 573 l 1,87,88
 457 588 457 588 457 643 c 1,89,90
 465 688 465 688 478.5 720 c 128,-1,91
 492 752 492 752 508 772.5 c 128,-1,92
 524 793 524 793 539.5 802 c 128,-1,93
 555 811 555 811 567 811 c 0,94,95
 600 809 600 809 637 789.5 c 128,-1,96
 674 770 674 770 711 740.5 c 128,-1,97
 748 711 748 711 783.5 672 c 128,-1,98
 819 633 819 633 852 590 c 0,99,100
 915 492 915 492 953 430.5 c 128,-1,101
 991 369 991 369 1011.5 327 c 128,-1,102
 1032 285 1032 285 1038 258 c 128,-1,103
 1044 231 1044 231 1044 213 c 0,45,46
EndSplineSet
EndChar

StartChar: NameMe.142
Encoding: 142 -1 112
Width: 1247
Flags: W
HStem: 0 215<1124.55 1247> 29 135<741.505 933.762>
LayerCount: 2
Fore
SplineSet
930 176 m 1,0,1
 934 178 934 178 934 186 c 0,2,3
 934 195 934 195 928 209 c 0,4,5
 915 236 915 236 891.5 268.5 c 128,-1,6
 868 301 868 301 838.5 339 c 128,-1,7
 809 377 809 377 780.5 404.5 c 128,-1,8
 752 432 752 432 735 451 c 0,9,10
 723 463 723 463 719 463 c 0,11,12
 719 461 l 1,13,14
 717 424 717 424 715 396.5 c 128,-1,15
 713 369 713 369 710 344 c 128,-1,16
 707 319 707 319 698.5 292.5 c 128,-1,17
 690 266 690 266 676 229 c 1,18,19
 743 209 743 209 784 194.5 c 128,-1,20
 825 180 825 180 848.5 174 c 128,-1,21
 872 168 872 168 883.5 166 c 128,-1,22
 895 164 895 164 899 164 c 0,23,24
 928 164 928 164 930 176 c 1,0,1
637 371 m 1,25,26
 637 412 637 412 620.5 447.5 c 128,-1,27
 604 483 604 483 565 496 c 1,28,29
 547 492 547 492 532 477 c 0,30,31
 502 453 502 453 483.5 432.5 c 128,-1,32
 465 412 465 412 452.5 396.5 c 128,-1,33
 440 381 440 381 435 367.5 c 128,-1,34
 430 354 430 354 428 340 c 1,35,36
 457 299 457 299 487 287 c 0,37,38
 518 274 518 274 555 274 c 0,39,-1
 559 276 l 1,40,41
 578 289 578 289 591 297 c 128,-1,42
 604 305 604 305 613.5 315.5 c 128,-1,43
 623 326 623 326 628 339 c 128,-1,44
 633 352 633 352 637 371 c 1,25,26
999 113 m 1,45,46
 979 84 979 84 964.5 67.5 c 128,-1,47
 950 51 950 51 941 44 c 128,-1,48
 932 37 932 37 925 33 c 128,-1,49
 918 29 918 29 911 29 c 0,50,51
 897 27 897 27 879.5 26 c 128,-1,52
 862 25 862 25 844 23 c 1,53,54
 764 33 764 33 714 43 c 128,-1,55
 664 53 664 53 632 63.5 c 128,-1,56
 600 74 600 74 583.5 83 c 128,-1,57
 567 92 567 92 555 98 c 1,58,59
 500 51 500 51 458 26.5 c 128,-1,60
 416 2 416 2 388 -11.5 c 128,-1,61
 360 -25 360 -25 343 -29 c 128,-1,62
 326 -33 326 -33 188 -72 c 0,63,64
 119 -100 119 -100 86 -100 c 0,65,66
 57 -100 57 -100 57 -82 c 0,67,68
 57 -76 57 -76 61 -68 c 0,69,70
 84 -6 84 -6 98.5 41 c 128,-1,71
 113 88 113 88 132.5 109.5 c 128,-1,72
 152 131 152 131 174.5 135 c 128,-1,73
 197 139 197 139 274.5 166 c 128,-1,74
 352 193 352 193 372.5 201 c 128,-1,75
 393 209 393 209 406 215 c 1,76,77
 399 231 399 231 377 289 c 0,78,79
 365 307 365 307 359.5 323.5 c 128,-1,80
 354 340 354 340 355 350 c 128,-1,81
 356 360 356 360 359 369.5 c 128,-1,82
 362 379 362 379 367 385 c 2,83,-1
 457 532 l 1,84,-1
 471 569 l 1,85,86
 457 584 457 584 457 639 c 1,87,88
 465 684 465 684 478.5 716 c 128,-1,89
 492 748 492 748 508 768 c 128,-1,90
 524 788 524 788 539.5 798.5 c 128,-1,91
 555 809 555 809 567 809 c 0,92,93
 600 805 600 805 637 785.5 c 128,-1,94
 674 766 674 766 711 736.5 c 128,-1,95
 748 707 748 707 783.5 668 c 128,-1,96
 819 629 819 629 852 586 c 0,97,98
 915 487 915 487 953 426 c 128,-1,99
 991 365 991 365 1011.5 323 c 128,-1,100
 1032 281 1032 281 1038 254 c 128,-1,101
 1044 227 1044 227 1116 223 c 128,-1,102
 1188 219 1188 219 1247 215 c 1,103,-1
 1247 0 l 1,104,105
 1188 0 1188 0 1122.5 3 c 128,-1,106
 1057 6 1057 6 999 113 c 1,45,46
EndSplineSet
EndChar

